<?xml version="1.0" encoding="utf-8" standalone="no"?>
<!DOCTYPE svg PUBLIC "-//W3C//DTD SVG 1.1//EN"
  "http://www.w3.org/Graphics/SVG/1.1/DTD/svg11.dtd">
<svg xmlns:xlink="http://www.w3.org/1999/xlink" width="432pt" height="252pt" viewBox="0 0 432 252" xmlns="http://www.w3.org/2000/svg" version="1.1">
 <metadata>
  <rdf:RDF xmlns:dc="http://purl.org/dc/elements/1.1/" xmlns:cc="http://creativecommons.org/ns#" xmlns:rdf="http://www.w3.org/1999/02/22-rdf-syntax-ns#">
   <cc:Work>
    <dc:type rdf:resource="http://purl.org/dc/dcmitype/StillImage"/>
    <dc:date>2023-10-06T14:16:45.626411</dc:date>
    <dc:format>image/svg+xml</dc:format>
    <dc:creator>
     <cc:Agent>
      <dc:title>Matplotlib v3.7.2, https://matplotlib.org/</dc:title>
     </cc:Agent>
    </dc:creator>
   </cc:Work>
  </rdf:RDF>
 </metadata>
 <defs>
  <style type="text/css">*{stroke-linejoin: round; stroke-linecap: butt}</style>
 </defs>
 <g id="figure_1">
  <g id="patch_1">
   <path d="M 0 252 
L 432 252 
L 432 0 
L 0 0 
z
" style="fill: #ffffff"/>
  </g>
  <g id="axes_1">
   <g id="patch_2">
    <path d="M 55.1 201.04 
L 410.0625 201.04 
L 410.0625 16.078876 
L 55.1 16.078876 
z
" style="fill: #ffffff"/>
   </g>
   <g id="PolyCollection_1">
    <defs>
     <path id="m6c3c2d8384" d="M 56.241311 -75.243873 
L 56.241311 -57.842286 
L 58.492372 -73.800961 
L 61.012808 -86.398176 
L 63.389984 -91.85426 
L 66.023076 -93.649809 
L 68.457408 -103.372821 
L 70.967012 -106.216779 
L 73.69509 -109.06424 
L 76.608179 -106.332913 
L 79.315762 -115.574648 
L 82.064975 -120.581128 
L 85.070291 -128.38697 
L 87.898975 -127.023154 
L 90.79389 -131.310025 
L 93.98547 -135.668254 
L 97.47522 -137.102864 
L 100.947462 -145.258976 
L 103.896128 -147.941187 
L 107.208534 -144.683508 
L 110.208134 -148.271737 
L 113.094775 -148.090778 
L 116.466617 -152.380537 
L 119.424306 -152.268632 
L 122.399093 -150.90551 
L 125.294433 -149.536709 
L 128.492968 -157.341271 
L 131.605236 -154.839021 
L 134.397095 -158.228685 
L 137.521265 -161.265466 
L 140.708769 -158.116668 
L 143.989809 -164.571765 
L 147.071929 -165.171454 
L 150.255098 -165.357517 
L 153.264004 -167.894293 
L 156.171006 -165.394019 
L 159.481004 -162.685889 
L 162.690063 -167.929595 
L 165.886732 -171.594008 
L 169.097544 -172.961991 
L 172.376849 -172.920259 
L 175.806795 -178.853035 
L 179.166951 -176.396928 
L 182.621401 -180.361667 
L 186.377938 -184.218047 
L 189.897472 -187.162058 
L 193.489494 -187.418745 
L 197.068609 -179.397757 
L 200.482417 -183.668572 
L 204.421129 -190.637784 
L 208.238938 -190.889644 
L 211.694253 -190.521639 
L 215.639449 -194.299632 
L 219.683439 -190.8561 
L 223.544171 -193.519001 
L 227.313279 -203.604027 
L 231.156609 -202.128801 
L 234.754007 -192.965113 
L 238.56187 -198.763108 
L 242.442923 -202.715144 
L 246.593645 -200.019094 
L 250.325571 -195.018075 
L 254.067757 -196.969866 
L 257.675021 -200.653251 
L 261.159745 -196.682466 
L 264.717173 -201.724853 
L 268.287872 -208.810249 
L 272.231168 -198.829371 
L 276.459337 -209.297816 
L 280.6688 -207.824182 
L 284.555948 -203.072961 
L 288.389999 -209.23196 
L 292.155242 -207.001483 
L 296.049883 -207.708146 
L 300.097825 -207.38467 
L 303.906743 -208.750443 
L 307.457531 -202.83374 
L 311.114299 -205.21795 
L 314.766904 -207.160294 
L 318.939065 -208.752205 
L 323.346982 -204.667043 
L 327.478376 -210.48236 
L 331.338691 -206.302145 
L 335.340821 -210.716933 
L 339.334517 -203.475888 
L 343.127752 -202.514084 
L 346.93543 -214.92195 
L 350.888506 -204.350578 
L 354.916303 -209.902731 
L 358.879109 -211.086502 
L 362.900053 -206.981399 
L 367.132728 -212.212527 
L 371.376032 -211.296206 
L 375.365929 -214.700104 
L 379.715517 -212.983364 
L 383.91989 -208.888929 
L 388.390683 -216.614559 
L 393.294723 -201.500741 
L 397.490382 -213.225749 
L 401.61119 -210.315098 
L 405.723589 -220.879531 
L 405.723589 -230.885553 
L 405.723589 -230.885553 
L 401.61119 -232.377629 
L 397.490382 -225.462955 
L 393.294723 -228.543159 
L 388.390683 -227.788715 
L 383.91989 -225.581285 
L 379.715517 -225.767008 
L 375.365929 -226.868242 
L 371.376032 -225.256515 
L 367.132728 -226.671498 
L 362.900053 -227.957241 
L 358.879109 -224.446877 
L 354.916303 -226.71832 
L 350.888506 -223.259609 
L 346.93543 -224.881292 
L 343.127752 -220.232904 
L 339.334517 -220.977141 
L 335.340821 -224.756792 
L 331.338691 -226.54504 
L 327.478376 -224.766717 
L 323.346982 -221.629849 
L 318.939065 -223.210539 
L 314.766904 -224.031247 
L 311.114299 -224.401296 
L 307.457531 -221.866738 
L 303.906743 -221.662448 
L 300.097825 -224.233884 
L 296.049883 -223.043905 
L 292.155242 -220.836323 
L 288.389999 -223.296262 
L 284.555948 -222.765754 
L 280.6688 -218.316948 
L 276.459337 -222.721632 
L 272.231168 -222.427053 
L 268.287872 -223.956045 
L 264.717173 -218.843852 
L 261.159745 -219.178645 
L 257.675021 -217.241655 
L 254.067757 -217.096114 
L 250.325571 -216.338159 
L 246.593645 -216.921449 
L 242.442923 -219.158603 
L 238.56187 -217.920615 
L 234.754007 -217.455413 
L 231.156609 -221.000789 
L 227.313279 -215.092962 
L 223.544171 -222.187758 
L 219.683439 -218.276802 
L 215.639449 -213.556963 
L 211.694253 -213.065715 
L 208.238938 -209.812652 
L 204.421129 -212.878769 
L 200.482417 -210.395354 
L 197.068609 -210.138308 
L 193.489494 -206.438541 
L 189.897472 -204.776742 
L 186.377938 -205.509562 
L 182.621401 -203.456487 
L 179.166951 -202.555854 
L 175.806795 -197.162636 
L 172.376849 -193.000328 
L 169.097544 -191.344989 
L 165.886732 -188.272875 
L 162.690063 -190.03744 
L 159.481004 -188.324204 
L 156.171006 -181.287598 
L 153.264004 -180.775431 
L 150.255098 -174.978176 
L 147.071929 -177.678327 
L 143.989809 -175.567014 
L 140.708769 -173.660966 
L 137.521265 -172.896256 
L 134.397095 -172.939339 
L 131.605236 -169.302722 
L 128.492968 -169.079147 
L 125.294433 -166.964876 
L 122.399093 -168.12517 
L 119.424306 -166.932616 
L 116.466617 -166.032686 
L 113.094775 -162.312372 
L 110.208134 -160.729279 
L 107.208534 -160.648245 
L 103.896128 -158.005362 
L 100.947462 -158.619829 
L 97.47522 -151.027468 
L 93.98547 -152.8872 
L 90.79389 -152.297351 
L 87.898975 -139.420533 
L 85.070291 -136.04663 
L 82.064975 -135.084782 
L 79.315762 -129.512354 
L 76.608179 -129.914992 
L 73.69509 -122.291808 
L 70.967012 -115.034248 
L 68.457408 -112.099855 
L 66.023076 -108.185473 
L 63.389984 -102.908581 
L 61.012808 -97.740185 
L 58.492372 -90.346438 
L 56.241311 -75.243873 
z
" style="stroke: #ff7f0e; stroke-opacity: 0.1"/>
    </defs>
    <g clip-path="url(#p92bfaeddfe)">
     <use xlink:href="#m6c3c2d8384" x="0" y="252" style="fill: #ff7f0e; fill-opacity: 0.1; stroke: #ff7f0e; stroke-opacity: 0.1"/>
    </g>
   </g>
   <g id="PolyCollection_2">
    <defs>
     <path id="mb93effbb3a" d="M 56.3074 -81.202288 
L 56.3074 -57.917642 
L 58.935897 -78.721105 
L 61.773306 -88.236879 
L 64.788438 -98.358237 
L 67.750574 -102.429066 
L 70.821908 -105.983212 
L 73.732727 -106.938886 
L 76.488063 -106.832632 
L 79.270318 -112.403964 
L 82.314332 -117.146345 
L 85.344357 -118.520886 
L 88.345203 -120.595698 
L 91.378185 -116.749269 
L 94.488426 -121.100572 
L 97.675824 -127.91853 
L 101.005362 -129.413063 
L 104.088373 -135.347382 
L 107.542686 -135.343799 
L 110.903525 -138.222701 
L 114.287852 -148.980255 
L 117.599885 -143.966894 
L 121.00229 -149.106465 
L 124.558227 -149.936996 
L 127.895002 -144.826099 
L 131.210469 -147.393971 
L 134.578557 -148.43159 
L 138.016113 -148.151115 
L 141.673652 -154.421257 
L 145.250061 -150.696912 
L 148.830648 -148.461512 
L 152.249209 -148.180799 
L 155.986898 -150.210005 
L 159.21017 -147.366524 
L 162.335702 -152.272863 
L 165.722062 -151.311185 
L 169.191568 -151.574315 
L 172.707294 -153.193071 
L 176.144781 -150.831107 
L 179.727918 -150.614829 
L 183.474504 -159.400078 
L 187.059292 -153.846221 
L 190.842886 -148.181213 
L 194.519737 -155.368559 
L 198.228769 -153.154922 
L 201.795295 -158.733465 
L 205.480242 -158.451781 
L 208.867318 -156.410121 
L 212.30677 -153.433111 
L 216.005167 -153.454171 
L 219.595863 -152.136495 
L 223.495037 -157.350812 
L 227.179628 -156.212272 
L 230.812808 -158.506842 
L 234.59697 -159.575481 
L 238.131338 -158.574277 
L 241.722839 -160.445814 
L 245.474226 -161.819126 
L 249.414603 -159.644102 
L 253.106347 -154.788057 
L 256.714864 -152.458731 
L 260.070968 -160.244389 
L 263.587033 -156.711434 
L 267.280093 -159.662509 
L 270.826658 -160.848624 
L 274.192374 -157.740374 
L 277.962786 -163.884013 
L 281.904811 -156.969292 
L 285.386418 -161.967311 
L 288.993305 -162.06675 
L 292.935558 -162.356233 
L 296.527684 -161.153403 
L 300.059748 -159.923125 
L 303.940889 -163.026631 
L 307.652431 -158.596782 
L 311.236505 -159.610764 
L 315.091735 -160.456001 
L 319.111784 -159.581623 
L 322.889665 -157.590805 
L 326.639051 -157.372281 
L 330.36029 -151.845859 
L 334.067307 -153.33275 
L 337.751214 -161.865306 
L 341.554585 -158.689404 
L 345.380584 -160.837294 
L 349.260905 -158.677632 
L 352.901861 -162.953247 
L 356.576708 -159.724049 
L 360.358085 -162.654445 
L 363.917037 -159.877225 
L 367.644173 -161.106277 
L 371.279402 -164.066715 
L 374.895741 -162.076224 
L 378.903998 -164.840563 
L 382.979435 -157.19585 
L 386.979649 -155.917963 
L 391.039225 -162.214132 
L 395.118998 -159.996875 
L 398.996152 -162.285043 
L 402.883869 -158.883137 
L 406.777879 -167.339149 
L 406.777879 -188.92673 
L 406.777879 -188.92673 
L 402.883869 -187.530399 
L 398.996152 -189.550685 
L 395.118998 -185.225679 
L 391.039225 -186.037821 
L 386.979649 -186.096935 
L 382.979435 -183.578665 
L 378.903998 -181.598425 
L 374.895741 -186.598587 
L 371.279402 -182.852997 
L 367.644173 -185.359244 
L 363.917037 -178.091458 
L 360.358085 -182.857577 
L 356.576708 -181.663768 
L 352.901861 -185.303371 
L 349.260905 -182.376629 
L 345.380584 -184.930583 
L 341.554585 -182.05423 
L 337.751214 -185.334665 
L 334.067307 -183.452669 
L 330.36029 -183.736652 
L 326.639051 -181.525022 
L 322.889665 -183.181117 
L 319.111784 -183.663848 
L 315.091735 -183.940207 
L 311.236505 -183.309465 
L 307.652431 -186.300274 
L 303.940889 -187.182096 
L 300.059748 -184.946566 
L 296.527684 -186.455105 
L 292.935558 -186.515189 
L 288.993305 -185.43887 
L 285.386418 -179.862472 
L 281.904811 -183.435071 
L 277.962786 -179.382204 
L 274.192374 -186.076119 
L 270.826658 -184.407444 
L 267.280093 -183.932014 
L 263.587033 -181.581886 
L 260.070968 -185.336298 
L 256.714864 -184.48641 
L 253.106347 -181.468509 
L 249.414603 -182.800666 
L 245.474226 -183.426873 
L 241.722839 -182.36042 
L 238.131338 -183.520922 
L 234.59697 -180.045651 
L 230.812808 -181.981765 
L 227.179628 -183.889684 
L 223.495037 -184.457452 
L 219.595863 -185.974126 
L 216.005167 -185.175969 
L 212.30677 -180.236431 
L 208.867318 -187.223879 
L 205.480242 -193.544718 
L 201.795295 -187.153661 
L 198.228769 -184.738256 
L 194.519737 -183.179475 
L 190.842886 -181.000241 
L 187.059292 -181.626769 
L 183.474504 -178.017672 
L 179.727918 -172.935658 
L 176.144781 -170.821543 
L 172.707294 -172.476502 
L 169.191568 -170.547337 
L 165.722062 -171.664987 
L 162.335702 -171.626461 
L 159.21017 -173.398084 
L 155.986898 -169.477195 
L 152.249209 -173.400658 
L 148.830648 -172.192317 
L 145.250061 -176.188141 
L 141.673652 -172.419665 
L 138.016113 -171.668193 
L 134.578557 -170.648009 
L 131.210469 -167.805147 
L 127.895002 -167.171115 
L 124.558227 -165.385098 
L 121.00229 -164.596593 
L 117.599885 -165.064733 
L 114.287852 -162.287134 
L 110.903525 -159.539264 
L 107.542686 -158.634522 
L 104.088373 -161.169193 
L 101.005362 -166.497325 
L 97.675824 -161.226618 
L 94.488426 -153.428719 
L 91.378185 -150.275062 
L 88.345203 -149.321687 
L 85.344357 -145.4781 
L 82.314332 -142.624237 
L 79.270318 -141.513668 
L 76.488063 -125.815984 
L 73.732727 -124.803528 
L 70.821908 -118.654732 
L 67.750574 -115.448965 
L 64.788438 -107.827644 
L 61.773306 -102.639371 
L 58.935897 -92.18365 
L 56.3074 -81.202288 
z
" style="stroke: #17becf; stroke-opacity: 0.1"/>
    </defs>
    <g clip-path="url(#p92bfaeddfe)">
     <use xlink:href="#mb93effbb3a" x="0" y="252" style="fill: #17becf; fill-opacity: 0.1; stroke: #17becf; stroke-opacity: 0.1"/>
    </g>
   </g>
   <g id="PolyCollection_3">
    <defs>
     <path id="mb18a54dda6" d="M 56.347188 -78.384331 
L 56.347188 -53.768414 
L 59.037321 -75.66696 
L 61.819931 -83.164333 
L 64.424156 -92.215955 
L 67.010065 -92.287424 
L 70.081048 -100.211539 
L 73.19221 -99.130688 
L 76.049796 -112.406302 
L 78.942377 -109.648663 
L 81.982434 -117.359172 
L 84.932825 -119.366337 
L 87.747508 -114.183649 
L 90.871669 -123.269786 
L 94.122743 -125.114523 
L 97.261341 -129.034744 
L 100.565616 -131.127185 
L 104.038302 -139.18099 
L 107.297252 -137.99081 
L 110.75266 -136.299206 
L 114.205128 -139.168752 
L 117.16677 -136.906081 
L 120.309636 -129.667677 
L 123.241241 -137.711091 
L 126.610128 -141.495069 
L 130.266207 -144.664227 
L 133.711638 -139.939041 
L 137.013705 -138.496247 
L 140.612547 -137.922798 
L 143.949248 -141.105748 
L 147.457212 -144.117153 
L 150.902848 -146.484669 
L 154.495715 -139.069255 
L 157.844855 -142.183222 
L 161.279467 -145.751705 
L 165.200283 -150.797768 
L 168.720978 -146.084162 
L 172.040499 -144.334795 
L 175.468072 -145.923732 
L 178.966199 -147.110201 
L 182.535067 -141.921634 
L 186.216806 -143.667512 
L 189.884544 -149.698986 
L 193.301018 -149.306615 
L 196.658879 -151.303256 
L 200.374908 -153.615186 
L 203.820699 -148.849051 
L 207.64656 -152.524901 
L 211.278879 -149.256622 
L 214.951133 -147.814261 
L 218.83563 -149.092493 
L 222.810181 -150.748548 
L 226.46828 -151.785505 
L 230.218149 -155.10854 
L 234.010016 -159.040162 
L 237.479165 -153.446216 
L 241.137151 -161.979648 
L 244.645528 -158.468765 
L 248.137231 -163.981688 
L 251.933093 -156.183162 
L 255.707927 -158.588782 
L 259.977383 -161.667071 
L 263.589941 -156.072681 
L 267.460175 -163.933844 
L 271.051731 -161.024074 
L 274.679528 -160.728481 
L 278.505371 -162.469969 
L 282.382698 -160.221885 
L 285.85883 -154.5556 
L 289.35176 -159.000811 
L 292.966181 -160.048695 
L 296.69932 -161.098045 
L 300.623821 -162.564525 
L 304.344011 -159.568341 
L 307.9875 -155.774682 
L 311.864497 -161.88962 
L 316.03671 -159.961441 
L 319.917287 -156.37453 
L 323.543123 -156.354007 
L 327.416596 -156.247241 
L 331.22189 -161.334397 
L 334.928684 -156.601228 
L 338.620043 -158.522833 
L 342.303471 -160.713474 
L 345.940905 -154.990813 
L 349.607227 -155.870537 
L 353.204525 -155.191002 
L 357.150104 -157.51568 
L 361.330436 -156.558084 
L 365.272877 -156.622065 
L 369.343489 -152.723191 
L 373.12987 -155.339215 
L 376.929734 -158.328981 
L 380.657717 -156.985124 
L 384.679923 -160.145183 
L 388.674185 -155.821073 
L 392.278033 -158.392657 
L 395.856246 -154.699213 
L 399.732935 -159.117366 
L 403.486703 -157.282953 
L 407.131628 -154.950361 
L 407.131628 -184.051336 
L 407.131628 -184.051336 
L 403.486703 -189.212194 
L 399.732935 -189.225969 
L 395.856246 -191.150233 
L 392.278033 -185.775299 
L 388.674185 -184.476671 
L 384.679923 -180.899249 
L 380.657717 -177.824249 
L 376.929734 -178.663039 
L 373.12987 -178.134568 
L 369.343489 -173.393916 
L 365.272877 -178.740791 
L 361.330436 -178.241456 
L 357.150104 -172.538516 
L 353.204525 -175.292069 
L 349.607227 -174.311611 
L 345.940905 -178.743671 
L 342.303471 -174.606234 
L 338.620043 -173.25251 
L 334.928684 -177.246182 
L 331.22189 -181.224513 
L 327.416596 -174.819309 
L 323.543123 -179.292969 
L 319.917287 -172.916531 
L 316.03671 -176.774278 
L 311.864497 -174.883367 
L 307.9875 -176.658729 
L 304.344011 -184.216706 
L 300.623821 -178.560443 
L 296.69932 -180.513181 
L 292.966181 -180.803874 
L 289.35176 -177.152188 
L 285.85883 -178.895354 
L 282.382698 -180.467147 
L 278.505371 -176.625785 
L 274.679528 -182.401061 
L 271.051731 -182.320393 
L 267.460175 -180.804363 
L 263.589941 -181.044273 
L 259.977383 -179.467006 
L 255.707927 -174.721012 
L 251.933093 -175.630125 
L 248.137231 -176.374824 
L 244.645528 -177.928273 
L 241.137151 -177.738392 
L 237.479165 -174.010382 
L 234.010016 -173.997443 
L 230.218149 -172.874645 
L 226.46828 -170.659987 
L 222.810181 -174.560403 
L 218.83563 -175.166469 
L 214.951133 -168.109112 
L 211.278879 -167.946836 
L 207.64656 -164.77567 
L 203.820699 -171.258437 
L 200.374908 -169.831761 
L 196.658879 -176.231897 
L 193.301018 -168.870554 
L 189.884544 -175.086395 
L 186.216806 -174.073375 
L 182.535067 -168.959005 
L 178.966199 -172.975256 
L 175.468072 -174.842525 
L 172.040499 -168.777582 
L 168.720978 -172.344852 
L 165.200283 -171.484631 
L 161.279467 -171.402958 
L 157.844855 -167.963482 
L 154.495715 -164.085505 
L 150.902848 -161.626237 
L 147.457212 -161.878677 
L 143.949248 -158.033341 
L 140.612547 -162.605655 
L 137.013705 -157.612001 
L 133.711638 -163.36194 
L 130.266207 -157.759726 
L 126.610128 -158.664875 
L 123.241241 -156.066637 
L 120.309636 -152.855767 
L 117.16677 -155.457116 
L 114.205128 -156.328181 
L 110.75266 -152.366749 
L 107.297252 -153.151693 
L 104.038302 -154.017831 
L 100.565616 -149.53957 
L 97.261341 -142.446914 
L 94.122743 -144.455083 
L 90.871669 -135.074815 
L 87.747508 -131.411789 
L 84.932825 -131.929278 
L 81.982434 -128.688444 
L 78.942377 -122.466758 
L 76.049796 -121.250489 
L 73.19221 -117.103714 
L 70.081048 -112.87692 
L 67.010065 -109.954347 
L 64.424156 -101.095665 
L 61.819931 -99.348761 
L 59.037321 -87.479461 
L 56.347188 -78.384331 
z
" style="stroke: #e377c2; stroke-opacity: 0.1"/>
    </defs>
    <g clip-path="url(#p92bfaeddfe)">
     <use xlink:href="#mb18a54dda6" x="0" y="252" style="fill: #e377c2; fill-opacity: 0.1; stroke: #e377c2; stroke-opacity: 0.1"/>
    </g>
   </g>
   <g id="PolyCollection_4">
    <defs>
     <path id="mfade806f7b" d="M 56.198506 -77.19163 
L 56.198506 -57.250332 
L 58.284943 -62.354729 
L 60.686471 -80.629229 
L 63.256286 -85.814621 
L 65.730223 -94.824708 
L 68.178624 -100.067585 
L 70.472547 -101.244519 
L 72.889094 -105.085441 
L 75.411277 -107.736656 
L 77.991029 -107.715521 
L 80.597147 -110.663407 
L 83.015986 -109.964827 
L 85.559196 -113.140219 
L 88.246986 -117.304775 
L 90.885486 -119.957086 
L 93.695091 -120.886963 
L 96.655978 -123.237184 
L 99.55475 -127.166602 
L 102.431884 -134.847502 
L 105.432355 -138.80861 
L 108.429857 -141.228104 
L 111.418915 -145.724082 
L 114.665601 -147.681567 
L 117.846163 -153.478309 
L 121.158029 -156.742652 
L 124.697238 -151.797736 
L 128.301851 -159.229659 
L 132.020404 -160.409259 
L 135.633152 -162.998541 
L 139.230877 -162.562637 
L 142.928101 -162.367889 
L 146.833373 -165.941032 
L 150.623429 -169.205342 
L 154.270517 -160.758937 
L 157.707861 -166.068095 
L 161.116521 -172.266656 
L 164.537917 -171.719661 
L 168.172745 -172.697879 
L 171.952068 -176.314986 
L 175.528811 -177.141952 
L 178.847412 -180.606393 
L 182.527648 -180.685536 
L 186.146797 -182.874064 
L 189.400198 -173.102998 
L 192.94781 -179.978928 
L 196.951672 -182.100143 
L 200.560249 -180.522519 
L 204.403885 -179.516828 
L 208.251287 -186.129039 
L 212.228416 -186.993801 
L 215.966508 -189.71655 
L 220.203201 -190.505871 
L 224.298456 -191.83784 
L 228.092343 -186.097957 
L 231.987741 -191.291855 
L 235.795202 -190.952236 
L 239.383688 -194.304234 
L 242.986208 -184.510594 
L 246.631351 -202.771539 
L 250.337145 -197.927253 
L 254.007477 -196.667147 
L 257.697953 -200.189969 
L 261.578115 -202.125894 
L 265.413363 -185.040883 
L 269.329796 -203.010363 
L 273.264289 -195.747437 
L 277.059112 -199.932858 
L 280.858801 -196.038177 
L 284.259604 -200.981665 
L 287.959486 -204.351247 
L 291.704004 -198.070768 
L 295.580164 -195.545515 
L 299.34369 -205.304604 
L 303.124754 -204.570327 
L 306.961567 -206.188475 
L 310.660217 -204.984669 
L 314.668393 -196.733494 
L 318.382296 -199.222223 
L 322.315884 -200.695643 
L 326.548181 -208.788254 
L 330.418747 -199.198925 
L 334.146699 -200.848521 
L 338.16818 -205.372995 
L 342.303797 -208.651401 
L 346.129259 -201.387228 
L 350.264435 -208.621337 
L 354.219927 -194.992226 
L 358.327906 -205.982512 
L 362.281637 -206.29682 
L 366.321691 -208.486507 
L 370.591743 -206.972264 
L 375.212313 -211.498843 
L 379.552735 -211.082948 
L 383.448775 -208.776937 
L 387.42298 -206.433662 
L 391.470871 -208.064618 
L 395.540969 -205.877542 
L 399.558547 -211.291065 
L 403.632527 -211.737314 
L 407.639281 -200.66499 
L 407.639281 -226.551922 
L 407.639281 -226.551922 
L 403.632527 -226.617766 
L 399.558547 -226.849634 
L 395.540969 -223.364455 
L 391.470871 -224.796122 
L 387.42298 -229.886658 
L 383.448775 -227.680091 
L 379.552735 -224.870979 
L 375.212313 -227.540722 
L 370.591743 -224.2177 
L 366.321691 -227.468777 
L 362.281637 -229.541202 
L 358.327906 -225.184102 
L 354.219927 -224.12013 
L 350.264435 -228.584325 
L 346.129259 -227.631889 
L 342.303797 -226.467528 
L 338.16818 -224.043441 
L 334.146699 -225.389158 
L 330.418747 -226.948846 
L 326.548181 -223.428173 
L 322.315884 -223.991641 
L 318.382296 -228.879591 
L 314.668393 -222.074524 
L 310.660217 -222.022422 
L 306.961567 -221.656799 
L 303.124754 -220.943715 
L 299.34369 -220.047284 
L 295.580164 -218.780412 
L 291.704004 -218.91234 
L 287.959486 -224.748072 
L 284.259604 -225.851394 
L 280.858801 -222.695202 
L 277.059112 -219.36694 
L 273.264289 -219.17583 
L 269.329796 -225.510562 
L 265.413363 -218.515198 
L 261.578115 -218.907075 
L 257.697953 -222.594381 
L 254.007477 -218.920166 
L 250.337145 -218.777863 
L 246.631351 -218.337519 
L 242.986208 -212.182859 
L 239.383688 -215.008772 
L 235.795202 -213.777427 
L 231.987741 -215.99813 
L 228.092343 -210.36997 
L 224.298456 -210.37743 
L 220.203201 -212.077468 
L 215.966508 -210.434548 
L 212.228416 -206.767113 
L 208.251287 -204.280828 
L 204.403885 -204.047029 
L 200.560249 -206.026849 
L 196.951672 -202.459504 
L 192.94781 -203.237697 
L 189.400198 -202.916863 
L 186.146797 -206.244811 
L 182.527648 -200.12286 
L 178.847412 -195.067155 
L 175.528811 -199.28357 
L 171.952068 -190.017036 
L 168.172745 -192.35795 
L 164.537917 -190.102897 
L 161.116521 -189.181729 
L 157.707861 -186.491776 
L 154.270517 -184.874488 
L 150.623429 -183.918037 
L 146.833373 -182.633412 
L 142.928101 -180.797765 
L 139.230877 -181.000452 
L 135.633152 -179.562507 
L 132.020404 -181.256326 
L 128.301851 -177.853041 
L 124.697238 -174.601289 
L 121.158029 -176.204038 
L 117.846163 -170.302279 
L 114.665601 -166.776832 
L 111.418915 -162.326759 
L 108.429857 -164.30363 
L 105.432355 -158.599386 
L 102.431884 -158.560946 
L 99.55475 -151.035133 
L 96.655978 -145.911281 
L 93.695091 -140.016418 
L 90.885486 -137.154025 
L 88.246986 -129.098977 
L 85.559196 -126.634391 
L 83.015986 -125.853732 
L 80.597147 -123.66153 
L 77.991029 -118.952597 
L 75.411277 -116.94005 
L 72.889094 -115.216628 
L 70.472547 -115.290873 
L 68.178624 -114.602683 
L 65.730223 -111.697549 
L 63.256286 -104.967036 
L 60.686471 -95.375616 
L 58.284943 -88.540641 
L 56.198506 -77.19163 
z
" style="stroke: #7f7f7f; stroke-opacity: 0.1"/>
    </defs>
    <g clip-path="url(#p92bfaeddfe)">
     <use xlink:href="#mfade806f7b" x="0" y="252" style="fill: #7f7f7f; fill-opacity: 0.1; stroke: #7f7f7f; stroke-opacity: 0.1"/>
    </g>
   </g>
   <g id="matplotlib.axis_1">
    <g id="xtick_1">
     <g id="line2d_1">
      <path d="M 55.1 201.04 
L 55.1 16.078876 
" clip-path="url(#p92bfaeddfe)" style="fill: none; stroke-dasharray: 2.96,1.28; stroke-dashoffset: 0; stroke: #d3d3d3; stroke-width: 0.8"/>
     </g>
     <g id="line2d_2">
      <defs>
       <path id="m2533c0d07c" d="M 0 0 
L 0 3.5 
" style="stroke: #000000; stroke-width: 0.8"/>
      </defs>
      <g>
       <use xlink:href="#m2533c0d07c" x="55.1" y="201.04" style="stroke: #000000; stroke-width: 0.8"/>
      </g>
     </g>
     <g id="text_1">
      <!-- 0.0 -->
      <g transform="translate(43.967813 218.677812) scale(0.14 -0.14)">
       <defs>
        <path id="DejaVuSans-30" d="M 2034 4250 
Q 1547 4250 1301 3770 
Q 1056 3291 1056 2328 
Q 1056 1369 1301 889 
Q 1547 409 2034 409 
Q 2525 409 2770 889 
Q 3016 1369 3016 2328 
Q 3016 3291 2770 3770 
Q 2525 4250 2034 4250 
z
M 2034 4750 
Q 2819 4750 3233 4129 
Q 3647 3509 3647 2328 
Q 3647 1150 3233 529 
Q 2819 -91 2034 -91 
Q 1250 -91 836 529 
Q 422 1150 422 2328 
Q 422 3509 836 4129 
Q 1250 4750 2034 4750 
z
" transform="scale(0.015625)"/>
        <path id="DejaVuSans-2e" d="M 684 794 
L 1344 794 
L 1344 0 
L 684 0 
L 684 794 
z
" transform="scale(0.015625)"/>
       </defs>
       <use xlink:href="#DejaVuSans-30"/>
       <use xlink:href="#DejaVuSans-2e" x="63.623047"/>
       <use xlink:href="#DejaVuSans-30" x="95.410156"/>
      </g>
     </g>
    </g>
    <g id="xtick_2">
     <g id="line2d_3">
      <path d="M 143.840625 201.04 
L 143.840625 16.078876 
" clip-path="url(#p92bfaeddfe)" style="fill: none; stroke-dasharray: 2.96,1.28; stroke-dashoffset: 0; stroke: #d3d3d3; stroke-width: 0.8"/>
     </g>
     <g id="line2d_4">
      <g>
       <use xlink:href="#m2533c0d07c" x="143.840625" y="201.04" style="stroke: #000000; stroke-width: 0.8"/>
      </g>
     </g>
     <g id="text_2">
      <!-- 1.5 -->
      <g transform="translate(132.708438 218.677812) scale(0.14 -0.14)">
       <defs>
        <path id="DejaVuSans-31" d="M 794 531 
L 1825 531 
L 1825 4091 
L 703 3866 
L 703 4441 
L 1819 4666 
L 2450 4666 
L 2450 531 
L 3481 531 
L 3481 0 
L 794 0 
L 794 531 
z
" transform="scale(0.015625)"/>
        <path id="DejaVuSans-35" d="M 691 4666 
L 3169 4666 
L 3169 4134 
L 1269 4134 
L 1269 2991 
Q 1406 3038 1543 3061 
Q 1681 3084 1819 3084 
Q 2600 3084 3056 2656 
Q 3513 2228 3513 1497 
Q 3513 744 3044 326 
Q 2575 -91 1722 -91 
Q 1428 -91 1123 -41 
Q 819 9 494 109 
L 494 744 
Q 775 591 1075 516 
Q 1375 441 1709 441 
Q 2250 441 2565 725 
Q 2881 1009 2881 1497 
Q 2881 1984 2565 2268 
Q 2250 2553 1709 2553 
Q 1456 2553 1204 2497 
Q 953 2441 691 2322 
L 691 4666 
z
" transform="scale(0.015625)"/>
       </defs>
       <use xlink:href="#DejaVuSans-31"/>
       <use xlink:href="#DejaVuSans-2e" x="63.623047"/>
       <use xlink:href="#DejaVuSans-35" x="95.410156"/>
      </g>
     </g>
    </g>
    <g id="xtick_3">
     <g id="line2d_5">
      <path d="M 232.58125 201.04 
L 232.58125 16.078876 
" clip-path="url(#p92bfaeddfe)" style="fill: none; stroke-dasharray: 2.96,1.28; stroke-dashoffset: 0; stroke: #d3d3d3; stroke-width: 0.8"/>
     </g>
     <g id="line2d_6">
      <g>
       <use xlink:href="#m2533c0d07c" x="232.58125" y="201.04" style="stroke: #000000; stroke-width: 0.8"/>
      </g>
     </g>
     <g id="text_3">
      <!-- 3.0 -->
      <g transform="translate(221.449062 218.677812) scale(0.14 -0.14)">
       <defs>
        <path id="DejaVuSans-33" d="M 2597 2516 
Q 3050 2419 3304 2112 
Q 3559 1806 3559 1356 
Q 3559 666 3084 287 
Q 2609 -91 1734 -91 
Q 1441 -91 1130 -33 
Q 819 25 488 141 
L 488 750 
Q 750 597 1062 519 
Q 1375 441 1716 441 
Q 2309 441 2620 675 
Q 2931 909 2931 1356 
Q 2931 1769 2642 2001 
Q 2353 2234 1838 2234 
L 1294 2234 
L 1294 2753 
L 1863 2753 
Q 2328 2753 2575 2939 
Q 2822 3125 2822 3475 
Q 2822 3834 2567 4026 
Q 2313 4219 1838 4219 
Q 1578 4219 1281 4162 
Q 984 4106 628 3988 
L 628 4550 
Q 988 4650 1302 4700 
Q 1616 4750 1894 4750 
Q 2613 4750 3031 4423 
Q 3450 4097 3450 3541 
Q 3450 3153 3228 2886 
Q 3006 2619 2597 2516 
z
" transform="scale(0.015625)"/>
       </defs>
       <use xlink:href="#DejaVuSans-33"/>
       <use xlink:href="#DejaVuSans-2e" x="63.623047"/>
       <use xlink:href="#DejaVuSans-30" x="95.410156"/>
      </g>
     </g>
    </g>
    <g id="xtick_4">
     <g id="line2d_7">
      <path d="M 321.321875 201.04 
L 321.321875 16.078876 
" clip-path="url(#p92bfaeddfe)" style="fill: none; stroke-dasharray: 2.96,1.28; stroke-dashoffset: 0; stroke: #d3d3d3; stroke-width: 0.8"/>
     </g>
     <g id="line2d_8">
      <g>
       <use xlink:href="#m2533c0d07c" x="321.321875" y="201.04" style="stroke: #000000; stroke-width: 0.8"/>
      </g>
     </g>
     <g id="text_4">
      <!-- 4.5 -->
      <g transform="translate(310.189687 218.677812) scale(0.14 -0.14)">
       <defs>
        <path id="DejaVuSans-34" d="M 2419 4116 
L 825 1625 
L 2419 1625 
L 2419 4116 
z
M 2253 4666 
L 3047 4666 
L 3047 1625 
L 3713 1625 
L 3713 1100 
L 3047 1100 
L 3047 0 
L 2419 0 
L 2419 1100 
L 313 1100 
L 313 1709 
L 2253 4666 
z
" transform="scale(0.015625)"/>
       </defs>
       <use xlink:href="#DejaVuSans-34"/>
       <use xlink:href="#DejaVuSans-2e" x="63.623047"/>
       <use xlink:href="#DejaVuSans-35" x="95.410156"/>
      </g>
     </g>
    </g>
    <g id="xtick_5">
     <g id="line2d_9">
      <path d="M 410.0625 201.04 
L 410.0625 16.078876 
" clip-path="url(#p92bfaeddfe)" style="fill: none; stroke-dasharray: 2.96,1.28; stroke-dashoffset: 0; stroke: #d3d3d3; stroke-width: 0.8"/>
     </g>
     <g id="line2d_10">
      <g>
       <use xlink:href="#m2533c0d07c" x="410.0625" y="201.04" style="stroke: #000000; stroke-width: 0.8"/>
      </g>
     </g>
     <g id="text_5">
      <!-- 6.0 -->
      <g transform="translate(398.930312 218.677812) scale(0.14 -0.14)">
       <defs>
        <path id="DejaVuSans-36" d="M 2113 2584 
Q 1688 2584 1439 2293 
Q 1191 2003 1191 1497 
Q 1191 994 1439 701 
Q 1688 409 2113 409 
Q 2538 409 2786 701 
Q 3034 994 3034 1497 
Q 3034 2003 2786 2293 
Q 2538 2584 2113 2584 
z
M 3366 4563 
L 3366 3988 
Q 3128 4100 2886 4159 
Q 2644 4219 2406 4219 
Q 1781 4219 1451 3797 
Q 1122 3375 1075 2522 
Q 1259 2794 1537 2939 
Q 1816 3084 2150 3084 
Q 2853 3084 3261 2657 
Q 3669 2231 3669 1497 
Q 3669 778 3244 343 
Q 2819 -91 2113 -91 
Q 1303 -91 875 529 
Q 447 1150 447 2328 
Q 447 3434 972 4092 
Q 1497 4750 2381 4750 
Q 2619 4750 2861 4703 
Q 3103 4656 3366 4563 
z
" transform="scale(0.015625)"/>
       </defs>
       <use xlink:href="#DejaVuSans-36"/>
       <use xlink:href="#DejaVuSans-2e" x="63.623047"/>
       <use xlink:href="#DejaVuSans-30" x="95.410156"/>
      </g>
     </g>
    </g>
    <g id="text_6">
     <!-- Environment steps (×10⁶) -->
     <g transform="translate(128.6125 237.746875) scale(0.16 -0.16)">
      <defs>
       <path id="DejaVuSans-45" d="M 628 4666 
L 3578 4666 
L 3578 4134 
L 1259 4134 
L 1259 2753 
L 3481 2753 
L 3481 2222 
L 1259 2222 
L 1259 531 
L 3634 531 
L 3634 0 
L 628 0 
L 628 4666 
z
" transform="scale(0.015625)"/>
       <path id="DejaVuSans-6e" d="M 3513 2113 
L 3513 0 
L 2938 0 
L 2938 2094 
Q 2938 2591 2744 2837 
Q 2550 3084 2163 3084 
Q 1697 3084 1428 2787 
Q 1159 2491 1159 1978 
L 1159 0 
L 581 0 
L 581 3500 
L 1159 3500 
L 1159 2956 
Q 1366 3272 1645 3428 
Q 1925 3584 2291 3584 
Q 2894 3584 3203 3211 
Q 3513 2838 3513 2113 
z
" transform="scale(0.015625)"/>
       <path id="DejaVuSans-76" d="M 191 3500 
L 800 3500 
L 1894 563 
L 2988 3500 
L 3597 3500 
L 2284 0 
L 1503 0 
L 191 3500 
z
" transform="scale(0.015625)"/>
       <path id="DejaVuSans-69" d="M 603 3500 
L 1178 3500 
L 1178 0 
L 603 0 
L 603 3500 
z
M 603 4863 
L 1178 4863 
L 1178 4134 
L 603 4134 
L 603 4863 
z
" transform="scale(0.015625)"/>
       <path id="DejaVuSans-72" d="M 2631 2963 
Q 2534 3019 2420 3045 
Q 2306 3072 2169 3072 
Q 1681 3072 1420 2755 
Q 1159 2438 1159 1844 
L 1159 0 
L 581 0 
L 581 3500 
L 1159 3500 
L 1159 2956 
Q 1341 3275 1631 3429 
Q 1922 3584 2338 3584 
Q 2397 3584 2469 3576 
Q 2541 3569 2628 3553 
L 2631 2963 
z
" transform="scale(0.015625)"/>
       <path id="DejaVuSans-6f" d="M 1959 3097 
Q 1497 3097 1228 2736 
Q 959 2375 959 1747 
Q 959 1119 1226 758 
Q 1494 397 1959 397 
Q 2419 397 2687 759 
Q 2956 1122 2956 1747 
Q 2956 2369 2687 2733 
Q 2419 3097 1959 3097 
z
M 1959 3584 
Q 2709 3584 3137 3096 
Q 3566 2609 3566 1747 
Q 3566 888 3137 398 
Q 2709 -91 1959 -91 
Q 1206 -91 779 398 
Q 353 888 353 1747 
Q 353 2609 779 3096 
Q 1206 3584 1959 3584 
z
" transform="scale(0.015625)"/>
       <path id="DejaVuSans-6d" d="M 3328 2828 
Q 3544 3216 3844 3400 
Q 4144 3584 4550 3584 
Q 5097 3584 5394 3201 
Q 5691 2819 5691 2113 
L 5691 0 
L 5113 0 
L 5113 2094 
Q 5113 2597 4934 2840 
Q 4756 3084 4391 3084 
Q 3944 3084 3684 2787 
Q 3425 2491 3425 1978 
L 3425 0 
L 2847 0 
L 2847 2094 
Q 2847 2600 2669 2842 
Q 2491 3084 2119 3084 
Q 1678 3084 1418 2786 
Q 1159 2488 1159 1978 
L 1159 0 
L 581 0 
L 581 3500 
L 1159 3500 
L 1159 2956 
Q 1356 3278 1631 3431 
Q 1906 3584 2284 3584 
Q 2666 3584 2933 3390 
Q 3200 3197 3328 2828 
z
" transform="scale(0.015625)"/>
       <path id="DejaVuSans-65" d="M 3597 1894 
L 3597 1613 
L 953 1613 
Q 991 1019 1311 708 
Q 1631 397 2203 397 
Q 2534 397 2845 478 
Q 3156 559 3463 722 
L 3463 178 
Q 3153 47 2828 -22 
Q 2503 -91 2169 -91 
Q 1331 -91 842 396 
Q 353 884 353 1716 
Q 353 2575 817 3079 
Q 1281 3584 2069 3584 
Q 2775 3584 3186 3129 
Q 3597 2675 3597 1894 
z
M 3022 2063 
Q 3016 2534 2758 2815 
Q 2500 3097 2075 3097 
Q 1594 3097 1305 2825 
Q 1016 2553 972 2059 
L 3022 2063 
z
" transform="scale(0.015625)"/>
       <path id="DejaVuSans-74" d="M 1172 4494 
L 1172 3500 
L 2356 3500 
L 2356 3053 
L 1172 3053 
L 1172 1153 
Q 1172 725 1289 603 
Q 1406 481 1766 481 
L 2356 481 
L 2356 0 
L 1766 0 
Q 1100 0 847 248 
Q 594 497 594 1153 
L 594 3053 
L 172 3053 
L 172 3500 
L 594 3500 
L 594 4494 
L 1172 4494 
z
" transform="scale(0.015625)"/>
       <path id="DejaVuSans-20" transform="scale(0.015625)"/>
       <path id="DejaVuSans-73" d="M 2834 3397 
L 2834 2853 
Q 2591 2978 2328 3040 
Q 2066 3103 1784 3103 
Q 1356 3103 1142 2972 
Q 928 2841 928 2578 
Q 928 2378 1081 2264 
Q 1234 2150 1697 2047 
L 1894 2003 
Q 2506 1872 2764 1633 
Q 3022 1394 3022 966 
Q 3022 478 2636 193 
Q 2250 -91 1575 -91 
Q 1294 -91 989 -36 
Q 684 19 347 128 
L 347 722 
Q 666 556 975 473 
Q 1284 391 1588 391 
Q 1994 391 2212 530 
Q 2431 669 2431 922 
Q 2431 1156 2273 1281 
Q 2116 1406 1581 1522 
L 1381 1569 
Q 847 1681 609 1914 
Q 372 2147 372 2553 
Q 372 3047 722 3315 
Q 1072 3584 1716 3584 
Q 2034 3584 2315 3537 
Q 2597 3491 2834 3397 
z
" transform="scale(0.015625)"/>
       <path id="DejaVuSans-70" d="M 1159 525 
L 1159 -1331 
L 581 -1331 
L 581 3500 
L 1159 3500 
L 1159 2969 
Q 1341 3281 1617 3432 
Q 1894 3584 2278 3584 
Q 2916 3584 3314 3078 
Q 3713 2572 3713 1747 
Q 3713 922 3314 415 
Q 2916 -91 2278 -91 
Q 1894 -91 1617 61 
Q 1341 213 1159 525 
z
M 3116 1747 
Q 3116 2381 2855 2742 
Q 2594 3103 2138 3103 
Q 1681 3103 1420 2742 
Q 1159 2381 1159 1747 
Q 1159 1113 1420 752 
Q 1681 391 2138 391 
Q 2594 391 2855 752 
Q 3116 1113 3116 1747 
z
" transform="scale(0.015625)"/>
       <path id="DejaVuSans-28" d="M 1984 4856 
Q 1566 4138 1362 3434 
Q 1159 2731 1159 2009 
Q 1159 1288 1364 580 
Q 1569 -128 1984 -844 
L 1484 -844 
Q 1016 -109 783 600 
Q 550 1309 550 2009 
Q 550 2706 781 3412 
Q 1013 4119 1484 4856 
L 1984 4856 
z
" transform="scale(0.015625)"/>
       <path id="DejaVuSans-d7" d="M 4488 3438 
L 3059 2003 
L 4488 575 
L 4116 197 
L 2681 1631 
L 1247 197 
L 878 575 
L 2303 2003 
L 878 3438 
L 1247 3816 
L 2681 2381 
L 4116 3816 
L 4488 3438 
z
" transform="scale(0.015625)"/>
       <path id="DejaVuSans-2076" d="M 1359 3541 
Q 1084 3541 925 3378 
Q 766 3213 766 2928 
Q 766 2647 925 2484 
Q 1084 2319 1359 2319 
Q 1631 2319 1791 2484 
Q 1950 2647 1950 2928 
Q 1950 3213 1791 3378 
Q 1631 3541 1359 3541 
z
M 2166 4647 
L 2166 4325 
Q 2013 4388 1856 4419 
Q 1700 4453 1547 4453 
Q 1147 4453 934 4219 
Q 722 3981 691 3503 
Q 809 3656 988 3738 
Q 1169 3819 1381 3819 
Q 1834 3819 2097 3581 
Q 2359 3341 2359 2928 
Q 2359 2531 2084 2284 
Q 1813 2041 1359 2041 
Q 838 2041 563 2387 
Q 288 2734 288 3397 
Q 288 4016 625 4381 
Q 963 4750 1531 4750 
Q 1684 4750 1841 4725 
Q 1997 4697 2166 4647 
z
" transform="scale(0.015625)"/>
       <path id="DejaVuSans-29" d="M 513 4856 
L 1013 4856 
Q 1481 4119 1714 3412 
Q 1947 2706 1947 2009 
Q 1947 1309 1714 600 
Q 1481 -109 1013 -844 
L 513 -844 
Q 928 -128 1133 580 
Q 1338 1288 1338 2009 
Q 1338 2731 1133 3434 
Q 928 4138 513 4856 
z
" transform="scale(0.015625)"/>
      </defs>
      <use xlink:href="#DejaVuSans-45"/>
      <use xlink:href="#DejaVuSans-6e" x="63.183594"/>
      <use xlink:href="#DejaVuSans-76" x="126.5625"/>
      <use xlink:href="#DejaVuSans-69" x="185.742188"/>
      <use xlink:href="#DejaVuSans-72" x="213.525391"/>
      <use xlink:href="#DejaVuSans-6f" x="252.388672"/>
      <use xlink:href="#DejaVuSans-6e" x="313.570312"/>
      <use xlink:href="#DejaVuSans-6d" x="376.949219"/>
      <use xlink:href="#DejaVuSans-65" x="474.361328"/>
      <use xlink:href="#DejaVuSans-6e" x="535.884766"/>
      <use xlink:href="#DejaVuSans-74" x="599.263672"/>
      <use xlink:href="#DejaVuSans-20" x="638.472656"/>
      <use xlink:href="#DejaVuSans-73" x="670.259766"/>
      <use xlink:href="#DejaVuSans-74" x="722.359375"/>
      <use xlink:href="#DejaVuSans-65" x="761.568359"/>
      <use xlink:href="#DejaVuSans-70" x="823.091797"/>
      <use xlink:href="#DejaVuSans-73" x="886.568359"/>
      <use xlink:href="#DejaVuSans-20" x="938.667969"/>
      <use xlink:href="#DejaVuSans-28" x="970.455078"/>
      <use xlink:href="#DejaVuSans-d7" x="1009.46875"/>
      <use xlink:href="#DejaVuSans-31" x="1093.257812"/>
      <use xlink:href="#DejaVuSans-30" x="1156.880859"/>
      <use xlink:href="#DejaVuSans-2076" x="1220.503906"/>
      <use xlink:href="#DejaVuSans-29" x="1260.591797"/>
     </g>
    </g>
   </g>
   <g id="matplotlib.axis_2">
    <g id="ytick_1">
     <g id="line2d_11">
      <path d="M 55.1 200.924544 
L 410.0625 200.924544 
" clip-path="url(#p92bfaeddfe)" style="fill: none; stroke-dasharray: 2.96,1.28; stroke-dashoffset: 0; stroke: #d3d3d3; stroke-width: 0.8"/>
     </g>
     <g id="line2d_12">
      <defs>
       <path id="m0b17e5e7bb" d="M 0 0 
L -3.5 0 
" style="stroke: #000000; stroke-width: 0.8"/>
      </defs>
      <g>
       <use xlink:href="#m0b17e5e7bb" x="55.1" y="200.924544" style="stroke: #000000; stroke-width: 0.8"/>
      </g>
     </g>
     <g id="text_7">
      <!-- 0 -->
      <g transform="translate(39.1925 206.24345) scale(0.14 -0.14)">
       <use xlink:href="#DejaVuSans-30"/>
      </g>
     </g>
    </g>
    <g id="ytick_2">
     <g id="line2d_13">
      <path d="M 55.1 154.741991 
L 410.0625 154.741991 
" clip-path="url(#p92bfaeddfe)" style="fill: none; stroke-dasharray: 2.96,1.28; stroke-dashoffset: 0; stroke: #d3d3d3; stroke-width: 0.8"/>
     </g>
     <g id="line2d_14">
      <g>
       <use xlink:href="#m0b17e5e7bb" x="55.1" y="154.741991" style="stroke: #000000; stroke-width: 0.8"/>
      </g>
     </g>
     <g id="text_8">
      <!-- 4 -->
      <g transform="translate(39.1925 160.060897) scale(0.14 -0.14)">
       <use xlink:href="#DejaVuSans-34"/>
      </g>
     </g>
    </g>
    <g id="ytick_3">
     <g id="line2d_15">
      <path d="M 55.1 108.559438 
L 410.0625 108.559438 
" clip-path="url(#p92bfaeddfe)" style="fill: none; stroke-dasharray: 2.96,1.28; stroke-dashoffset: 0; stroke: #d3d3d3; stroke-width: 0.8"/>
     </g>
     <g id="line2d_16">
      <g>
       <use xlink:href="#m0b17e5e7bb" x="55.1" y="108.559438" style="stroke: #000000; stroke-width: 0.8"/>
      </g>
     </g>
     <g id="text_9">
      <!-- 8 -->
      <g transform="translate(39.1925 113.878344) scale(0.14 -0.14)">
       <defs>
        <path id="DejaVuSans-38" d="M 2034 2216 
Q 1584 2216 1326 1975 
Q 1069 1734 1069 1313 
Q 1069 891 1326 650 
Q 1584 409 2034 409 
Q 2484 409 2743 651 
Q 3003 894 3003 1313 
Q 3003 1734 2745 1975 
Q 2488 2216 2034 2216 
z
M 1403 2484 
Q 997 2584 770 2862 
Q 544 3141 544 3541 
Q 544 4100 942 4425 
Q 1341 4750 2034 4750 
Q 2731 4750 3128 4425 
Q 3525 4100 3525 3541 
Q 3525 3141 3298 2862 
Q 3072 2584 2669 2484 
Q 3125 2378 3379 2068 
Q 3634 1759 3634 1313 
Q 3634 634 3220 271 
Q 2806 -91 2034 -91 
Q 1263 -91 848 271 
Q 434 634 434 1313 
Q 434 1759 690 2068 
Q 947 2378 1403 2484 
z
M 1172 3481 
Q 1172 3119 1398 2916 
Q 1625 2713 2034 2713 
Q 2441 2713 2670 2916 
Q 2900 3119 2900 3481 
Q 2900 3844 2670 4047 
Q 2441 4250 2034 4250 
Q 1625 4250 1398 4047 
Q 1172 3844 1172 3481 
z
" transform="scale(0.015625)"/>
       </defs>
       <use xlink:href="#DejaVuSans-38"/>
      </g>
     </g>
    </g>
    <g id="ytick_4">
     <g id="line2d_17">
      <path d="M 55.1 62.376885 
L 410.0625 62.376885 
" clip-path="url(#p92bfaeddfe)" style="fill: none; stroke-dasharray: 2.96,1.28; stroke-dashoffset: 0; stroke: #d3d3d3; stroke-width: 0.8"/>
     </g>
     <g id="line2d_18">
      <g>
       <use xlink:href="#m0b17e5e7bb" x="55.1" y="62.376885" style="stroke: #000000; stroke-width: 0.8"/>
      </g>
     </g>
     <g id="text_10">
      <!-- 12 -->
      <g transform="translate(30.285 67.695792) scale(0.14 -0.14)">
       <defs>
        <path id="DejaVuSans-32" d="M 1228 531 
L 3431 531 
L 3431 0 
L 469 0 
L 469 531 
Q 828 903 1448 1529 
Q 2069 2156 2228 2338 
Q 2531 2678 2651 2914 
Q 2772 3150 2772 3378 
Q 2772 3750 2511 3984 
Q 2250 4219 1831 4219 
Q 1534 4219 1204 4116 
Q 875 4013 500 3803 
L 500 4441 
Q 881 4594 1212 4672 
Q 1544 4750 1819 4750 
Q 2544 4750 2975 4387 
Q 3406 4025 3406 3419 
Q 3406 3131 3298 2873 
Q 3191 2616 2906 2266 
Q 2828 2175 2409 1742 
Q 1991 1309 1228 531 
z
" transform="scale(0.015625)"/>
       </defs>
       <use xlink:href="#DejaVuSans-31"/>
       <use xlink:href="#DejaVuSans-32" x="63.623047"/>
      </g>
     </g>
    </g>
    <g id="ytick_5">
     <g id="line2d_19">
      <path d="M 55.1 16.194333 
L 410.0625 16.194333 
" clip-path="url(#p92bfaeddfe)" style="fill: none; stroke-dasharray: 2.96,1.28; stroke-dashoffset: 0; stroke: #d3d3d3; stroke-width: 0.8"/>
     </g>
     <g id="line2d_20">
      <g>
       <use xlink:href="#m0b17e5e7bb" x="55.1" y="16.194333" style="stroke: #000000; stroke-width: 0.8"/>
      </g>
     </g>
     <g id="text_11">
      <!-- 16 -->
      <g transform="translate(30.285 21.513239) scale(0.14 -0.14)">
       <use xlink:href="#DejaVuSans-31"/>
       <use xlink:href="#DejaVuSans-36" x="63.623047"/>
      </g>
     </g>
    </g>
    <g id="text_12">
     <!-- Score -->
     <g transform="translate(22.9575 130.963188) rotate(-90) scale(0.16 -0.16)">
      <defs>
       <path id="DejaVuSans-53" d="M 3425 4513 
L 3425 3897 
Q 3066 4069 2747 4153 
Q 2428 4238 2131 4238 
Q 1616 4238 1336 4038 
Q 1056 3838 1056 3469 
Q 1056 3159 1242 3001 
Q 1428 2844 1947 2747 
L 2328 2669 
Q 3034 2534 3370 2195 
Q 3706 1856 3706 1288 
Q 3706 609 3251 259 
Q 2797 -91 1919 -91 
Q 1588 -91 1214 -16 
Q 841 59 441 206 
L 441 856 
Q 825 641 1194 531 
Q 1563 422 1919 422 
Q 2459 422 2753 634 
Q 3047 847 3047 1241 
Q 3047 1584 2836 1778 
Q 2625 1972 2144 2069 
L 1759 2144 
Q 1053 2284 737 2584 
Q 422 2884 422 3419 
Q 422 4038 858 4394 
Q 1294 4750 2059 4750 
Q 2388 4750 2728 4690 
Q 3069 4631 3425 4513 
z
" transform="scale(0.015625)"/>
       <path id="DejaVuSans-63" d="M 3122 3366 
L 3122 2828 
Q 2878 2963 2633 3030 
Q 2388 3097 2138 3097 
Q 1578 3097 1268 2742 
Q 959 2388 959 1747 
Q 959 1106 1268 751 
Q 1578 397 2138 397 
Q 2388 397 2633 464 
Q 2878 531 3122 666 
L 3122 134 
Q 2881 22 2623 -34 
Q 2366 -91 2075 -91 
Q 1284 -91 818 406 
Q 353 903 353 1747 
Q 353 2603 823 3093 
Q 1294 3584 2113 3584 
Q 2378 3584 2631 3529 
Q 2884 3475 3122 3366 
z
" transform="scale(0.015625)"/>
      </defs>
      <use xlink:href="#DejaVuSans-53"/>
      <use xlink:href="#DejaVuSans-63" x="63.476562"/>
      <use xlink:href="#DejaVuSans-6f" x="118.457031"/>
      <use xlink:href="#DejaVuSans-72" x="179.638672"/>
      <use xlink:href="#DejaVuSans-65" x="218.501953"/>
     </g>
    </g>
   </g>
   <g id="line2d_21">
    <path d="M 56.241311 188.614334 
L 58.492372 169.7336 
L 61.012808 159.606386 
L 63.389984 153.009921 
L 66.023076 149.098977 
L 68.457408 144.712145 
L 70.967012 143.037353 
L 73.69509 136.852436 
L 76.608179 133.802943 
L 79.315762 125.921742 
L 82.064975 123.905012 
L 85.070291 119.371557 
L 87.898975 116.689285 
L 90.79389 112.68652 
L 93.98547 107.813969 
L 97.47522 106.155037 
L 100.947462 99.489534 
L 103.896128 99.57022 
L 107.208534 100.369544 
L 110.208134 98.949781 
L 113.094775 96.969488 
L 116.466617 94.21692 
L 119.424306 93.418353 
L 122.399093 92.577295 
L 125.294433 92.758426 
L 128.492968 88.91872 
L 131.605236 89.221414 
L 134.397095 86.959053 
L 137.521265 84.63084 
L 140.708769 83.257826 
L 143.989809 81.763138 
L 147.071929 78.706295 
L 150.255098 80.370471 
L 153.264004 77.695088 
L 156.171006 77.574848 
L 159.481004 76.188048 
L 162.690063 75.711616 
L 165.886732 73.111925 
L 169.097544 72.350836 
L 172.376849 67.057572 
L 175.806795 66.600776 
L 179.166951 62.226656 
L 182.621401 59.546155 
L 186.377938 57.35691 
L 189.897472 57.964446 
L 193.489494 55.459283 
L 197.068609 53.056561 
L 200.482417 50.847734 
L 204.421129 53.059314 
L 208.238938 49.372989 
L 211.694253 47.753141 
L 215.639449 48.506558 
L 219.683439 44.891594 
L 223.544171 47.325074 
L 227.313279 42.216039 
L 231.156609 39.900749 
L 234.754007 42.319987 
L 238.56187 40.578511 
L 242.442923 39.592786 
L 246.593645 43.373044 
L 250.325571 43.495874 
L 254.067757 40.981637 
L 257.675021 42.339867 
L 261.159745 43.31196 
L 264.717173 38.020187 
L 268.287872 34.872661 
L 272.231168 36.210067 
L 276.459337 35.342044 
L 280.6688 38.33378 
L 284.555948 40.109876 
L 288.389999 33.687921 
L 292.155242 38.445904 
L 296.049883 34.575363 
L 300.097825 36.61552 
L 303.906743 35.890522 
L 307.457531 35.322699 
L 311.114299 37.418425 
L 314.766904 35.677999 
L 318.939065 33.590013 
L 323.346982 36.506448 
L 327.478376 34.512647 
L 331.338691 33.51954 
L 335.340821 33.466269 
L 339.334517 36.99144 
L 343.127752 36.362262 
L 346.93543 32.667397 
L 350.888506 33.602371 
L 354.916303 31.594519 
L 358.879109 33.501946 
L 362.900053 32.293132 
L 367.132728 31.726218 
L 371.376032 31.86211 
L 375.365929 31.653945 
L 379.715517 29.265468 
L 383.91989 33.981182 
L 388.390683 29.426308 
L 393.294723 30.530801 
L 397.490382 30.482292 
L 401.61119 28.123448 
L 405.723589 25.096683 
" clip-path="url(#p92bfaeddfe)" style="fill: none; stroke: #ff7f0e; stroke-width: 2; stroke-linecap: square"/>
   </g>
   <g id="line2d_22">
    <path d="M 56.3074 184.269027 
L 58.935897 166.182886 
L 61.773306 156.177578 
L 64.788438 148.661291 
L 67.750574 144.803633 
L 70.821908 141.461375 
L 73.732727 138.442732 
L 76.488063 133.211926 
L 79.270318 130.374852 
L 82.314332 127.466052 
L 85.344357 126.171149 
L 88.345203 120.523041 
L 91.378185 121.421115 
L 94.488426 118.433883 
L 97.675824 112.688758 
L 101.005362 106.611149 
L 104.088373 106.20924 
L 107.542686 103.483357 
L 110.903525 98.15175 
L 114.287852 95.143249 
L 117.599885 98.934438 
L 121.00229 95.530856 
L 124.558227 94.402081 
L 127.895002 92.700922 
L 131.210469 91.863796 
L 134.578557 91.6212 
L 138.016113 91.513785 
L 141.673652 93.000391 
L 145.250061 90.061307 
L 148.830648 89.767752 
L 152.249209 93.902047 
L 155.986898 90.651625 
L 159.21017 88.996362 
L 162.335702 87.925011 
L 165.722062 92.797548 
L 169.191568 88.818425 
L 172.707294 88.248578 
L 176.144781 88.823644 
L 179.727918 89.826486 
L 183.474504 85.687262 
L 187.059292 88.092141 
L 190.842886 90.776574 
L 194.519737 86.957853 
L 198.228769 86.678665 
L 201.795295 83.868882 
L 205.480242 85.716376 
L 208.867318 82.945561 
L 212.30677 87.043308 
L 216.005167 84.38535 
L 219.595863 84.468498 
L 223.495037 84.539998 
L 227.179628 81.132674 
L 230.812808 83.333206 
L 234.59697 81.224145 
L 238.131338 82.755274 
L 241.722839 84.034918 
L 245.474226 81.134116 
L 249.414603 83.402174 
L 253.106347 84.054202 
L 256.714864 86.400223 
L 260.070968 81.091933 
L 263.587033 83.293988 
L 267.280093 81.786061 
L 270.826658 83.191977 
L 274.192374 81.22585 
L 277.962786 81.021054 
L 281.904811 83.202619 
L 285.386418 79.567786 
L 288.993305 80.557396 
L 292.935558 79.151164 
L 296.527684 80.178561 
L 300.059748 82.526529 
L 303.940889 80.42618 
L 307.652431 80.390208 
L 311.236505 80.343306 
L 315.091735 81.526255 
L 319.111784 82.546842 
L 322.889665 80.302045 
L 326.639051 82.668037 
L 330.36029 80.747812 
L 334.067307 81.999922 
L 337.751214 80.338156 
L 341.554585 84.653689 
L 345.380584 78.651519 
L 349.260905 83.345872 
L 352.901861 78.972033 
L 356.576708 84.298911 
L 360.358085 82.777267 
L 363.917037 83.895591 
L 367.644173 81.278976 
L 371.279402 80.639589 
L 374.895741 79.543431 
L 378.903998 79.665872 
L 382.979435 82.840091 
L 386.979649 83.745474 
L 391.039225 77.646332 
L 395.118998 82.376326 
L 398.996152 81.575689 
L 402.883869 79.213674 
L 406.777879 74.791685 
" clip-path="url(#p92bfaeddfe)" style="fill: none; stroke: #17becf; stroke-width: 2; stroke-linecap: square"/>
   </g>
   <g id="line2d_23">
    <path d="M 56.347188 186.344095 
L 59.037321 169.849355 
L 61.819931 161.014102 
L 64.424156 156.178852 
L 67.010065 151.397734 
L 70.081048 147.83381 
L 73.19221 141.736747 
L 76.049796 134.858789 
L 78.942377 133.530095 
L 81.982434 130.02637 
L 84.932825 126.256082 
L 87.747508 125.775287 
L 90.871669 123.43977 
L 94.122743 117.176868 
L 97.261341 114.6694 
L 100.565616 109.526883 
L 104.038302 106.481289 
L 107.297252 106.721929 
L 110.75266 105.640844 
L 114.205128 105.267535 
L 117.16677 105.768356 
L 120.309636 104.666751 
L 123.241241 105.254902 
L 126.610128 101.614671 
L 130.266207 99.288423 
L 133.711638 100.743937 
L 137.013705 102.265699 
L 140.612547 99.639508 
L 143.949248 101.184689 
L 147.457212 96.945794 
L 150.902848 98.52843 
L 154.495715 99.078432 
L 157.844855 94.965758 
L 161.279467 97.241493 
L 165.200283 90.76221 
L 168.720978 92.286736 
L 172.040499 93.869555 
L 175.468072 95.688418 
L 178.966199 92.102628 
L 182.535067 92.02044 
L 186.216806 91.458511 
L 189.884544 92.614605 
L 193.301018 93.561931 
L 196.658879 90.303109 
L 200.374908 87.285855 
L 203.820699 91.277011 
L 207.64656 92.46052 
L 211.278879 93.775719 
L 214.951133 92.910021 
L 218.83563 91.244644 
L 222.810181 88.709125 
L 226.46828 88.936532 
L 230.218149 88.096716 
L 234.010016 84.770416 
L 237.479165 85.77771 
L 241.137151 81.668409 
L 244.645528 83.009558 
L 248.137231 81.324009 
L 251.933093 86.277439 
L 255.707927 83.989218 
L 259.977383 82.627304 
L 263.589941 82.61271 
L 267.460175 79.922954 
L 271.051731 83.389688 
L 274.679528 82.806006 
L 278.505371 83.456344 
L 282.382698 83.618768 
L 285.85883 83.7769 
L 289.35176 86.286328 
L 292.966181 82.118317 
L 296.69932 80.468586 
L 300.623821 83.76814 
L 304.344011 78.861819 
L 307.9875 84.327339 
L 311.864497 84.459794 
L 316.03671 84.227156 
L 319.917287 87.0324 
L 323.543123 85.940975 
L 327.416596 83.938365 
L 331.22189 79.451877 
L 334.928684 86.774242 
L 338.620043 85.987846 
L 342.303471 83.56307 
L 345.940905 85.318731 
L 349.607227 87.779457 
L 353.204525 88.186246 
L 357.150104 87.975688 
L 361.330436 84.385718 
L 365.272877 85.768036 
L 369.343489 87.556108 
L 373.12987 84.864988 
L 376.929734 86.57591 
L 380.657717 85.915194 
L 384.679923 84.27912 
L 388.674185 80.0335 
L 392.278033 84.137044 
L 395.856246 81.30579 
L 399.732935 81.52899 
L 403.486703 84.177539 
L 407.131628 85.13976 
" clip-path="url(#p92bfaeddfe)" style="fill: none; stroke: #e377c2; stroke-width: 2; stroke-linecap: square"/>
   </g>
   <g id="line2d_24">
    <path d="M 56.198506 185.900851 
L 58.284943 174.740183 
L 60.686471 162.59236 
L 63.256286 153.497945 
L 65.730223 148.536726 
L 68.178624 146.78101 
L 70.472547 144.777114 
L 72.889094 141.752645 
L 75.411277 139.492473 
L 77.991029 136.938724 
L 80.597147 135.419933 
L 83.015986 134.858442 
L 85.559196 132.665695 
L 88.246986 129.029212 
L 90.885486 126.389289 
L 93.695091 123.98494 
L 96.655978 120.246113 
L 99.55475 114.041046 
L 102.431884 104.644591 
L 105.432355 106.600613 
L 108.429857 101.447658 
L 111.418915 97.067674 
L 114.665601 92.236885 
L 117.846163 90.153659 
L 121.158029 88.037408 
L 124.697238 87.632493 
L 128.301851 84.109943 
L 132.020404 79.879119 
L 135.633152 80.167768 
L 139.230877 78.333614 
L 142.928101 81.038905 
L 146.833373 77.879143 
L 150.623429 75.105843 
L 154.270517 76.122708 
L 157.707861 71.915617 
L 161.116521 71.227738 
L 164.537917 69.816991 
L 168.172745 69.70768 
L 171.952068 68.85695 
L 175.528811 66.022309 
L 178.847412 64.430921 
L 182.527648 62.606421 
L 186.146797 60.952602 
L 189.400198 59.963714 
L 192.94781 61.616753 
L 196.951672 57.726845 
L 200.560249 58.603988 
L 204.403885 55.149754 
L 208.251287 54.468331 
L 212.228416 51.141473 
L 215.966508 52.836504 
L 220.203201 51.233559 
L 224.298456 52.06442 
L 228.092343 49.71044 
L 231.987741 47.282458 
L 235.795202 47.406744 
L 239.383688 44.327133 
L 242.986208 49.211738 
L 246.631351 40.865389 
L 250.337145 41.522675 
L 254.007477 44.039856 
L 257.697953 42.279595 
L 261.578115 40.512619 
L 265.413363 40.819591 
L 269.329796 39.496407 
L 273.264289 41.926288 
L 277.059112 41.172141 
L 280.858801 40.67787 
L 284.259604 40.681416 
L 287.959486 38.939141 
L 291.704004 40.799182 
L 295.580164 41.775728 
L 299.34369 36.48542 
L 303.124754 37.670739 
L 306.961567 36.378018 
L 310.660217 37.233878 
L 314.668393 36.486492 
L 318.382296 34.384118 
L 322.315884 38.589699 
L 326.548181 36.070359 
L 330.418747 38.524645 
L 334.146699 35.061246 
L 338.16818 35.212994 
L 342.303797 36.241174 
L 346.129259 36.036645 
L 350.264435 33.232956 
L 354.219927 35.28579 
L 358.327906 34.876324 
L 362.281637 34.791695 
L 366.321691 34.389755 
L 370.591743 34.800454 
L 375.212313 32.369309 
L 379.552735 32.814755 
L 383.448775 30.480595 
L 387.42298 32.515311 
L 391.470871 33.826618 
L 395.540969 34.994487 
L 399.558547 30.559518 
L 403.632527 31.546589 
L 407.639281 33.295357 
" clip-path="url(#p92bfaeddfe)" style="fill: none; stroke-dasharray: 7.4,3.2; stroke-dashoffset: 0; stroke: #7f7f7f; stroke-width: 2"/>
   </g>
   <g id="patch_3">
    <path d="M 55.1 201.04 
L 55.1 16.078876 
" style="fill: none; stroke: #000000; stroke-width: 0.8; stroke-linejoin: miter; stroke-linecap: square"/>
   </g>
   <g id="patch_4">
    <path d="M 410.0625 201.04 
L 410.0625 16.078876 
" style="fill: none; stroke: #000000; stroke-width: 0.8; stroke-linejoin: miter; stroke-linecap: square"/>
   </g>
   <g id="patch_5">
    <path d="M 55.1 201.04 
L 410.0625 201.04 
" style="fill: none; stroke: #000000; stroke-width: 0.8; stroke-linejoin: miter; stroke-linecap: square"/>
   </g>
   <g id="patch_6">
    <path d="M 55.1 16.078876 
L 410.0625 16.078876 
" style="fill: none; stroke: #000000; stroke-width: 0.8; stroke-linejoin: miter; stroke-linecap: square"/>
   </g>
  </g>
 </g>
 <defs>
  <clipPath id="p92bfaeddfe">
   <rect x="55.1" y="16.078876" width="354.9625" height="184.961124"/>
  </clipPath>
 </defs>
</svg>
