<?xml version="1.0" encoding="utf-8" standalone="no"?>
<!DOCTYPE svg PUBLIC "-//W3C//DTD SVG 1.1//EN"
  "http://www.w3.org/Graphics/SVG/1.1/DTD/svg11.dtd">
<svg xmlns:xlink="http://www.w3.org/1999/xlink" width="432pt" height="252pt" viewBox="0 0 432 252" xmlns="http://www.w3.org/2000/svg" version="1.1">
 <metadata>
  <rdf:RDF xmlns:dc="http://purl.org/dc/elements/1.1/" xmlns:cc="http://creativecommons.org/ns#" xmlns:rdf="http://www.w3.org/1999/02/22-rdf-syntax-ns#">
   <cc:Work>
    <dc:type rdf:resource="http://purl.org/dc/dcmitype/StillImage"/>
    <dc:date>2023-09-25T22:35:35.800861</dc:date>
    <dc:format>image/svg+xml</dc:format>
    <dc:creator>
     <cc:Agent>
      <dc:title>Matplotlib v3.7.2, https://matplotlib.org/</dc:title>
     </cc:Agent>
    </dc:creator>
   </cc:Work>
  </rdf:RDF>
 </metadata>
 <defs>
  <style type="text/css">*{stroke-linejoin: round; stroke-linecap: butt}</style>
 </defs>
 <g id="figure_1">
  <g id="patch_1">
   <path d="M 0 252 
L 432 252 
L 432 0 
L 0 0 
z
" style="fill: #ffffff"/>
  </g>
  <g id="axes_1">
   <g id="patch_2">
    <path d="M 46.19 201.04 
L 410.0625 201.04 
L 410.0625 15.557483 
L 46.19 15.557483 
z
" style="fill: #ffffff"/>
   </g>
   <g id="PolyCollection_1">
    <defs>
     <path id="mc2a05c9490" d="M 47.933813 -58.934135 
L 47.933813 -51.574181 
L 51.511635 -51.912542 
L 55.089458 -51.787433 
L 58.668051 -53.141065 
L 62.245874 -53.385257 
L 65.823697 -54.180633 
L 69.40229 -53.872059 
L 72.980113 -53.873314 
L 76.557935 -56.622402 
L 80.136529 -59.358807 
L 83.714352 -60.401916 
L 87.292174 -58.850097 
L 90.870768 -56.800064 
L 94.44859 -57.231085 
L 98.026413 -57.501056 
L 101.605006 -56.07561 
L 105.182829 -56.711883 
L 108.760652 -55.57463 
L 112.339245 -61.407899 
L 115.917068 -59.041616 
L 119.49489 -59.095893 
L 123.073484 -56.836237 
L 126.651307 -57.506266 
L 130.229129 -58.901188 
L 133.807723 -59.731976 
L 137.385545 -56.856246 
L 140.963368 -61.738657 
L 144.541961 -63.211113 
L 148.119784 -63.096445 
L 151.697607 -58.507268 
L 155.2762 -63.862676 
L 158.854023 -60.204734 
L 162.431845 -62.072138 
L 166.010439 -61.960776 
L 169.588262 -62.629066 
L 173.166084 -65.207455 
L 176.744678 -58.386495 
L 180.3225 -56.648645 
L 183.900323 -61.673684 
L 187.478916 -61.801891 
L 191.056739 -58.025474 
L 194.634562 -59.067338 
L 198.213155 -64.116899 
L 201.790978 -66.048735 
L 205.3688 -59.948004 
L 208.947394 -58.034495 
L 212.525217 -63.47517 
L 216.103039 -63.108205 
L 219.681633 -66.009629 
L 223.259455 -73.47671 
L 226.837278 -70.680883 
L 230.415871 -68.488953 
L 233.993694 -64.837505 
L 237.571517 -60.671868 
L 241.15011 -70.730875 
L 244.727933 -71.133133 
L 248.305755 -69.130524 
L 251.884349 -69.39804 
L 255.462172 -76.337631 
L 259.039994 -71.425239 
L 262.618588 -73.708062 
L 266.19641 -73.048165 
L 269.774233 -72.854478 
L 273.352826 -71.239291 
L 276.930649 -71.206045 
L 280.508472 -70.847675 
L 284.087065 -73.522581 
L 287.664888 -72.150956 
L 291.24271 -70.804916 
L 294.821304 -74.761805 
L 298.399127 -75.079194 
L 301.976949 -72.731671 
L 305.555543 -76.312136 
L 309.133365 -82.103543 
L 312.711188 -75.921931 
L 316.289781 -75.42564 
L 319.867604 -75.203417 
L 323.445427 -76.889286 
L 327.02402 -71.948664 
L 330.601843 -72.344226 
L 334.179665 -75.643792 
L 337.758259 -78.412252 
L 341.336082 -79.255441 
L 344.913904 -74.420964 
L 348.492498 -80.45779 
L 352.07032 -78.002197 
L 355.648143 -76.31507 
L 359.226736 -74.596417 
L 362.804559 -78.574186 
L 366.382382 -82.12513 
L 369.960975 -84.893852 
L 373.538798 -80.014767 
L 377.11662 -76.351793 
L 380.695214 -82.335392 
L 384.273037 -79.254487 
L 387.850859 -79.430888 
L 391.429453 -75.745134 
L 395.007275 -74.536587 
L 398.585098 -78.575561 
L 402.163691 -74.538377 
L 402.163691 -100.51232 
L 402.163691 -100.51232 
L 398.585098 -99.494436 
L 395.007275 -99.027253 
L 391.429453 -102.445174 
L 387.850859 -105.058371 
L 384.273037 -99.48205 
L 380.695214 -101.150965 
L 377.11662 -96.25373 
L 373.538798 -101.996465 
L 369.960975 -101.870625 
L 366.382382 -96.767117 
L 362.804559 -99.436198 
L 359.226736 -97.005971 
L 355.648143 -95.664322 
L 352.07032 -97.837592 
L 348.492498 -98.31522 
L 344.913904 -104.16094 
L 341.336082 -103.190146 
L 337.758259 -97.376093 
L 334.179665 -97.051476 
L 330.601843 -93.802773 
L 327.02402 -101.787566 
L 323.445427 -94.30202 
L 319.867604 -97.738193 
L 316.289781 -102.030408 
L 312.711188 -95.658357 
L 309.133365 -100.114272 
L 305.555543 -93.769284 
L 301.976949 -99.326394 
L 298.399127 -97.634108 
L 294.821304 -98.965905 
L 291.24271 -92.258723 
L 287.664888 -93.039264 
L 284.087065 -96.452619 
L 280.508472 -93.47018 
L 276.930649 -90.963488 
L 273.352826 -89.970673 
L 269.774233 -89.794113 
L 266.19641 -90.299563 
L 262.618588 -96.44696 
L 259.039994 -95.019943 
L 255.462172 -90.597296 
L 251.884349 -95.471848 
L 248.305755 -87.445094 
L 244.727933 -85.655871 
L 241.15011 -92.485174 
L 237.571517 -93.125015 
L 233.993694 -95.373956 
L 230.415871 -89.93677 
L 226.837278 -88.442457 
L 223.259455 -87.032854 
L 219.681633 -90.956011 
L 216.103039 -81.921976 
L 212.525217 -77.281005 
L 208.947394 -82.147775 
L 205.3688 -82.545433 
L 201.790978 -82.587307 
L 198.213155 -86.551153 
L 194.634562 -82.223622 
L 191.056739 -84.554561 
L 187.478916 -87.658292 
L 183.900323 -85.291462 
L 180.3225 -84.946972 
L 176.744678 -84.557144 
L 173.166084 -84.923257 
L 169.588262 -85.41639 
L 166.010439 -77.37976 
L 162.431845 -78.13089 
L 158.854023 -80.618476 
L 155.2762 -83.595768 
L 151.697607 -84.04603 
L 148.119784 -79.420954 
L 144.541961 -76.011214 
L 140.963368 -78.230495 
L 137.385545 -82.664793 
L 133.807723 -76.579456 
L 130.229129 -79.348035 
L 126.651307 -80.386488 
L 123.073484 -74.829739 
L 119.49489 -73.120037 
L 115.917068 -76.95558 
L 112.339245 -74.979569 
L 108.760652 -73.855512 
L 105.182829 -75.0493 
L 101.605006 -71.486452 
L 98.026413 -73.754909 
L 94.44859 -67.573838 
L 90.870768 -68.935573 
L 87.292174 -68.969066 
L 83.714352 -72.462729 
L 80.136529 -77.83434 
L 76.557935 -69.190111 
L 72.980113 -70.86772 
L 69.40229 -67.778075 
L 65.823697 -67.450006 
L 62.245874 -61.465086 
L 58.668051 -64.753243 
L 55.089458 -63.766682 
L 51.511635 -57.39146 
L 47.933813 -58.934135 
z
" style="stroke: #17becf; stroke-opacity: 0.1"/>
    </defs>
    <g clip-path="url(#pabbf9cb313)">
     <use xlink:href="#mc2a05c9490" x="0" y="252" style="fill: #17becf; fill-opacity: 0.1; stroke: #17becf; stroke-opacity: 0.1"/>
    </g>
   </g>
   <g id="PolyCollection_2">
    <defs>
     <path id="me07e97fd6c" d="M 47.933813 -64.377181 
L 47.933813 -51.574181 
L 51.511635 -53.373485 
L 55.089458 -54.50326 
L 58.668051 -53.085336 
L 62.245874 -53.511601 
L 65.823697 -53.246797 
L 69.40229 -57.726269 
L 72.980113 -58.656808 
L 76.557935 -56.265255 
L 80.136529 -53.535614 
L 83.714352 -56.989738 
L 87.292174 -54.421267 
L 90.870768 -52.594821 
L 94.44859 -56.312019 
L 98.026413 -53.399137 
L 101.605006 -53.997836 
L 105.182829 -53.820898 
L 108.760652 -54.931601 
L 112.339245 -56.881465 
L 115.917068 -58.127002 
L 119.49489 -57.982096 
L 123.073484 -54.217242 
L 126.651307 -53.123027 
L 130.229129 -52.712725 
L 133.807723 -52.363978 
L 137.385545 -52.023417 
L 140.963368 -53.762671 
L 144.541961 -53.281341 
L 148.119784 -53.999078 
L 151.697607 -52.762659 
L 155.2762 -52.703235 
L 158.854023 -53.459632 
L 162.431845 -54.145447 
L 166.010439 -56.685086 
L 169.588262 -53.880504 
L 173.166084 -55.20083 
L 176.744678 -53.980174 
L 180.3225 -54.564526 
L 183.900323 -59.729528 
L 187.478916 -55.056802 
L 191.056739 -52.045295 
L 194.634562 -52.805538 
L 198.213155 -52.479341 
L 201.790978 -56.488778 
L 205.3688 -55.703062 
L 208.947394 -53.054327 
L 212.525217 -54.601859 
L 216.103039 -55.350134 
L 219.681633 -55.62286 
L 223.259455 -55.014864 
L 226.837278 -53.760712 
L 230.415871 -54.53951 
L 233.993694 -53.933593 
L 237.571517 -53.950234 
L 241.15011 -53.103162 
L 244.727933 -56.283883 
L 248.305755 -53.64646 
L 251.884349 -53.542846 
L 255.462172 -54.218148 
L 259.039994 -52.835505 
L 262.618588 -54.596858 
L 266.19641 -53.484234 
L 269.774233 -52.908042 
L 273.352826 -54.19334 
L 276.930649 -53.095065 
L 280.508472 -51.917802 
L 284.087065 -53.352891 
L 287.664888 -52.487267 
L 291.24271 -54.045155 
L 294.821304 -54.742862 
L 298.399127 -52.988264 
L 301.976949 -51.765472 
L 305.555543 -51.622069 
L 309.133365 -52.065883 
L 312.711188 -52.499646 
L 316.289781 -52.128291 
L 319.867604 -52.11247 
L 323.445427 -51.896474 
L 327.02402 -52.015758 
L 330.601843 -51.867132 
L 334.179665 -53.764166 
L 337.758259 -53.103529 
L 341.336082 -53.314358 
L 344.913904 -54.765149 
L 348.492498 -53.212239 
L 352.07032 -54.288643 
L 355.648143 -53.114833 
L 359.226736 -53.321872 
L 362.804559 -53.019546 
L 366.382382 -51.854164 
L 369.960975 -53.201497 
L 373.538798 -53.515608 
L 377.11662 -54.234248 
L 380.695214 -53.168175 
L 384.273037 -53.985628 
L 387.850859 -53.308895 
L 391.429453 -53.083645 
L 395.007275 -53.817626 
L 398.585098 -53.033915 
L 402.163691 -52.960928 
L 402.163691 -64.503697 
L 402.163691 -64.503697 
L 398.585098 -67.298023 
L 395.007275 -71.075211 
L 391.429453 -78.993858 
L 387.850859 -80.927361 
L 384.273037 -67.920372 
L 380.695214 -71.777024 
L 377.11662 -84.188502 
L 373.538798 -73.437145 
L 369.960975 -68.876809 
L 366.382382 -73.230466 
L 362.804559 -75.791536 
L 359.226736 -74.937749 
L 355.648143 -77.490304 
L 352.07032 -71.824324 
L 348.492498 -72.801164 
L 344.913904 -77.802453 
L 341.336082 -69.833288 
L 337.758259 -71.895624 
L 334.179665 -80.649405 
L 330.601843 -79.597775 
L 327.02402 -62.874796 
L 323.445427 -71.838756 
L 319.867604 -64.965696 
L 316.289781 -68.70561 
L 312.711188 -72.965947 
L 309.133365 -76.492774 
L 305.555543 -75.945559 
L 301.976949 -78.678704 
L 298.399127 -69.477179 
L 294.821304 -81.651463 
L 291.24271 -80.894382 
L 287.664888 -82.437551 
L 284.087065 -78.452571 
L 280.508472 -78.382023 
L 276.930649 -72.929296 
L 273.352826 -73.23151 
L 269.774233 -81.929883 
L 266.19641 -76.432497 
L 262.618588 -76.050424 
L 259.039994 -67.18724 
L 255.462172 -69.905434 
L 251.884349 -64.892572 
L 248.305755 -67.131536 
L 244.727933 -69.473832 
L 241.15011 -73.168286 
L 237.571517 -78.809084 
L 233.993694 -76.081003 
L 230.415871 -64.983397 
L 226.837278 -77.290185 
L 223.259455 -79.376425 
L 219.681633 -66.091375 
L 216.103039 -79.360692 
L 212.525217 -76.998588 
L 208.947394 -75.544919 
L 205.3688 -71.43407 
L 201.790978 -71.173594 
L 198.213155 -75.699976 
L 194.634562 -74.838348 
L 191.056739 -71.316255 
L 187.478916 -78.037886 
L 183.900323 -80.621252 
L 180.3225 -74.613702 
L 176.744678 -72.329755 
L 173.166084 -71.025559 
L 169.588262 -72.687475 
L 166.010439 -71.315889 
L 162.431845 -69.475542 
L 158.854023 -69.872186 
L 155.2762 -73.272555 
L 151.697607 -74.575257 
L 148.119784 -72.550123 
L 144.541961 -74.816222 
L 140.963368 -74.970057 
L 137.385545 -80.821792 
L 133.807723 -77.59072 
L 130.229129 -74.090451 
L 126.651307 -73.133845 
L 123.073484 -75.463005 
L 119.49489 -70.087431 
L 115.917068 -71.380212 
L 112.339245 -72.700305 
L 108.760652 -71.853886 
L 105.182829 -75.599307 
L 101.605006 -71.64753 
L 98.026413 -69.815008 
L 94.44859 -69.253159 
L 90.870768 -68.69845 
L 87.292174 -67.485351 
L 83.714352 -76.587263 
L 80.136529 -70.781705 
L 76.557935 -72.918181 
L 72.980113 -68.098518 
L 69.40229 -69.332429 
L 65.823697 -65.865832 
L 62.245874 -62.063339 
L 58.668051 -63.196517 
L 55.089458 -62.810189 
L 51.511635 -65.088811 
L 47.933813 -64.377181 
z
" style="stroke: #7f7f7f; stroke-opacity: 0.1"/>
    </defs>
    <g clip-path="url(#pabbf9cb313)">
     <use xlink:href="#me07e97fd6c" x="0" y="252" style="fill: #7f7f7f; fill-opacity: 0.1; stroke: #7f7f7f; stroke-opacity: 0.1"/>
    </g>
   </g>
   <g id="matplotlib.axis_1">
    <g id="xtick_1">
     <g id="line2d_1">
      <path d="M 46.19 201.04 
L 46.19 15.557483 
" clip-path="url(#pabbf9cb313)" style="fill: none; stroke-dasharray: 2.96,1.28; stroke-dashoffset: 0; stroke: #d3d3d3; stroke-width: 0.8"/>
     </g>
     <g id="line2d_2">
      <defs>
       <path id="md723124c69" d="M 0 0 
L 0 3.5 
" style="stroke: #000000; stroke-width: 0.8"/>
      </defs>
      <g>
       <use xlink:href="#md723124c69" x="46.19" y="201.04" style="stroke: #000000; stroke-width: 0.8"/>
      </g>
     </g>
     <g id="text_1">
      <!-- 0.0 -->
      <g transform="translate(35.057813 218.677813) scale(0.14 -0.14)">
       <defs>
        <path id="DejaVuSans-30" d="M 2034 4250 
Q 1547 4250 1301 3770 
Q 1056 3291 1056 2328 
Q 1056 1369 1301 889 
Q 1547 409 2034 409 
Q 2525 409 2770 889 
Q 3016 1369 3016 2328 
Q 3016 3291 2770 3770 
Q 2525 4250 2034 4250 
z
M 2034 4750 
Q 2819 4750 3233 4129 
Q 3647 3509 3647 2328 
Q 3647 1150 3233 529 
Q 2819 -91 2034 -91 
Q 1250 -91 836 529 
Q 422 1150 422 2328 
Q 422 3509 836 4129 
Q 1250 4750 2034 4750 
z
" transform="scale(0.015625)"/>
        <path id="DejaVuSans-2e" d="M 684 794 
L 1344 794 
L 1344 0 
L 684 0 
L 684 794 
z
" transform="scale(0.015625)"/>
       </defs>
       <use xlink:href="#DejaVuSans-30"/>
       <use xlink:href="#DejaVuSans-2e" x="63.623047"/>
       <use xlink:href="#DejaVuSans-30" x="95.410156"/>
      </g>
     </g>
    </g>
    <g id="xtick_2">
     <g id="line2d_3">
      <path d="M 137.158125 201.04 
L 137.158125 15.557483 
" clip-path="url(#pabbf9cb313)" style="fill: none; stroke-dasharray: 2.96,1.28; stroke-dashoffset: 0; stroke: #d3d3d3; stroke-width: 0.8"/>
     </g>
     <g id="line2d_4">
      <g>
       <use xlink:href="#md723124c69" x="137.158125" y="201.04" style="stroke: #000000; stroke-width: 0.8"/>
      </g>
     </g>
     <g id="text_2">
      <!-- 0.3 -->
      <g transform="translate(126.025938 218.677813) scale(0.14 -0.14)">
       <defs>
        <path id="DejaVuSans-33" d="M 2597 2516 
Q 3050 2419 3304 2112 
Q 3559 1806 3559 1356 
Q 3559 666 3084 287 
Q 2609 -91 1734 -91 
Q 1441 -91 1130 -33 
Q 819 25 488 141 
L 488 750 
Q 750 597 1062 519 
Q 1375 441 1716 441 
Q 2309 441 2620 675 
Q 2931 909 2931 1356 
Q 2931 1769 2642 2001 
Q 2353 2234 1838 2234 
L 1294 2234 
L 1294 2753 
L 1863 2753 
Q 2328 2753 2575 2939 
Q 2822 3125 2822 3475 
Q 2822 3834 2567 4026 
Q 2313 4219 1838 4219 
Q 1578 4219 1281 4162 
Q 984 4106 628 3988 
L 628 4550 
Q 988 4650 1302 4700 
Q 1616 4750 1894 4750 
Q 2613 4750 3031 4423 
Q 3450 4097 3450 3541 
Q 3450 3153 3228 2886 
Q 3006 2619 2597 2516 
z
" transform="scale(0.015625)"/>
       </defs>
       <use xlink:href="#DejaVuSans-30"/>
       <use xlink:href="#DejaVuSans-2e" x="63.623047"/>
       <use xlink:href="#DejaVuSans-33" x="95.410156"/>
      </g>
     </g>
    </g>
    <g id="xtick_3">
     <g id="line2d_5">
      <path d="M 228.12625 201.04 
L 228.12625 15.557483 
" clip-path="url(#pabbf9cb313)" style="fill: none; stroke-dasharray: 2.96,1.28; stroke-dashoffset: 0; stroke: #d3d3d3; stroke-width: 0.8"/>
     </g>
     <g id="line2d_6">
      <g>
       <use xlink:href="#md723124c69" x="228.12625" y="201.04" style="stroke: #000000; stroke-width: 0.8"/>
      </g>
     </g>
     <g id="text_3">
      <!-- 0.6 -->
      <g transform="translate(216.994063 218.677813) scale(0.14 -0.14)">
       <defs>
        <path id="DejaVuSans-36" d="M 2113 2584 
Q 1688 2584 1439 2293 
Q 1191 2003 1191 1497 
Q 1191 994 1439 701 
Q 1688 409 2113 409 
Q 2538 409 2786 701 
Q 3034 994 3034 1497 
Q 3034 2003 2786 2293 
Q 2538 2584 2113 2584 
z
M 3366 4563 
L 3366 3988 
Q 3128 4100 2886 4159 
Q 2644 4219 2406 4219 
Q 1781 4219 1451 3797 
Q 1122 3375 1075 2522 
Q 1259 2794 1537 2939 
Q 1816 3084 2150 3084 
Q 2853 3084 3261 2657 
Q 3669 2231 3669 1497 
Q 3669 778 3244 343 
Q 2819 -91 2113 -91 
Q 1303 -91 875 529 
Q 447 1150 447 2328 
Q 447 3434 972 4092 
Q 1497 4750 2381 4750 
Q 2619 4750 2861 4703 
Q 3103 4656 3366 4563 
z
" transform="scale(0.015625)"/>
       </defs>
       <use xlink:href="#DejaVuSans-30"/>
       <use xlink:href="#DejaVuSans-2e" x="63.623047"/>
       <use xlink:href="#DejaVuSans-36" x="95.410156"/>
      </g>
     </g>
    </g>
    <g id="xtick_4">
     <g id="line2d_7">
      <path d="M 319.094375 201.04 
L 319.094375 15.557483 
" clip-path="url(#pabbf9cb313)" style="fill: none; stroke-dasharray: 2.96,1.28; stroke-dashoffset: 0; stroke: #d3d3d3; stroke-width: 0.8"/>
     </g>
     <g id="line2d_8">
      <g>
       <use xlink:href="#md723124c69" x="319.094375" y="201.04" style="stroke: #000000; stroke-width: 0.8"/>
      </g>
     </g>
     <g id="text_4">
      <!-- 0.9 -->
      <g transform="translate(307.962188 218.677813) scale(0.14 -0.14)">
       <defs>
        <path id="DejaVuSans-39" d="M 703 97 
L 703 672 
Q 941 559 1184 500 
Q 1428 441 1663 441 
Q 2288 441 2617 861 
Q 2947 1281 2994 2138 
Q 2813 1869 2534 1725 
Q 2256 1581 1919 1581 
Q 1219 1581 811 2004 
Q 403 2428 403 3163 
Q 403 3881 828 4315 
Q 1253 4750 1959 4750 
Q 2769 4750 3195 4129 
Q 3622 3509 3622 2328 
Q 3622 1225 3098 567 
Q 2575 -91 1691 -91 
Q 1453 -91 1209 -44 
Q 966 3 703 97 
z
M 1959 2075 
Q 2384 2075 2632 2365 
Q 2881 2656 2881 3163 
Q 2881 3666 2632 3958 
Q 2384 4250 1959 4250 
Q 1534 4250 1286 3958 
Q 1038 3666 1038 3163 
Q 1038 2656 1286 2365 
Q 1534 2075 1959 2075 
z
" transform="scale(0.015625)"/>
       </defs>
       <use xlink:href="#DejaVuSans-30"/>
       <use xlink:href="#DejaVuSans-2e" x="63.623047"/>
       <use xlink:href="#DejaVuSans-39" x="95.410156"/>
      </g>
     </g>
    </g>
    <g id="xtick_5">
     <g id="line2d_9">
      <path d="M 410.0625 201.04 
L 410.0625 15.557483 
" clip-path="url(#pabbf9cb313)" style="fill: none; stroke-dasharray: 2.96,1.28; stroke-dashoffset: 0; stroke: #d3d3d3; stroke-width: 0.8"/>
     </g>
     <g id="line2d_10">
      <g>
       <use xlink:href="#md723124c69" x="410.0625" y="201.04" style="stroke: #000000; stroke-width: 0.8"/>
      </g>
     </g>
     <g id="text_5">
      <!-- 1.2 -->
      <g transform="translate(398.930313 218.677813) scale(0.14 -0.14)">
       <defs>
        <path id="DejaVuSans-31" d="M 794 531 
L 1825 531 
L 1825 4091 
L 703 3866 
L 703 4441 
L 1819 4666 
L 2450 4666 
L 2450 531 
L 3481 531 
L 3481 0 
L 794 0 
L 794 531 
z
" transform="scale(0.015625)"/>
        <path id="DejaVuSans-32" d="M 1228 531 
L 3431 531 
L 3431 0 
L 469 0 
L 469 531 
Q 828 903 1448 1529 
Q 2069 2156 2228 2338 
Q 2531 2678 2651 2914 
Q 2772 3150 2772 3378 
Q 2772 3750 2511 3984 
Q 2250 4219 1831 4219 
Q 1534 4219 1204 4116 
Q 875 4013 500 3803 
L 500 4441 
Q 881 4594 1212 4672 
Q 1544 4750 1819 4750 
Q 2544 4750 2975 4387 
Q 3406 4025 3406 3419 
Q 3406 3131 3298 2873 
Q 3191 2616 2906 2266 
Q 2828 2175 2409 1742 
Q 1991 1309 1228 531 
z
" transform="scale(0.015625)"/>
       </defs>
       <use xlink:href="#DejaVuSans-31"/>
       <use xlink:href="#DejaVuSans-2e" x="63.623047"/>
       <use xlink:href="#DejaVuSans-32" x="95.410156"/>
      </g>
     </g>
    </g>
    <g id="text_6">
     <!-- Environment steps (×10⁶) -->
     <g transform="translate(124.1575 237.746875) scale(0.16 -0.16)">
      <defs>
       <path id="DejaVuSans-45" d="M 628 4666 
L 3578 4666 
L 3578 4134 
L 1259 4134 
L 1259 2753 
L 3481 2753 
L 3481 2222 
L 1259 2222 
L 1259 531 
L 3634 531 
L 3634 0 
L 628 0 
L 628 4666 
z
" transform="scale(0.015625)"/>
       <path id="DejaVuSans-6e" d="M 3513 2113 
L 3513 0 
L 2938 0 
L 2938 2094 
Q 2938 2591 2744 2837 
Q 2550 3084 2163 3084 
Q 1697 3084 1428 2787 
Q 1159 2491 1159 1978 
L 1159 0 
L 581 0 
L 581 3500 
L 1159 3500 
L 1159 2956 
Q 1366 3272 1645 3428 
Q 1925 3584 2291 3584 
Q 2894 3584 3203 3211 
Q 3513 2838 3513 2113 
z
" transform="scale(0.015625)"/>
       <path id="DejaVuSans-76" d="M 191 3500 
L 800 3500 
L 1894 563 
L 2988 3500 
L 3597 3500 
L 2284 0 
L 1503 0 
L 191 3500 
z
" transform="scale(0.015625)"/>
       <path id="DejaVuSans-69" d="M 603 3500 
L 1178 3500 
L 1178 0 
L 603 0 
L 603 3500 
z
M 603 4863 
L 1178 4863 
L 1178 4134 
L 603 4134 
L 603 4863 
z
" transform="scale(0.015625)"/>
       <path id="DejaVuSans-72" d="M 2631 2963 
Q 2534 3019 2420 3045 
Q 2306 3072 2169 3072 
Q 1681 3072 1420 2755 
Q 1159 2438 1159 1844 
L 1159 0 
L 581 0 
L 581 3500 
L 1159 3500 
L 1159 2956 
Q 1341 3275 1631 3429 
Q 1922 3584 2338 3584 
Q 2397 3584 2469 3576 
Q 2541 3569 2628 3553 
L 2631 2963 
z
" transform="scale(0.015625)"/>
       <path id="DejaVuSans-6f" d="M 1959 3097 
Q 1497 3097 1228 2736 
Q 959 2375 959 1747 
Q 959 1119 1226 758 
Q 1494 397 1959 397 
Q 2419 397 2687 759 
Q 2956 1122 2956 1747 
Q 2956 2369 2687 2733 
Q 2419 3097 1959 3097 
z
M 1959 3584 
Q 2709 3584 3137 3096 
Q 3566 2609 3566 1747 
Q 3566 888 3137 398 
Q 2709 -91 1959 -91 
Q 1206 -91 779 398 
Q 353 888 353 1747 
Q 353 2609 779 3096 
Q 1206 3584 1959 3584 
z
" transform="scale(0.015625)"/>
       <path id="DejaVuSans-6d" d="M 3328 2828 
Q 3544 3216 3844 3400 
Q 4144 3584 4550 3584 
Q 5097 3584 5394 3201 
Q 5691 2819 5691 2113 
L 5691 0 
L 5113 0 
L 5113 2094 
Q 5113 2597 4934 2840 
Q 4756 3084 4391 3084 
Q 3944 3084 3684 2787 
Q 3425 2491 3425 1978 
L 3425 0 
L 2847 0 
L 2847 2094 
Q 2847 2600 2669 2842 
Q 2491 3084 2119 3084 
Q 1678 3084 1418 2786 
Q 1159 2488 1159 1978 
L 1159 0 
L 581 0 
L 581 3500 
L 1159 3500 
L 1159 2956 
Q 1356 3278 1631 3431 
Q 1906 3584 2284 3584 
Q 2666 3584 2933 3390 
Q 3200 3197 3328 2828 
z
" transform="scale(0.015625)"/>
       <path id="DejaVuSans-65" d="M 3597 1894 
L 3597 1613 
L 953 1613 
Q 991 1019 1311 708 
Q 1631 397 2203 397 
Q 2534 397 2845 478 
Q 3156 559 3463 722 
L 3463 178 
Q 3153 47 2828 -22 
Q 2503 -91 2169 -91 
Q 1331 -91 842 396 
Q 353 884 353 1716 
Q 353 2575 817 3079 
Q 1281 3584 2069 3584 
Q 2775 3584 3186 3129 
Q 3597 2675 3597 1894 
z
M 3022 2063 
Q 3016 2534 2758 2815 
Q 2500 3097 2075 3097 
Q 1594 3097 1305 2825 
Q 1016 2553 972 2059 
L 3022 2063 
z
" transform="scale(0.015625)"/>
       <path id="DejaVuSans-74" d="M 1172 4494 
L 1172 3500 
L 2356 3500 
L 2356 3053 
L 1172 3053 
L 1172 1153 
Q 1172 725 1289 603 
Q 1406 481 1766 481 
L 2356 481 
L 2356 0 
L 1766 0 
Q 1100 0 847 248 
Q 594 497 594 1153 
L 594 3053 
L 172 3053 
L 172 3500 
L 594 3500 
L 594 4494 
L 1172 4494 
z
" transform="scale(0.015625)"/>
       <path id="DejaVuSans-20" transform="scale(0.015625)"/>
       <path id="DejaVuSans-73" d="M 2834 3397 
L 2834 2853 
Q 2591 2978 2328 3040 
Q 2066 3103 1784 3103 
Q 1356 3103 1142 2972 
Q 928 2841 928 2578 
Q 928 2378 1081 2264 
Q 1234 2150 1697 2047 
L 1894 2003 
Q 2506 1872 2764 1633 
Q 3022 1394 3022 966 
Q 3022 478 2636 193 
Q 2250 -91 1575 -91 
Q 1294 -91 989 -36 
Q 684 19 347 128 
L 347 722 
Q 666 556 975 473 
Q 1284 391 1588 391 
Q 1994 391 2212 530 
Q 2431 669 2431 922 
Q 2431 1156 2273 1281 
Q 2116 1406 1581 1522 
L 1381 1569 
Q 847 1681 609 1914 
Q 372 2147 372 2553 
Q 372 3047 722 3315 
Q 1072 3584 1716 3584 
Q 2034 3584 2315 3537 
Q 2597 3491 2834 3397 
z
" transform="scale(0.015625)"/>
       <path id="DejaVuSans-70" d="M 1159 525 
L 1159 -1331 
L 581 -1331 
L 581 3500 
L 1159 3500 
L 1159 2969 
Q 1341 3281 1617 3432 
Q 1894 3584 2278 3584 
Q 2916 3584 3314 3078 
Q 3713 2572 3713 1747 
Q 3713 922 3314 415 
Q 2916 -91 2278 -91 
Q 1894 -91 1617 61 
Q 1341 213 1159 525 
z
M 3116 1747 
Q 3116 2381 2855 2742 
Q 2594 3103 2138 3103 
Q 1681 3103 1420 2742 
Q 1159 2381 1159 1747 
Q 1159 1113 1420 752 
Q 1681 391 2138 391 
Q 2594 391 2855 752 
Q 3116 1113 3116 1747 
z
" transform="scale(0.015625)"/>
       <path id="DejaVuSans-28" d="M 1984 4856 
Q 1566 4138 1362 3434 
Q 1159 2731 1159 2009 
Q 1159 1288 1364 580 
Q 1569 -128 1984 -844 
L 1484 -844 
Q 1016 -109 783 600 
Q 550 1309 550 2009 
Q 550 2706 781 3412 
Q 1013 4119 1484 4856 
L 1984 4856 
z
" transform="scale(0.015625)"/>
       <path id="DejaVuSans-d7" d="M 4488 3438 
L 3059 2003 
L 4488 575 
L 4116 197 
L 2681 1631 
L 1247 197 
L 878 575 
L 2303 2003 
L 878 3438 
L 1247 3816 
L 2681 2381 
L 4116 3816 
L 4488 3438 
z
" transform="scale(0.015625)"/>
       <path id="DejaVuSans-2076" d="M 1359 3541 
Q 1084 3541 925 3378 
Q 766 3213 766 2928 
Q 766 2647 925 2484 
Q 1084 2319 1359 2319 
Q 1631 2319 1791 2484 
Q 1950 2647 1950 2928 
Q 1950 3213 1791 3378 
Q 1631 3541 1359 3541 
z
M 2166 4647 
L 2166 4325 
Q 2013 4388 1856 4419 
Q 1700 4453 1547 4453 
Q 1147 4453 934 4219 
Q 722 3981 691 3503 
Q 809 3656 988 3738 
Q 1169 3819 1381 3819 
Q 1834 3819 2097 3581 
Q 2359 3341 2359 2928 
Q 2359 2531 2084 2284 
Q 1813 2041 1359 2041 
Q 838 2041 563 2387 
Q 288 2734 288 3397 
Q 288 4016 625 4381 
Q 963 4750 1531 4750 
Q 1684 4750 1841 4725 
Q 1997 4697 2166 4647 
z
" transform="scale(0.015625)"/>
       <path id="DejaVuSans-29" d="M 513 4856 
L 1013 4856 
Q 1481 4119 1714 3412 
Q 1947 2706 1947 2009 
Q 1947 1309 1714 600 
Q 1481 -109 1013 -844 
L 513 -844 
Q 928 -128 1133 580 
Q 1338 1288 1338 2009 
Q 1338 2731 1133 3434 
Q 928 4138 513 4856 
z
" transform="scale(0.015625)"/>
      </defs>
      <use xlink:href="#DejaVuSans-45"/>
      <use xlink:href="#DejaVuSans-6e" x="63.183594"/>
      <use xlink:href="#DejaVuSans-76" x="126.5625"/>
      <use xlink:href="#DejaVuSans-69" x="185.742188"/>
      <use xlink:href="#DejaVuSans-72" x="213.525391"/>
      <use xlink:href="#DejaVuSans-6f" x="252.388672"/>
      <use xlink:href="#DejaVuSans-6e" x="313.570312"/>
      <use xlink:href="#DejaVuSans-6d" x="376.949219"/>
      <use xlink:href="#DejaVuSans-65" x="474.361328"/>
      <use xlink:href="#DejaVuSans-6e" x="535.884766"/>
      <use xlink:href="#DejaVuSans-74" x="599.263672"/>
      <use xlink:href="#DejaVuSans-20" x="638.472656"/>
      <use xlink:href="#DejaVuSans-73" x="670.259766"/>
      <use xlink:href="#DejaVuSans-74" x="722.359375"/>
      <use xlink:href="#DejaVuSans-65" x="761.568359"/>
      <use xlink:href="#DejaVuSans-70" x="823.091797"/>
      <use xlink:href="#DejaVuSans-73" x="886.568359"/>
      <use xlink:href="#DejaVuSans-20" x="938.667969"/>
      <use xlink:href="#DejaVuSans-28" x="970.455078"/>
      <use xlink:href="#DejaVuSans-d7" x="1009.46875"/>
      <use xlink:href="#DejaVuSans-31" x="1093.257812"/>
      <use xlink:href="#DejaVuSans-30" x="1156.880859"/>
      <use xlink:href="#DejaVuSans-2076" x="1220.503906"/>
      <use xlink:href="#DejaVuSans-29" x="1260.591797"/>
     </g>
    </g>
   </g>
   <g id="matplotlib.axis_2">
    <g id="ytick_1">
     <g id="line2d_11">
      <path d="M 46.19 200.425819 
L 410.0625 200.425819 
" clip-path="url(#pabbf9cb313)" style="fill: none; stroke-dasharray: 2.96,1.28; stroke-dashoffset: 0; stroke: #d3d3d3; stroke-width: 0.8"/>
     </g>
     <g id="line2d_12">
      <defs>
       <path id="m085fdc8155" d="M 0 0 
L -3.5 0 
" style="stroke: #000000; stroke-width: 0.8"/>
      </defs>
      <g>
       <use xlink:href="#m085fdc8155" x="46.19" y="200.425819" style="stroke: #000000; stroke-width: 0.8"/>
      </g>
     </g>
     <g id="text_7">
      <!-- 0 -->
      <g transform="translate(30.2825 205.744726) scale(0.14 -0.14)">
       <use xlink:href="#DejaVuSans-30"/>
      </g>
     </g>
    </g>
    <g id="ytick_2">
     <g id="line2d_13">
      <path d="M 46.19 139.007768 
L 410.0625 139.007768 
" clip-path="url(#pabbf9cb313)" style="fill: none; stroke-dasharray: 2.96,1.28; stroke-dashoffset: 0; stroke: #d3d3d3; stroke-width: 0.8"/>
     </g>
     <g id="line2d_14">
      <g>
       <use xlink:href="#m085fdc8155" x="46.19" y="139.007768" style="stroke: #000000; stroke-width: 0.8"/>
      </g>
     </g>
     <g id="text_8">
      <!-- 1 -->
      <g transform="translate(30.2825 144.326674) scale(0.14 -0.14)">
       <use xlink:href="#DejaVuSans-31"/>
      </g>
     </g>
    </g>
    <g id="ytick_3">
     <g id="line2d_15">
      <path d="M 46.19 77.589716 
L 410.0625 77.589716 
" clip-path="url(#pabbf9cb313)" style="fill: none; stroke-dasharray: 2.96,1.28; stroke-dashoffset: 0; stroke: #d3d3d3; stroke-width: 0.8"/>
     </g>
     <g id="line2d_16">
      <g>
       <use xlink:href="#m085fdc8155" x="46.19" y="77.589716" style="stroke: #000000; stroke-width: 0.8"/>
      </g>
     </g>
     <g id="text_9">
      <!-- 2 -->
      <g transform="translate(30.2825 82.908622) scale(0.14 -0.14)">
       <use xlink:href="#DejaVuSans-32"/>
      </g>
     </g>
    </g>
    <g id="ytick_4">
     <g id="line2d_17">
      <path d="M 46.19 16.171664 
L 410.0625 16.171664 
" clip-path="url(#pabbf9cb313)" style="fill: none; stroke-dasharray: 2.96,1.28; stroke-dashoffset: 0; stroke: #d3d3d3; stroke-width: 0.8"/>
     </g>
     <g id="line2d_18">
      <g>
       <use xlink:href="#m085fdc8155" x="46.19" y="16.171664" style="stroke: #000000; stroke-width: 0.8"/>
      </g>
     </g>
     <g id="text_10">
      <!-- 3 -->
      <g transform="translate(30.2825 21.49057) scale(0.14 -0.14)">
       <use xlink:href="#DejaVuSans-33"/>
      </g>
     </g>
    </g>
    <g id="text_11">
     <!-- Tasks Completed -->
     <g transform="translate(22.955 175.912492) rotate(-90) scale(0.16 -0.16)">
      <defs>
       <path id="DejaVuSans-54" d="M -19 4666 
L 3928 4666 
L 3928 4134 
L 2272 4134 
L 2272 0 
L 1638 0 
L 1638 4134 
L -19 4134 
L -19 4666 
z
" transform="scale(0.015625)"/>
       <path id="DejaVuSans-61" d="M 2194 1759 
Q 1497 1759 1228 1600 
Q 959 1441 959 1056 
Q 959 750 1161 570 
Q 1363 391 1709 391 
Q 2188 391 2477 730 
Q 2766 1069 2766 1631 
L 2766 1759 
L 2194 1759 
z
M 3341 1997 
L 3341 0 
L 2766 0 
L 2766 531 
Q 2569 213 2275 61 
Q 1981 -91 1556 -91 
Q 1019 -91 701 211 
Q 384 513 384 1019 
Q 384 1609 779 1909 
Q 1175 2209 1959 2209 
L 2766 2209 
L 2766 2266 
Q 2766 2663 2505 2880 
Q 2244 3097 1772 3097 
Q 1472 3097 1187 3025 
Q 903 2953 641 2809 
L 641 3341 
Q 956 3463 1253 3523 
Q 1550 3584 1831 3584 
Q 2591 3584 2966 3190 
Q 3341 2797 3341 1997 
z
" transform="scale(0.015625)"/>
       <path id="DejaVuSans-6b" d="M 581 4863 
L 1159 4863 
L 1159 1991 
L 2875 3500 
L 3609 3500 
L 1753 1863 
L 3688 0 
L 2938 0 
L 1159 1709 
L 1159 0 
L 581 0 
L 581 4863 
z
" transform="scale(0.015625)"/>
       <path id="DejaVuSans-43" d="M 4122 4306 
L 4122 3641 
Q 3803 3938 3442 4084 
Q 3081 4231 2675 4231 
Q 1875 4231 1450 3742 
Q 1025 3253 1025 2328 
Q 1025 1406 1450 917 
Q 1875 428 2675 428 
Q 3081 428 3442 575 
Q 3803 722 4122 1019 
L 4122 359 
Q 3791 134 3420 21 
Q 3050 -91 2638 -91 
Q 1578 -91 968 557 
Q 359 1206 359 2328 
Q 359 3453 968 4101 
Q 1578 4750 2638 4750 
Q 3056 4750 3426 4639 
Q 3797 4528 4122 4306 
z
" transform="scale(0.015625)"/>
       <path id="DejaVuSans-6c" d="M 603 4863 
L 1178 4863 
L 1178 0 
L 603 0 
L 603 4863 
z
" transform="scale(0.015625)"/>
       <path id="DejaVuSans-64" d="M 2906 2969 
L 2906 4863 
L 3481 4863 
L 3481 0 
L 2906 0 
L 2906 525 
Q 2725 213 2448 61 
Q 2172 -91 1784 -91 
Q 1150 -91 751 415 
Q 353 922 353 1747 
Q 353 2572 751 3078 
Q 1150 3584 1784 3584 
Q 2172 3584 2448 3432 
Q 2725 3281 2906 2969 
z
M 947 1747 
Q 947 1113 1208 752 
Q 1469 391 1925 391 
Q 2381 391 2643 752 
Q 2906 1113 2906 1747 
Q 2906 2381 2643 2742 
Q 2381 3103 1925 3103 
Q 1469 3103 1208 2742 
Q 947 2381 947 1747 
z
" transform="scale(0.015625)"/>
      </defs>
      <use xlink:href="#DejaVuSans-54"/>
      <use xlink:href="#DejaVuSans-61" x="44.583984"/>
      <use xlink:href="#DejaVuSans-73" x="105.863281"/>
      <use xlink:href="#DejaVuSans-6b" x="157.962891"/>
      <use xlink:href="#DejaVuSans-73" x="215.873047"/>
      <use xlink:href="#DejaVuSans-20" x="267.972656"/>
      <use xlink:href="#DejaVuSans-43" x="299.759766"/>
      <use xlink:href="#DejaVuSans-6f" x="369.583984"/>
      <use xlink:href="#DejaVuSans-6d" x="430.765625"/>
      <use xlink:href="#DejaVuSans-70" x="528.177734"/>
      <use xlink:href="#DejaVuSans-6c" x="591.654297"/>
      <use xlink:href="#DejaVuSans-65" x="619.4375"/>
      <use xlink:href="#DejaVuSans-74" x="680.960938"/>
      <use xlink:href="#DejaVuSans-65" x="720.169922"/>
      <use xlink:href="#DejaVuSans-64" x="781.693359"/>
     </g>
    </g>
   </g>
   <g id="line2d_19">
    <path d="M 47.933813 198.885581 
L 51.511635 197.675306 
L 55.089458 195.881364 
L 58.668051 194.351205 
L 62.245874 196.204555 
L 65.823697 193.515435 
L 69.40229 191.974401 
L 72.980113 190.852841 
L 76.557935 190.576998 
L 80.136529 185.29443 
L 83.714352 186.116529 
L 87.292174 187.20124 
L 90.870768 190.381967 
L 94.44859 190.831162 
L 98.026413 187.962403 
L 101.605006 190.716818 
L 105.182829 186.373714 
L 108.760652 188.088817 
L 112.339245 184.100343 
L 115.917068 185.180601 
L 119.49489 187.386592 
L 123.073484 185.308118 
L 126.651307 182.797102 
L 130.229129 183.682645 
L 133.807723 182.803682 
L 137.385545 181.572844 
L 140.963368 182.449168 
L 144.541961 182.20389 
L 148.119784 181.58797 
L 151.697607 182.379621 
L 155.2762 177.273102 
L 158.854023 178.438351 
L 162.431845 180.986796 
L 166.010439 181.203499 
L 169.588262 179.026758 
L 173.166084 178.501842 
L 176.744678 180.424973 
L 180.3225 178.799831 
L 183.900323 174.654912 
L 187.478916 174.525164 
L 191.056739 176.871209 
L 194.634562 180.466564 
L 198.213155 175.323455 
L 201.790978 179.728858 
L 205.3688 179.858476 
L 208.947394 180.73174 
L 212.525217 181.654324 
L 216.103039 182.012692 
L 219.681633 176.147626 
L 223.259455 171.844734 
L 226.837278 170.346215 
L 230.415871 173.681715 
L 233.993694 176.813362 
L 237.571517 176.115472 
L 241.15011 170.991051 
L 244.727933 171.601802 
L 248.305755 171.116544 
L 251.884349 169.046777 
L 255.462172 170.01515 
L 259.039994 171.971709 
L 262.618588 170.161765 
L 266.19641 171.801403 
L 269.774233 172.849129 
L 273.352826 171.714715 
L 276.930649 168.690002 
L 280.508472 169.705011 
L 284.087065 170.02423 
L 287.664888 169.888202 
L 291.24271 169.547609 
L 294.821304 168.853133 
L 298.399127 168.947921 
L 301.976949 166.817435 
L 305.555543 167.27169 
L 309.133365 162.138334 
L 312.711188 164.229409 
L 316.289781 163.087834 
L 319.867604 165.206824 
L 323.445427 166.526159 
L 327.02402 162.167533 
L 330.601843 166.122385 
L 334.179665 166.53324 
L 337.758259 163.745087 
L 341.336082 162.571795 
L 344.913904 165.151806 
L 348.492498 162.412448 
L 352.07032 164.466092 
L 355.648143 167.35207 
L 359.226736 164.92212 
L 362.804559 162.252247 
L 366.382382 162.208168 
L 369.960975 157.690916 
L 373.538798 158.924552 
L 377.11662 166.868926 
L 380.695214 160.503523 
L 384.273037 161.81183 
L 387.850859 162.550824 
L 391.429453 160.357986 
L 395.007275 165.027933 
L 398.585098 162.855348 
L 402.163691 163.500589 
" clip-path="url(#pabbf9cb313)" style="fill: none; stroke: #17becf; stroke-width: 2; stroke-linecap: square"/>
   </g>
   <g id="line2d_20">
    <path d="M 47.933813 196.736391 
L 51.511635 194.504522 
L 55.089458 193.896013 
L 58.668051 194.916966 
L 62.245874 195.478914 
L 65.823697 191.44093 
L 69.40229 189.842839 
L 72.980113 188.704587 
L 76.557935 185.906997 
L 80.136529 188.402825 
L 83.714352 188.293612 
L 87.292174 192.129733 
L 90.870768 192.651827 
L 94.44859 190.869839 
L 98.026413 192.59516 
L 101.605006 190.433523 
L 105.182829 190.224417 
L 108.760652 190.314731 
L 112.339245 189.037562 
L 115.917068 188.813905 
L 119.49489 189.132985 
L 123.073484 190.515758 
L 126.651307 188.023467 
L 130.229129 189.586393 
L 133.807723 187.582586 
L 137.385545 188.949259 
L 140.963368 188.209846 
L 144.541961 187.808184 
L 148.119784 186.556495 
L 151.697607 191.516298 
L 155.2762 186.719337 
L 158.854023 188.063436 
L 162.431845 187.541061 
L 166.010439 190.66496 
L 169.588262 188.76179 
L 173.166084 188.496983 
L 176.744678 186.751996 
L 180.3225 186.71084 
L 183.900323 187.409849 
L 187.478916 185.008995 
L 191.056739 188.283379 
L 194.634562 191.901505 
L 198.213155 187.865342 
L 201.790978 188.803688 
L 205.3688 190.553982 
L 208.947394 184.931488 
L 212.525217 186.609561 
L 216.103039 186.08688 
L 219.681633 191.694409 
L 223.259455 193.015721 
L 226.837278 194.148074 
L 230.415871 194.505092 
L 233.993694 193.204774 
L 237.571517 189.945187 
L 241.15011 192.621067 
L 244.727933 190.98599 
L 248.305755 193.200021 
L 251.884349 192.08528 
L 255.462172 189.170381 
L 259.039994 192.315533 
L 262.618588 193.241353 
L 266.19641 194.596053 
L 269.774233 194.349648 
L 273.352826 194.799228 
L 276.930649 196.120026 
L 280.508472 195.173908 
L 284.087065 193.867976 
L 287.664888 196.085799 
L 291.24271 192.977381 
L 294.821304 193.033204 
L 298.399127 195.418383 
L 301.976949 196.211213 
L 305.555543 197.296686 
L 309.133365 197.553062 
L 312.711188 195.443188 
L 316.289781 195.711151 
L 319.867604 196.846234 
L 323.445427 195.508678 
L 327.02402 196.579915 
L 330.601843 190.916836 
L 334.179665 183.733625 
L 337.758259 189.663953 
L 341.336082 190.802292 
L 344.913904 185.616196 
L 348.492498 186.802721 
L 352.07032 187.350043 
L 355.648143 185.980167 
L 359.226736 192.694367 
L 362.804559 193.167298 
L 366.382382 187.00487 
L 369.960975 189.655625 
L 373.538798 190.726954 
L 377.11662 190.724556 
L 380.695214 193.723624 
L 384.273037 193.671751 
L 387.850859 192.268899 
L 391.429453 191.897905 
L 395.007275 194.152619 
L 398.585098 193.015945 
L 402.163691 193.369552 
" clip-path="url(#pabbf9cb313)" style="fill: none; stroke-dasharray: 7.4,3.2; stroke-dashoffset: 0; stroke: #7f7f7f; stroke-width: 2"/>
   </g>
   <g id="patch_3">
    <path d="M 46.19 201.04 
L 46.19 15.557483 
" style="fill: none; stroke: #000000; stroke-width: 0.8; stroke-linejoin: miter; stroke-linecap: square"/>
   </g>
   <g id="patch_4">
    <path d="M 410.0625 201.04 
L 410.0625 15.557483 
" style="fill: none; stroke: #000000; stroke-width: 0.8; stroke-linejoin: miter; stroke-linecap: square"/>
   </g>
   <g id="patch_5">
    <path d="M 46.19 201.04 
L 410.0625 201.04 
" style="fill: none; stroke: #000000; stroke-width: 0.8; stroke-linejoin: miter; stroke-linecap: square"/>
   </g>
   <g id="patch_6">
    <path d="M 46.19 15.557483 
L 410.0625 15.557483 
" style="fill: none; stroke: #000000; stroke-width: 0.8; stroke-linejoin: miter; stroke-linecap: square"/>
   </g>
  </g>
 </g>
 <defs>
  <clipPath id="pabbf9cb313">
   <rect x="46.19" y="15.557483" width="363.8725" height="185.482517"/>
  </clipPath>
 </defs>
</svg>
