<?xml version="1.0" encoding="utf-8" standalone="no"?>
<!DOCTYPE svg PUBLIC "-//W3C//DTD SVG 1.1//EN"
  "http://www.w3.org/Graphics/SVG/1.1/DTD/svg11.dtd">
<svg xmlns:xlink="http://www.w3.org/1999/xlink" width="432pt" height="252pt" viewBox="0 0 432 252" xmlns="http://www.w3.org/2000/svg" version="1.1">
 <metadata>
  <rdf:RDF xmlns:dc="http://purl.org/dc/elements/1.1/" xmlns:cc="http://creativecommons.org/ns#" xmlns:rdf="http://www.w3.org/1999/02/22-rdf-syntax-ns#">
   <cc:Work>
    <dc:type rdf:resource="http://purl.org/dc/dcmitype/StillImage"/>
    <dc:date>2023-09-25T00:24:13.287545</dc:date>
    <dc:format>image/svg+xml</dc:format>
    <dc:creator>
     <cc:Agent>
      <dc:title>Matplotlib v3.7.2, https://matplotlib.org/</dc:title>
     </cc:Agent>
    </dc:creator>
   </cc:Work>
  </rdf:RDF>
 </metadata>
 <defs>
  <style type="text/css">*{stroke-linejoin: round; stroke-linecap: butt}</style>
 </defs>
 <g id="figure_1">
  <g id="patch_1">
   <path d="M 0 252 
L 432 252 
L 432 0 
L 0 0 
z
" style="fill: #ffffff"/>
  </g>
  <g id="axes_1">
   <g id="patch_2">
    <path d="M 59.555 201.04 
L 412.29 201.04 
L 412.29 15.239406 
L 59.555 15.239406 
z
" style="fill: #ffffff"/>
   </g>
   <g id="PolyCollection_1">
    <defs>
     <path id="m055b7541d5" d="M 61.402235 -51.879805 
L 61.402235 -51.879805 
L 65.08739 -51.879805 
L 68.686914 -51.879805 
L 72.220864 -51.879805 
L 75.656061 -51.879805 
L 79.101501 -51.879805 
L 82.586921 -51.879805 
L 85.979002 -51.879805 
L 89.357253 -51.879805 
L 92.626293 -51.879805 
L 95.887882 -51.879805 
L 99.154786 -51.879805 
L 102.424658 -51.879805 
L 105.846811 -51.879805 
L 109.286634 -51.879805 
L 112.702562 -51.879805 
L 116.221584 -51.879805 
L 119.791993 -51.879805 
L 123.341746 -51.879805 
L 126.903522 -51.879805 
L 130.460496 -51.879812 
L 134.003197 -51.879807 
L 137.525011 -51.879806 
L 140.973906 -51.879805 
L 144.361341 -51.879805 
L 147.751756 -51.879805 
L 151.148117 -51.879805 
L 154.516792 -51.879805 
L 157.874511 -51.879805 
L 161.214672 -51.879805 
L 164.581685 -51.879805 
L 167.972985 -51.879805 
L 171.358101 -51.879805 
L 174.753927 -51.879805 
L 178.180016 -51.879805 
L 181.571368 -51.879805 
L 185.017893 -51.879805 
L 188.629081 -51.879805 
L 192.245006 -51.879805 
L 195.868445 -51.879805 
L 199.479573 -51.879805 
L 203.078904 -51.879805 
L 206.667615 -51.879805 
L 210.241175 -51.879805 
L 213.792373 -51.879805 
L 217.343148 -51.879805 
L 220.914136 -51.879805 
L 224.486075 -51.879805 
L 228.045801 -51.879805 
L 231.593252 -52.235748 
L 235.101786 -51.989207 
L 238.650764 -51.91343 
L 242.212338 -51.889623 
L 245.809749 -51.882981 
L 249.351461 -51.880781 
L 252.869942 -51.880121 
L 256.378123 -51.879902 
L 259.917754 -51.879835 
L 263.448248 -51.879815 
L 266.936515 -51.879814 
L 270.44627 -52.080008 
L 274.000488 -52.012624 
L 277.551977 -52.080285 
L 281.088619 -51.944667 
L 284.580824 -51.90079 
L 288.098762 -51.897797 
L 291.666727 -61.312711 
L 295.200344 -65.975711 
L 298.724644 -67.95027 
L 302.231669 -75.218202 
L 305.759706 -79.927455 
L 309.291894 -84.776219 
L 312.832762 -78.526244 
L 316.348119 -76.365635 
L 319.841108 -83.460335 
L 323.333851 -82.532088 
L 326.833621 -85.377184 
L 330.371129 -96.789566 
L 333.916607 -94.850524 
L 337.411602 -72.378935 
L 340.910435 -70.100806 
L 344.418482 -69.973208 
L 347.927483 -73.015172 
L 351.441274 -91.037918 
L 354.952445 -111.539266 
L 358.428921 -125.787538 
L 361.882163 -112.238981 
L 365.361581 -113.513901 
L 368.537679 -119.202284 
L 371.688382 -113.28985 
L 375.202451 -108.061556 
L 378.779763 -112.061728 
L 382.507353 -126.632578 
L 386.212501 -127.971358 
L 389.908721 -110.983181 
L 393.568679 -105.93854 
L 397.311775 -123.889839 
L 401.07277 -137.613827 
L 404.809273 -132.745695 
L 408.477754 -126.749157 
L 408.477754 -202.334951 
L 408.477754 -202.334951 
L 404.809273 -211.50797 
L 401.07277 -217.037871 
L 397.311775 -221.089588 
L 393.568679 -209.911352 
L 389.908721 -211.070456 
L 386.212501 -207.113379 
L 382.507353 -216.168348 
L 378.779763 -222.493661 
L 375.202451 -201.917455 
L 371.688382 -201.711997 
L 368.537679 -204.553068 
L 365.361581 -210.816356 
L 361.882163 -210.354206 
L 358.428921 -204.84857 
L 354.952445 -203.2174 
L 351.441274 -196.013937 
L 347.927483 -200.124637 
L 344.418482 -193.83002 
L 340.910435 -196.294619 
L 337.411602 -196.786098 
L 333.916607 -199.97705 
L 330.371129 -201.885056 
L 326.833621 -185.500288 
L 323.333851 -184.970328 
L 319.841108 -192.009197 
L 316.348119 -190.455663 
L 312.832762 -186.308693 
L 309.291894 -197.961576 
L 305.759706 -194.846615 
L 302.231669 -180.586636 
L 298.724644 -188.064807 
L 295.200344 -173.487821 
L 291.666727 -173.329004 
L 288.098762 -175.652173 
L 284.580824 -178.361324 
L 281.088619 -163.118503 
L 277.551977 -161.393334 
L 274.000488 -167.733252 
L 270.44627 -188.802195 
L 266.936515 -190.646766 
L 263.448248 -184.307034 
L 259.917754 -180.662801 
L 256.378123 -169.861951 
L 252.869942 -155.381352 
L 249.351461 -150.729105 
L 245.809749 -159.595084 
L 242.212338 -164.999093 
L 238.650764 -154.119288 
L 235.101786 -141.175664 
L 231.593252 -133.011828 
L 228.045801 -135.434354 
L 224.486075 -133.672923 
L 220.914136 -131.352874 
L 217.343148 -111.504633 
L 213.792373 -121.293827 
L 210.241175 -110.165513 
L 206.667615 -111.786676 
L 203.078904 -86.987611 
L 199.479573 -80.355813 
L 195.868445 -79.45302 
L 192.245006 -76.545923 
L 188.629081 -75.371176 
L 185.017893 -81.366682 
L 181.571368 -89.7352 
L 178.180016 -88.950356 
L 174.753927 -108.690267 
L 171.358101 -105.37283 
L 167.972985 -90.629846 
L 164.581685 -81.655673 
L 161.214672 -83.161058 
L 157.874511 -67.432011 
L 154.516792 -58.656141 
L 151.148117 -63.99586 
L 147.751756 -62.778979 
L 144.361341 -68.494175 
L 140.973906 -73.952926 
L 137.525011 -67.910521 
L 134.003197 -62.648648 
L 130.460496 -55.232543 
L 126.903522 -52.973031 
L 123.341746 -53.000817 
L 119.791993 -51.88034 
L 116.221584 -51.881458 
L 112.702562 -51.884184 
L 109.286634 -51.892665 
L 105.846811 -51.917565 
L 102.424658 -51.985137 
L 99.154786 -52.158939 
L 95.887882 -52.61952 
L 92.626293 -53.180289 
L 89.357253 -51.879805 
L 85.979002 -51.879805 
L 82.586921 -51.879805 
L 79.101501 -51.879805 
L 75.656061 -51.879805 
L 72.220864 -51.879805 
L 68.686914 -51.879805 
L 65.08739 -51.879805 
L 61.402235 -51.879805 
z
" style="stroke: #ff7f0e; stroke-opacity: 0.1"/>
    </defs>
    <g clip-path="url(#p28b5600b29)">
     <use xlink:href="#m055b7541d5" x="0" y="252" style="fill: #ff7f0e; fill-opacity: 0.1; stroke: #ff7f0e; stroke-opacity: 0.1"/>
    </g>
   </g>
   <g id="PolyCollection_2">
    <defs>
     <path id="m377ee4fc0d" d="M 61.444083 -51.879805 
L 61.444083 -51.879805 
L 65.140251 -51.879805 
L 68.744969 -51.879805 
L 72.284819 -51.879805 
L 75.749204 -51.879805 
L 79.131295 -51.879805 
L 82.51842 -51.879805 
L 85.864373 -51.879805 
L 89.22703 -51.879805 
L 92.510607 -51.879805 
L 95.778 -51.879805 
L 98.988719 -51.879805 
L 102.188404 -51.879805 
L 105.35789 -51.879805 
L 108.546814 -51.879805 
L 111.819181 -51.879805 
L 115.144656 -51.879805 
L 118.502458 -51.879805 
L 121.866983 -51.879805 
L 125.305226 -51.879805 
L 128.766967 -51.879805 
L 132.224215 -51.879805 
L 135.695886 -51.879805 
L 139.14607 -51.879805 
L 142.649005 -51.879805 
L 146.173257 -51.879805 
L 149.660755 -51.879805 
L 153.146184 -51.879805 
L 156.622409 -51.879805 
L 160.097969 -51.879805 
L 163.570093 -51.879805 
L 167.050664 -52.33981 
L 170.499476 -52.184982 
L 173.942989 -53.912783 
L 177.394338 -57.72268 
L 180.878335 -58.598146 
L 184.332018 -57.079825 
L 187.773647 -56.338172 
L 191.250632 -59.793416 
L 194.719886 -57.050277 
L 198.180695 -58.295776 
L 201.706327 -62.682204 
L 205.295134 -64.188261 
L 208.909372 -61.934347 
L 212.56 -63.779998 
L 216.210634 -68.335438 
L 219.797168 -76.074963 
L 223.353563 -77.468079 
L 226.903211 -82.446637 
L 230.444448 -93.458343 
L 233.995002 -92.567196 
L 237.524012 -96.020745 
L 241.055042 -101.696222 
L 244.598308 -99.780279 
L 248.139082 -104.453636 
L 251.702194 -115.741493 
L 255.256547 -128.258562 
L 258.873351 -133.019353 
L 262.469827 -124.129187 
L 266.023949 -128.025326 
L 269.580249 -126.879086 
L 273.130309 -131.785121 
L 276.7141 -133.678311 
L 280.289195 -131.985309 
L 283.858514 -145.6327 
L 287.451402 -134.48896 
L 291.017217 -135.81028 
L 294.566497 -128.33013 
L 298.123359 -127.287048 
L 301.700168 -145.754876 
L 305.232201 -165.311236 
L 308.815696 -162.102565 
L 312.371526 -165.179195 
L 315.89964 -147.412627 
L 319.404602 -150.793221 
L 322.888837 -173.855824 
L 326.402797 -164.02639 
L 329.896964 -183.0385 
L 333.395483 -175.137669 
L 336.875134 -165.317615 
L 340.33197 -162.104514 
L 343.802032 -168.518847 
L 347.297843 -156.544551 
L 350.813489 -165.412004 
L 354.347003 -163.231095 
L 357.856023 -160.273889 
L 361.36219 -168.448721 
L 364.874248 -169.412012 
L 368.366513 -161.531318 
L 371.884156 -164.500977 
L 375.419964 -166.476619 
L 378.920813 -174.343375 
L 382.442754 -168.688954 
L 385.943905 -184.360892 
L 389.44029 -175.762766 
L 392.930719 -165.96243 
L 396.402001 -176.840974 
L 399.883141 -171.051032 
L 403.353009 -170.898104 
L 406.857369 -178.946448 
L 410.368998 -162.061635 
L 410.368998 -212.572247 
L 410.368998 -212.572247 
L 406.857369 -208.44858 
L 403.353009 -224.339317 
L 399.883141 -232.823414 
L 396.402001 -232.341527 
L 392.930719 -230.186927 
L 389.44029 -226.614757 
L 385.943905 -218.694702 
L 382.442754 -213.929809 
L 378.920813 -218.83427 
L 375.419964 -232.410981 
L 371.884156 -235.525905 
L 368.366513 -220.68936 
L 364.874248 -206.884405 
L 361.36219 -216.151358 
L 357.856023 -230.649693 
L 354.347003 -229.166208 
L 350.813489 -224.94485 
L 347.297843 -211.68758 
L 343.802032 -194.836897 
L 340.33197 -211.308978 
L 336.875134 -210.075892 
L 333.395483 -210.788703 
L 329.896964 -217.617209 
L 326.402797 -221.15114 
L 322.888837 -213.948883 
L 319.404602 -212.92935 
L 315.89964 -205.716111 
L 312.371526 -208.941284 
L 308.815696 -206.427438 
L 305.232201 -200.712 
L 301.700168 -211.664511 
L 298.123359 -211.536907 
L 294.566497 -200.224455 
L 291.017217 -211.413597 
L 287.451402 -218.825884 
L 283.858514 -208.046411 
L 280.289195 -202.608445 
L 276.7141 -199.299811 
L 273.130309 -188.440443 
L 269.580249 -196.061578 
L 266.023949 -205.981537 
L 262.469827 -199.101799 
L 258.873351 -201.560461 
L 255.256547 -187.901329 
L 251.702194 -189.211541 
L 248.139082 -187.175854 
L 244.598308 -175.955108 
L 241.055042 -158.083628 
L 237.524012 -158.109613 
L 233.995002 -165.429591 
L 230.444448 -181.606481 
L 226.903211 -198.509627 
L 223.353563 -197.755098 
L 219.797168 -171.613313 
L 216.210634 -166.919686 
L 212.56 -160.651817 
L 208.909372 -162.465859 
L 205.295134 -146.759862 
L 201.706327 -159.113984 
L 198.180695 -153.48714 
L 194.719886 -150.218382 
L 191.250632 -147.47518 
L 187.773647 -147.333152 
L 184.332018 -149.261415 
L 180.878335 -138.55345 
L 177.394338 -129.221918 
L 173.942989 -132.32797 
L 170.499476 -133.786441 
L 167.050664 -132.482619 
L 163.570093 -124.240182 
L 160.097969 -109.710798 
L 156.622409 -106.021516 
L 153.146184 -95.732273 
L 149.660755 -98.634067 
L 146.173257 -94.363143 
L 142.649005 -74.736916 
L 139.14607 -62.394665 
L 135.695886 -58.520559 
L 132.224215 -55.176439 
L 128.766967 -56.848953 
L 125.305226 -56.116814 
L 121.866983 -57.08174 
L 118.502458 -51.879805 
L 115.144656 -51.879805 
L 111.819181 -51.879805 
L 108.546814 -51.879805 
L 105.35789 -51.879805 
L 102.188404 -51.879805 
L 98.988719 -51.879805 
L 95.778 -51.879805 
L 92.510607 -51.879805 
L 89.22703 -51.879805 
L 85.864373 -51.879805 
L 82.51842 -51.879805 
L 79.131295 -51.879805 
L 75.749204 -51.879805 
L 72.284819 -51.879805 
L 68.744969 -51.879805 
L 65.140251 -51.879805 
L 61.444083 -51.879805 
z
" style="stroke: #17becf; stroke-opacity: 0.1"/>
    </defs>
    <g clip-path="url(#p28b5600b29)">
     <use xlink:href="#m377ee4fc0d" x="0" y="252" style="fill: #17becf; fill-opacity: 0.1; stroke: #17becf; stroke-opacity: 0.1"/>
    </g>
   </g>
   <g id="PolyCollection_3">
    <defs>
     <path id="m25f3aa8353" d="M 61.53888 -51.879805 
L 61.53888 -51.879805 
L 65.527174 -51.879805 
L 69.466854 -51.879805 
L 73.335347 -51.879805 
L 77.151687 -51.879805 
L 80.914047 -51.879805 
L 84.618198 -51.879805 
L 88.276825 -51.879805 
L 91.918189 -51.879805 
L 95.51573 -51.879805 
L 99.099419 -51.879805 
L 102.642702 -51.879805 
L 106.199243 -51.879805 
L 109.766231 -51.879805 
L 113.313546 -51.879805 
L 116.82098 -51.879805 
L 120.298577 -51.879805 
L 123.825265 -51.879805 
L 127.327916 -51.879805 
L 130.792757 -51.879805 
L 134.254774 -51.879805 
L 137.696997 -51.879805 
L 141.164598 -51.879805 
L 144.654118 -51.879805 
L 148.164492 -51.879805 
L 151.6424 -51.879805 
L 155.083407 -51.879805 
L 158.531407 -51.879805 
L 161.996959 -51.879805 
L 165.461881 -51.879805 
L 168.9302 -51.879805 
L 172.400379 -51.879805 
L 175.837239 -51.879805 
L 179.295046 -51.879805 
L 182.769468 -51.879805 
L 186.237631 -51.879805 
L 189.69894 -51.879805 
L 193.152162 -51.879805 
L 196.590222 -51.879805 
L 200.057009 -51.879805 
L 203.54245 -51.879805 
L 207.031101 -51.879805 
L 210.497059 -51.879805 
L 213.941462 -51.879805 
L 217.409697 -51.879805 
L 220.884981 -52.487187 
L 224.367568 -53.461199 
L 227.841794 -52.418367 
L 231.304932 -52.045336 
L 234.760979 -51.973959 
L 238.23668 -54.653202 
L 241.715734 -58.115125 
L 245.202588 -57.942227 
L 248.694018 -53.944433 
L 252.148013 -54.607706 
L 255.611927 -56.751164 
L 259.075959 -60.335005 
L 262.541854 -69.457065 
L 266.010264 -70.259443 
L 269.47541 -71.248938 
L 272.907572 -69.116941 
L 276.378018 -62.463126 
L 279.859928 -61.309215 
L 283.323579 -73.145497 
L 286.785627 -67.602076 
L 290.240284 -79.159797 
L 293.696287 -81.633258 
L 297.164189 -86.086104 
L 300.626882 -88.189747 
L 304.080112 -86.360174 
L 307.523506 -77.792373 
L 310.970067 -72.448739 
L 314.428886 -77.573041 
L 317.876304 -74.084184 
L 321.345011 -83.270666 
L 324.809135 -108.584632 
L 328.255303 -110.144417 
L 331.676949 -113.513147 
L 335.118124 -122.486545 
L 338.571458 -128.108427 
L 342.025734 -124.493712 
L 345.478462 -126.583841 
L 348.935196 -141.433788 
L 352.359509 -141.635657 
L 355.814733 -131.211678 
L 359.2629 -131.269231 
L 362.716672 -131.850709 
L 366.172591 -138.021701 
L 369.605181 -140.25448 
L 373.04118 -147.604537 
L 376.489158 -151.995382 
L 379.932295 -161.796418 
L 383.375517 -162.793413 
L 386.813237 -162.990454 
L 390.339908 -155.100752 
L 393.943902 -157.230773 
L 397.570058 -162.980117 
L 401.199468 -162.33137 
L 404.805878 -161.670995 
L 408.379503 -160.705516 
L 408.379503 -206.778191 
L 408.379503 -206.778191 
L 404.805878 -199.357583 
L 401.199468 -199.306321 
L 397.570058 -201.821109 
L 393.943902 -214.141097 
L 390.339908 -203.324602 
L 386.813237 -193.307892 
L 383.375517 -205.074817 
L 379.932295 -210.953721 
L 376.489158 -222.175634 
L 373.04118 -218.864421 
L 369.605181 -213.795144 
L 366.172591 -210.306605 
L 362.716672 -196.94582 
L 359.2629 -194.141354 
L 355.814733 -210.620696 
L 352.359509 -200.746992 
L 348.935196 -202.089391 
L 345.478462 -198.215306 
L 342.025734 -197.387219 
L 338.571458 -197.851104 
L 335.118124 -193.870785 
L 331.676949 -190.166479 
L 328.255303 -196.298506 
L 324.809135 -193.028054 
L 321.345011 -199.903256 
L 317.876304 -210.642642 
L 314.428886 -205.099824 
L 310.970067 -191.945321 
L 307.523506 -181.468809 
L 304.080112 -172.045807 
L 300.626882 -167.219711 
L 297.164189 -163.277128 
L 293.696287 -155.749043 
L 290.240284 -157.032857 
L 286.785627 -159.640052 
L 283.323579 -148.845159 
L 279.859928 -136.135152 
L 276.378018 -140.656747 
L 272.907572 -148.747245 
L 269.47541 -128.226529 
L 266.010264 -128.570373 
L 262.541854 -136.549388 
L 259.075959 -137.94523 
L 255.611927 -132.2608 
L 252.148013 -128.464719 
L 248.694018 -126.801484 
L 245.202588 -114.003926 
L 241.715734 -116.136306 
L 238.23668 -112.341699 
L 234.760979 -112.114591 
L 231.304932 -118.639604 
L 227.841794 -120.478434 
L 224.367568 -115.468178 
L 220.884981 -101.686835 
L 217.409697 -99.357962 
L 213.941462 -104.281908 
L 210.497059 -113.124192 
L 207.031101 -101.427185 
L 203.54245 -100.288804 
L 200.057009 -99.968546 
L 196.590222 -102.036996 
L 193.152162 -100.552937 
L 189.69894 -94.462446 
L 186.237631 -92.475819 
L 182.769468 -93.610056 
L 179.295046 -102.27434 
L 175.837239 -102.162516 
L 172.400379 -92.152518 
L 168.9302 -73.915859 
L 165.461881 -67.707236 
L 161.996959 -70.380059 
L 158.531407 -71.515368 
L 155.083407 -68.447054 
L 151.6424 -69.122292 
L 148.164492 -65.266976 
L 144.654118 -55.171255 
L 141.164598 -55.182382 
L 137.696997 -53.528407 
L 134.254774 -51.927418 
L 130.792757 -52.042871 
L 127.327916 -52.383821 
L 123.825265 -53.519645 
L 120.298577 -52.454683 
L 116.82098 -51.879805 
L 113.313546 -51.879805 
L 109.766231 -51.879805 
L 106.199243 -51.879805 
L 102.642702 -51.879805 
L 99.099419 -51.879805 
L 95.51573 -51.879805 
L 91.918189 -51.879805 
L 88.276825 -51.879805 
L 84.618198 -51.879805 
L 80.914047 -51.879805 
L 77.151687 -51.879805 
L 73.335347 -51.879805 
L 69.466854 -51.879805 
L 65.527174 -51.879805 
L 61.53888 -51.879805 
z
" style="stroke: #e377c2; stroke-opacity: 0.1"/>
    </defs>
    <g clip-path="url(#p28b5600b29)">
     <use xlink:href="#m25f3aa8353" x="0" y="252" style="fill: #e377c2; fill-opacity: 0.1; stroke: #e377c2; stroke-opacity: 0.1"/>
    </g>
   </g>
   <g id="PolyCollection_4">
    <defs>
     <path id="m18cbeadec3" d="M 61.457658 -51.879805 
L 61.457658 -51.879805 
L 65.189168 -51.879805 
L 68.808011 -51.879805 
L 72.384379 -51.879805 
L 75.82967 -51.879805 
L 79.266246 -51.879805 
L 82.622209 -51.879805 
L 86.025431 -51.879805 
L 89.535923 -51.879805 
L 92.946151 -51.879805 
L 96.304548 -51.879805 
L 99.534648 -51.879805 
L 102.635257 -51.879805 
L 105.723871 -51.879805 
L 108.787827 -51.879805 
L 111.846166 -51.879805 
L 114.898508 -51.879805 
L 118.020131 -51.879805 
L 121.178062 -51.879805 
L 124.601694 -51.879805 
L 128.115732 -51.879805 
L 131.667861 -51.879805 
L 135.308899 -51.879805 
L 138.966594 -51.879805 
L 142.629515 -51.879805 
L 146.257065 -51.879805 
L 149.865642 -51.879805 
L 153.481185 -51.879805 
L 157.109953 -51.879805 
L 160.734632 -51.879805 
L 164.378947 -51.879805 
L 167.945677 -51.879805 
L 171.496335 -51.879805 
L 175.053102 -51.879805 
L 178.603117 -51.879805 
L 182.178609 -51.879805 
L 185.794629 -51.879805 
L 189.398901 -51.879805 
L 192.987357 -51.879805 
L 196.51072 -51.879805 
L 200.086251 -51.879805 
L 203.698171 -51.879805 
L 207.288563 -51.879805 
L 210.858581 -51.879805 
L 214.443788 -51.879805 
L 218.049515 -51.879805 
L 221.657501 -51.879805 
L 225.271914 -51.879805 
L 228.864007 -51.879805 
L 232.491135 -51.879805 
L 236.116847 -51.879805 
L 239.730237 -51.879805 
L 243.316044 -51.879805 
L 246.914765 -51.879805 
L 250.517827 -51.879805 
L 254.134053 -52.386287 
L 257.76578 -52.703282 
L 261.317341 -52.307716 
L 264.881934 -52.078052 
L 268.414219 -53.143664 
L 271.977647 -53.135855 
L 275.516973 -55.120125 
L 279.059429 -55.710667 
L 282.612004 -54.0588 
L 286.163163 -55.49633 
L 289.698256 -55.831138 
L 293.228556 -56.907141 
L 296.747321 -61.504342 
L 300.313003 -61.969261 
L 303.866965 -70.631061 
L 307.41682 -74.657606 
L 310.940537 -77.168507 
L 314.444382 -77.158578 
L 317.955485 -88.796694 
L 321.48067 -82.737774 
L 325.017874 -76.849026 
L 328.556886 -94.899957 
L 332.076454 -97.6867 
L 335.601466 -94.480592 
L 339.125734 -102.546162 
L 342.656371 -97.884855 
L 346.168982 -93.091146 
L 349.664244 -89.407632 
L 353.184292 -89.321459 
L 356.741858 -90.199948 
L 360.289563 -97.85148 
L 363.820517 -93.640383 
L 367.33639 -107.719184 
L 370.865974 -107.203895 
L 374.395377 -111.07216 
L 377.918358 -120.790934 
L 381.400967 -112.646222 
L 384.722608 -112.61113 
L 387.943078 -117.986459 
L 391.488425 -124.981864 
L 395.119462 -126.363737 
L 398.874261 -131.000335 
L 402.602939 -120.352347 
L 406.375823 -115.115658 
L 410.166298 -119.233422 
L 410.166298 -176.453837 
L 410.166298 -176.453837 
L 406.375823 -183.418739 
L 402.602939 -165.164149 
L 398.874261 -169.465032 
L 395.119462 -172.516253 
L 391.488425 -159.998223 
L 387.943078 -160.546713 
L 384.722608 -167.317472 
L 381.400967 -182.068096 
L 377.918358 -184.57531 
L 374.395377 -182.782879 
L 370.865974 -178.58884 
L 367.33639 -190.552268 
L 363.820517 -187.071619 
L 360.289563 -171.39792 
L 356.741858 -173.360156 
L 353.184292 -160.515947 
L 349.664244 -163.909509 
L 346.168982 -156.750165 
L 342.656371 -156.171946 
L 339.125734 -142.648109 
L 335.601466 -144.301072 
L 332.076454 -152.960889 
L 328.556886 -156.387408 
L 325.017874 -145.923101 
L 321.48067 -148.178879 
L 317.955485 -145.430002 
L 314.444382 -160.242474 
L 310.940537 -158.079019 
L 307.41682 -162.625673 
L 303.866965 -168.113377 
L 300.313003 -165.688344 
L 296.747321 -158.983639 
L 293.228556 -168.803222 
L 289.698256 -158.085919 
L 286.163163 -146.291755 
L 282.612004 -138.344072 
L 279.059429 -137.142616 
L 275.516973 -117.142934 
L 271.977647 -108.528816 
L 268.414219 -92.769163 
L 264.881934 -99.657916 
L 261.317341 -97.380779 
L 257.76578 -91.281572 
L 254.134053 -89.321117 
L 250.517827 -91.957419 
L 246.914765 -81.836461 
L 243.316044 -68.33483 
L 239.730237 -67.846814 
L 236.116847 -67.143055 
L 232.491135 -63.80144 
L 228.864007 -67.622314 
L 225.271914 -72.224722 
L 221.657501 -84.011366 
L 218.049515 -84.536275 
L 214.443788 -84.910975 
L 210.858581 -73.741305 
L 207.288563 -68.954984 
L 203.698171 -66.973659 
L 200.086251 -78.646549 
L 196.51072 -75.512159 
L 192.987357 -73.926704 
L 189.398901 -73.876798 
L 185.794629 -73.266506 
L 182.178609 -71.144393 
L 178.603117 -60.979437 
L 175.053102 -61.581982 
L 171.496335 -62.601008 
L 167.945677 -63.213528 
L 164.378947 -61.771955 
L 160.734632 -58.104379 
L 157.109953 -53.31824 
L 153.481185 -52.030624 
L 149.865642 -52.322659 
L 146.257065 -53.248609 
L 142.629515 -56.110601 
L 138.966594 -59.621181 
L 135.308899 -60.141995 
L 131.667861 -61.516416 
L 128.115732 -56.588898 
L 124.601694 -53.617294 
L 121.178062 -53.301622 
L 118.020131 -51.879805 
L 114.898508 -51.879805 
L 111.846166 -51.879805 
L 108.787827 -51.879805 
L 105.723871 -51.879805 
L 102.635257 -51.879805 
L 99.534648 -51.879805 
L 96.304548 -51.879805 
L 92.946151 -51.879805 
L 89.535923 -51.879805 
L 86.025431 -51.879805 
L 82.622209 -51.879805 
L 79.266246 -51.879805 
L 75.82967 -51.879805 
L 72.384379 -51.879805 
L 68.808011 -51.879805 
L 65.189168 -51.879805 
L 61.457658 -51.879805 
z
" style="stroke: #7f7f7f; stroke-opacity: 0.1"/>
    </defs>
    <g clip-path="url(#p28b5600b29)">
     <use xlink:href="#m18cbeadec3" x="0" y="252" style="fill: #7f7f7f; fill-opacity: 0.1; stroke: #7f7f7f; stroke-opacity: 0.1"/>
    </g>
   </g>
   <g id="matplotlib.axis_1">
    <g id="xtick_1">
     <g id="line2d_1">
      <path d="M 59.555 201.04 
L 59.555 15.239406 
" clip-path="url(#p28b5600b29)" style="fill: none; stroke-dasharray: 2.96,1.28; stroke-dashoffset: 0; stroke: #d3d3d3; stroke-width: 0.8"/>
     </g>
     <g id="line2d_2">
      <defs>
       <path id="m98fdf9e9ea" d="M 0 0 
L 0 3.5 
" style="stroke: #000000; stroke-width: 0.8"/>
      </defs>
      <g>
       <use xlink:href="#m98fdf9e9ea" x="59.555" y="201.04" style="stroke: #000000; stroke-width: 0.8"/>
      </g>
     </g>
     <g id="text_1">
      <!-- 0 -->
      <g transform="translate(55.10125 218.677813) scale(0.14 -0.14)">
       <defs>
        <path id="DejaVuSans-30" d="M 2034 4250 
Q 1547 4250 1301 3770 
Q 1056 3291 1056 2328 
Q 1056 1369 1301 889 
Q 1547 409 2034 409 
Q 2525 409 2770 889 
Q 3016 1369 3016 2328 
Q 3016 3291 2770 3770 
Q 2525 4250 2034 4250 
z
M 2034 4750 
Q 2819 4750 3233 4129 
Q 3647 3509 3647 2328 
Q 3647 1150 3233 529 
Q 2819 -91 2034 -91 
Q 1250 -91 836 529 
Q 422 1150 422 2328 
Q 422 3509 836 4129 
Q 1250 4750 2034 4750 
z
" transform="scale(0.015625)"/>
       </defs>
       <use xlink:href="#DejaVuSans-30"/>
      </g>
     </g>
    </g>
    <g id="xtick_2">
     <g id="line2d_3">
      <path d="M 147.73875 201.04 
L 147.73875 15.239406 
" clip-path="url(#p28b5600b29)" style="fill: none; stroke-dasharray: 2.96,1.28; stroke-dashoffset: 0; stroke: #d3d3d3; stroke-width: 0.8"/>
     </g>
     <g id="line2d_4">
      <g>
       <use xlink:href="#m98fdf9e9ea" x="147.73875" y="201.04" style="stroke: #000000; stroke-width: 0.8"/>
      </g>
     </g>
     <g id="text_2">
      <!-- 3 -->
      <g transform="translate(143.285 218.677813) scale(0.14 -0.14)">
       <defs>
        <path id="DejaVuSans-33" d="M 2597 2516 
Q 3050 2419 3304 2112 
Q 3559 1806 3559 1356 
Q 3559 666 3084 287 
Q 2609 -91 1734 -91 
Q 1441 -91 1130 -33 
Q 819 25 488 141 
L 488 750 
Q 750 597 1062 519 
Q 1375 441 1716 441 
Q 2309 441 2620 675 
Q 2931 909 2931 1356 
Q 2931 1769 2642 2001 
Q 2353 2234 1838 2234 
L 1294 2234 
L 1294 2753 
L 1863 2753 
Q 2328 2753 2575 2939 
Q 2822 3125 2822 3475 
Q 2822 3834 2567 4026 
Q 2313 4219 1838 4219 
Q 1578 4219 1281 4162 
Q 984 4106 628 3988 
L 628 4550 
Q 988 4650 1302 4700 
Q 1616 4750 1894 4750 
Q 2613 4750 3031 4423 
Q 3450 4097 3450 3541 
Q 3450 3153 3228 2886 
Q 3006 2619 2597 2516 
z
" transform="scale(0.015625)"/>
       </defs>
       <use xlink:href="#DejaVuSans-33"/>
      </g>
     </g>
    </g>
    <g id="xtick_3">
     <g id="line2d_5">
      <path d="M 235.9225 201.04 
L 235.9225 15.239406 
" clip-path="url(#p28b5600b29)" style="fill: none; stroke-dasharray: 2.96,1.28; stroke-dashoffset: 0; stroke: #d3d3d3; stroke-width: 0.8"/>
     </g>
     <g id="line2d_6">
      <g>
       <use xlink:href="#m98fdf9e9ea" x="235.9225" y="201.04" style="stroke: #000000; stroke-width: 0.8"/>
      </g>
     </g>
     <g id="text_3">
      <!-- 6 -->
      <g transform="translate(231.46875 218.677813) scale(0.14 -0.14)">
       <defs>
        <path id="DejaVuSans-36" d="M 2113 2584 
Q 1688 2584 1439 2293 
Q 1191 2003 1191 1497 
Q 1191 994 1439 701 
Q 1688 409 2113 409 
Q 2538 409 2786 701 
Q 3034 994 3034 1497 
Q 3034 2003 2786 2293 
Q 2538 2584 2113 2584 
z
M 3366 4563 
L 3366 3988 
Q 3128 4100 2886 4159 
Q 2644 4219 2406 4219 
Q 1781 4219 1451 3797 
Q 1122 3375 1075 2522 
Q 1259 2794 1537 2939 
Q 1816 3084 2150 3084 
Q 2853 3084 3261 2657 
Q 3669 2231 3669 1497 
Q 3669 778 3244 343 
Q 2819 -91 2113 -91 
Q 1303 -91 875 529 
Q 447 1150 447 2328 
Q 447 3434 972 4092 
Q 1497 4750 2381 4750 
Q 2619 4750 2861 4703 
Q 3103 4656 3366 4563 
z
" transform="scale(0.015625)"/>
       </defs>
       <use xlink:href="#DejaVuSans-36"/>
      </g>
     </g>
    </g>
    <g id="xtick_4">
     <g id="line2d_7">
      <path d="M 324.10625 201.04 
L 324.10625 15.239406 
" clip-path="url(#p28b5600b29)" style="fill: none; stroke-dasharray: 2.96,1.28; stroke-dashoffset: 0; stroke: #d3d3d3; stroke-width: 0.8"/>
     </g>
     <g id="line2d_8">
      <g>
       <use xlink:href="#m98fdf9e9ea" x="324.10625" y="201.04" style="stroke: #000000; stroke-width: 0.8"/>
      </g>
     </g>
     <g id="text_4">
      <!-- 9 -->
      <g transform="translate(319.6525 218.677813) scale(0.14 -0.14)">
       <defs>
        <path id="DejaVuSans-39" d="M 703 97 
L 703 672 
Q 941 559 1184 500 
Q 1428 441 1663 441 
Q 2288 441 2617 861 
Q 2947 1281 2994 2138 
Q 2813 1869 2534 1725 
Q 2256 1581 1919 1581 
Q 1219 1581 811 2004 
Q 403 2428 403 3163 
Q 403 3881 828 4315 
Q 1253 4750 1959 4750 
Q 2769 4750 3195 4129 
Q 3622 3509 3622 2328 
Q 3622 1225 3098 567 
Q 2575 -91 1691 -91 
Q 1453 -91 1209 -44 
Q 966 3 703 97 
z
M 1959 2075 
Q 2384 2075 2632 2365 
Q 2881 2656 2881 3163 
Q 2881 3666 2632 3958 
Q 2384 4250 1959 4250 
Q 1534 4250 1286 3958 
Q 1038 3666 1038 3163 
Q 1038 2656 1286 2365 
Q 1534 2075 1959 2075 
z
" transform="scale(0.015625)"/>
       </defs>
       <use xlink:href="#DejaVuSans-39"/>
      </g>
     </g>
    </g>
    <g id="xtick_5">
     <g id="line2d_9">
      <path d="M 412.29 201.04 
L 412.29 15.239406 
" clip-path="url(#p28b5600b29)" style="fill: none; stroke-dasharray: 2.96,1.28; stroke-dashoffset: 0; stroke: #d3d3d3; stroke-width: 0.8"/>
     </g>
     <g id="line2d_10">
      <g>
       <use xlink:href="#m98fdf9e9ea" x="412.29" y="201.04" style="stroke: #000000; stroke-width: 0.8"/>
      </g>
     </g>
     <g id="text_5">
      <!-- 12 -->
      <g transform="translate(403.3825 218.677813) scale(0.14 -0.14)">
       <defs>
        <path id="DejaVuSans-31" d="M 794 531 
L 1825 531 
L 1825 4091 
L 703 3866 
L 703 4441 
L 1819 4666 
L 2450 4666 
L 2450 531 
L 3481 531 
L 3481 0 
L 794 0 
L 794 531 
z
" transform="scale(0.015625)"/>
        <path id="DejaVuSans-32" d="M 1228 531 
L 3431 531 
L 3431 0 
L 469 0 
L 469 531 
Q 828 903 1448 1529 
Q 2069 2156 2228 2338 
Q 2531 2678 2651 2914 
Q 2772 3150 2772 3378 
Q 2772 3750 2511 3984 
Q 2250 4219 1831 4219 
Q 1534 4219 1204 4116 
Q 875 4013 500 3803 
L 500 4441 
Q 881 4594 1212 4672 
Q 1544 4750 1819 4750 
Q 2544 4750 2975 4387 
Q 3406 4025 3406 3419 
Q 3406 3131 3298 2873 
Q 3191 2616 2906 2266 
Q 2828 2175 2409 1742 
Q 1991 1309 1228 531 
z
" transform="scale(0.015625)"/>
       </defs>
       <use xlink:href="#DejaVuSans-31"/>
       <use xlink:href="#DejaVuSans-32" x="63.623047"/>
      </g>
     </g>
    </g>
    <g id="text_6">
     <!-- Environment steps (×10⁶) -->
     <g transform="translate(131.95375 237.746875) scale(0.16 -0.16)">
      <defs>
       <path id="DejaVuSans-45" d="M 628 4666 
L 3578 4666 
L 3578 4134 
L 1259 4134 
L 1259 2753 
L 3481 2753 
L 3481 2222 
L 1259 2222 
L 1259 531 
L 3634 531 
L 3634 0 
L 628 0 
L 628 4666 
z
" transform="scale(0.015625)"/>
       <path id="DejaVuSans-6e" d="M 3513 2113 
L 3513 0 
L 2938 0 
L 2938 2094 
Q 2938 2591 2744 2837 
Q 2550 3084 2163 3084 
Q 1697 3084 1428 2787 
Q 1159 2491 1159 1978 
L 1159 0 
L 581 0 
L 581 3500 
L 1159 3500 
L 1159 2956 
Q 1366 3272 1645 3428 
Q 1925 3584 2291 3584 
Q 2894 3584 3203 3211 
Q 3513 2838 3513 2113 
z
" transform="scale(0.015625)"/>
       <path id="DejaVuSans-76" d="M 191 3500 
L 800 3500 
L 1894 563 
L 2988 3500 
L 3597 3500 
L 2284 0 
L 1503 0 
L 191 3500 
z
" transform="scale(0.015625)"/>
       <path id="DejaVuSans-69" d="M 603 3500 
L 1178 3500 
L 1178 0 
L 603 0 
L 603 3500 
z
M 603 4863 
L 1178 4863 
L 1178 4134 
L 603 4134 
L 603 4863 
z
" transform="scale(0.015625)"/>
       <path id="DejaVuSans-72" d="M 2631 2963 
Q 2534 3019 2420 3045 
Q 2306 3072 2169 3072 
Q 1681 3072 1420 2755 
Q 1159 2438 1159 1844 
L 1159 0 
L 581 0 
L 581 3500 
L 1159 3500 
L 1159 2956 
Q 1341 3275 1631 3429 
Q 1922 3584 2338 3584 
Q 2397 3584 2469 3576 
Q 2541 3569 2628 3553 
L 2631 2963 
z
" transform="scale(0.015625)"/>
       <path id="DejaVuSans-6f" d="M 1959 3097 
Q 1497 3097 1228 2736 
Q 959 2375 959 1747 
Q 959 1119 1226 758 
Q 1494 397 1959 397 
Q 2419 397 2687 759 
Q 2956 1122 2956 1747 
Q 2956 2369 2687 2733 
Q 2419 3097 1959 3097 
z
M 1959 3584 
Q 2709 3584 3137 3096 
Q 3566 2609 3566 1747 
Q 3566 888 3137 398 
Q 2709 -91 1959 -91 
Q 1206 -91 779 398 
Q 353 888 353 1747 
Q 353 2609 779 3096 
Q 1206 3584 1959 3584 
z
" transform="scale(0.015625)"/>
       <path id="DejaVuSans-6d" d="M 3328 2828 
Q 3544 3216 3844 3400 
Q 4144 3584 4550 3584 
Q 5097 3584 5394 3201 
Q 5691 2819 5691 2113 
L 5691 0 
L 5113 0 
L 5113 2094 
Q 5113 2597 4934 2840 
Q 4756 3084 4391 3084 
Q 3944 3084 3684 2787 
Q 3425 2491 3425 1978 
L 3425 0 
L 2847 0 
L 2847 2094 
Q 2847 2600 2669 2842 
Q 2491 3084 2119 3084 
Q 1678 3084 1418 2786 
Q 1159 2488 1159 1978 
L 1159 0 
L 581 0 
L 581 3500 
L 1159 3500 
L 1159 2956 
Q 1356 3278 1631 3431 
Q 1906 3584 2284 3584 
Q 2666 3584 2933 3390 
Q 3200 3197 3328 2828 
z
" transform="scale(0.015625)"/>
       <path id="DejaVuSans-65" d="M 3597 1894 
L 3597 1613 
L 953 1613 
Q 991 1019 1311 708 
Q 1631 397 2203 397 
Q 2534 397 2845 478 
Q 3156 559 3463 722 
L 3463 178 
Q 3153 47 2828 -22 
Q 2503 -91 2169 -91 
Q 1331 -91 842 396 
Q 353 884 353 1716 
Q 353 2575 817 3079 
Q 1281 3584 2069 3584 
Q 2775 3584 3186 3129 
Q 3597 2675 3597 1894 
z
M 3022 2063 
Q 3016 2534 2758 2815 
Q 2500 3097 2075 3097 
Q 1594 3097 1305 2825 
Q 1016 2553 972 2059 
L 3022 2063 
z
" transform="scale(0.015625)"/>
       <path id="DejaVuSans-74" d="M 1172 4494 
L 1172 3500 
L 2356 3500 
L 2356 3053 
L 1172 3053 
L 1172 1153 
Q 1172 725 1289 603 
Q 1406 481 1766 481 
L 2356 481 
L 2356 0 
L 1766 0 
Q 1100 0 847 248 
Q 594 497 594 1153 
L 594 3053 
L 172 3053 
L 172 3500 
L 594 3500 
L 594 4494 
L 1172 4494 
z
" transform="scale(0.015625)"/>
       <path id="DejaVuSans-20" transform="scale(0.015625)"/>
       <path id="DejaVuSans-73" d="M 2834 3397 
L 2834 2853 
Q 2591 2978 2328 3040 
Q 2066 3103 1784 3103 
Q 1356 3103 1142 2972 
Q 928 2841 928 2578 
Q 928 2378 1081 2264 
Q 1234 2150 1697 2047 
L 1894 2003 
Q 2506 1872 2764 1633 
Q 3022 1394 3022 966 
Q 3022 478 2636 193 
Q 2250 -91 1575 -91 
Q 1294 -91 989 -36 
Q 684 19 347 128 
L 347 722 
Q 666 556 975 473 
Q 1284 391 1588 391 
Q 1994 391 2212 530 
Q 2431 669 2431 922 
Q 2431 1156 2273 1281 
Q 2116 1406 1581 1522 
L 1381 1569 
Q 847 1681 609 1914 
Q 372 2147 372 2553 
Q 372 3047 722 3315 
Q 1072 3584 1716 3584 
Q 2034 3584 2315 3537 
Q 2597 3491 2834 3397 
z
" transform="scale(0.015625)"/>
       <path id="DejaVuSans-70" d="M 1159 525 
L 1159 -1331 
L 581 -1331 
L 581 3500 
L 1159 3500 
L 1159 2969 
Q 1341 3281 1617 3432 
Q 1894 3584 2278 3584 
Q 2916 3584 3314 3078 
Q 3713 2572 3713 1747 
Q 3713 922 3314 415 
Q 2916 -91 2278 -91 
Q 1894 -91 1617 61 
Q 1341 213 1159 525 
z
M 3116 1747 
Q 3116 2381 2855 2742 
Q 2594 3103 2138 3103 
Q 1681 3103 1420 2742 
Q 1159 2381 1159 1747 
Q 1159 1113 1420 752 
Q 1681 391 2138 391 
Q 2594 391 2855 752 
Q 3116 1113 3116 1747 
z
" transform="scale(0.015625)"/>
       <path id="DejaVuSans-28" d="M 1984 4856 
Q 1566 4138 1362 3434 
Q 1159 2731 1159 2009 
Q 1159 1288 1364 580 
Q 1569 -128 1984 -844 
L 1484 -844 
Q 1016 -109 783 600 
Q 550 1309 550 2009 
Q 550 2706 781 3412 
Q 1013 4119 1484 4856 
L 1984 4856 
z
" transform="scale(0.015625)"/>
       <path id="DejaVuSans-d7" d="M 4488 3438 
L 3059 2003 
L 4488 575 
L 4116 197 
L 2681 1631 
L 1247 197 
L 878 575 
L 2303 2003 
L 878 3438 
L 1247 3816 
L 2681 2381 
L 4116 3816 
L 4488 3438 
z
" transform="scale(0.015625)"/>
       <path id="DejaVuSans-2076" d="M 1359 3541 
Q 1084 3541 925 3378 
Q 766 3213 766 2928 
Q 766 2647 925 2484 
Q 1084 2319 1359 2319 
Q 1631 2319 1791 2484 
Q 1950 2647 1950 2928 
Q 1950 3213 1791 3378 
Q 1631 3541 1359 3541 
z
M 2166 4647 
L 2166 4325 
Q 2013 4388 1856 4419 
Q 1700 4453 1547 4453 
Q 1147 4453 934 4219 
Q 722 3981 691 3503 
Q 809 3656 988 3738 
Q 1169 3819 1381 3819 
Q 1834 3819 2097 3581 
Q 2359 3341 2359 2928 
Q 2359 2531 2084 2284 
Q 1813 2041 1359 2041 
Q 838 2041 563 2387 
Q 288 2734 288 3397 
Q 288 4016 625 4381 
Q 963 4750 1531 4750 
Q 1684 4750 1841 4725 
Q 1997 4697 2166 4647 
z
" transform="scale(0.015625)"/>
       <path id="DejaVuSans-29" d="M 513 4856 
L 1013 4856 
Q 1481 4119 1714 3412 
Q 1947 2706 1947 2009 
Q 1947 1309 1714 600 
Q 1481 -109 1013 -844 
L 513 -844 
Q 928 -128 1133 580 
Q 1338 1288 1338 2009 
Q 1338 2731 1133 3434 
Q 928 4138 513 4856 
z
" transform="scale(0.015625)"/>
      </defs>
      <use xlink:href="#DejaVuSans-45"/>
      <use xlink:href="#DejaVuSans-6e" x="63.183594"/>
      <use xlink:href="#DejaVuSans-76" x="126.5625"/>
      <use xlink:href="#DejaVuSans-69" x="185.742188"/>
      <use xlink:href="#DejaVuSans-72" x="213.525391"/>
      <use xlink:href="#DejaVuSans-6f" x="252.388672"/>
      <use xlink:href="#DejaVuSans-6e" x="313.570312"/>
      <use xlink:href="#DejaVuSans-6d" x="376.949219"/>
      <use xlink:href="#DejaVuSans-65" x="474.361328"/>
      <use xlink:href="#DejaVuSans-6e" x="535.884766"/>
      <use xlink:href="#DejaVuSans-74" x="599.263672"/>
      <use xlink:href="#DejaVuSans-20" x="638.472656"/>
      <use xlink:href="#DejaVuSans-73" x="670.259766"/>
      <use xlink:href="#DejaVuSans-74" x="722.359375"/>
      <use xlink:href="#DejaVuSans-65" x="761.568359"/>
      <use xlink:href="#DejaVuSans-70" x="823.091797"/>
      <use xlink:href="#DejaVuSans-73" x="886.568359"/>
      <use xlink:href="#DejaVuSans-20" x="938.667969"/>
      <use xlink:href="#DejaVuSans-28" x="970.455078"/>
      <use xlink:href="#DejaVuSans-d7" x="1009.46875"/>
      <use xlink:href="#DejaVuSans-31" x="1093.257812"/>
      <use xlink:href="#DejaVuSans-30" x="1156.880859"/>
      <use xlink:href="#DejaVuSans-2076" x="1220.503906"/>
      <use xlink:href="#DejaVuSans-29" x="1260.591797"/>
     </g>
    </g>
   </g>
   <g id="matplotlib.axis_2">
    <g id="ytick_1">
     <g id="line2d_11">
      <path d="M 59.555 200.120195 
L 412.29 200.120195 
" clip-path="url(#p28b5600b29)" style="fill: none; stroke-dasharray: 2.96,1.28; stroke-dashoffset: 0; stroke: #d3d3d3; stroke-width: 0.8"/>
     </g>
     <g id="line2d_12">
      <defs>
       <path id="m6eeaec21d8" d="M 0 0 
L -3.5 0 
" style="stroke: #000000; stroke-width: 0.8"/>
      </defs>
      <g>
       <use xlink:href="#m6eeaec21d8" x="59.555" y="200.120195" style="stroke: #000000; stroke-width: 0.8"/>
      </g>
     </g>
     <g id="text_7">
      <!-- 0.0 -->
      <g transform="translate(30.290625 205.439101) scale(0.14 -0.14)">
       <defs>
        <path id="DejaVuSans-2e" d="M 684 794 
L 1344 794 
L 1344 0 
L 684 0 
L 684 794 
z
" transform="scale(0.015625)"/>
       </defs>
       <use xlink:href="#DejaVuSans-30"/>
       <use xlink:href="#DejaVuSans-2e" x="63.623047"/>
       <use xlink:href="#DejaVuSans-30" x="95.410156"/>
      </g>
     </g>
    </g>
    <g id="ytick_2">
     <g id="line2d_13">
      <path d="M 59.555 154.129949 
L 412.29 154.129949 
" clip-path="url(#p28b5600b29)" style="fill: none; stroke-dasharray: 2.96,1.28; stroke-dashoffset: 0; stroke: #d3d3d3; stroke-width: 0.8"/>
     </g>
     <g id="line2d_14">
      <g>
       <use xlink:href="#m6eeaec21d8" x="59.555" y="154.129949" style="stroke: #000000; stroke-width: 0.8"/>
      </g>
     </g>
     <g id="text_8">
      <!-- 0.5 -->
      <g transform="translate(30.290625 159.448855) scale(0.14 -0.14)">
       <defs>
        <path id="DejaVuSans-35" d="M 691 4666 
L 3169 4666 
L 3169 4134 
L 1269 4134 
L 1269 2991 
Q 1406 3038 1543 3061 
Q 1681 3084 1819 3084 
Q 2600 3084 3056 2656 
Q 3513 2228 3513 1497 
Q 3513 744 3044 326 
Q 2575 -91 1722 -91 
Q 1428 -91 1123 -41 
Q 819 9 494 109 
L 494 744 
Q 775 591 1075 516 
Q 1375 441 1709 441 
Q 2250 441 2565 725 
Q 2881 1009 2881 1497 
Q 2881 1984 2565 2268 
Q 2250 2553 1709 2553 
Q 1456 2553 1204 2497 
Q 953 2441 691 2322 
L 691 4666 
z
" transform="scale(0.015625)"/>
       </defs>
       <use xlink:href="#DejaVuSans-30"/>
       <use xlink:href="#DejaVuSans-2e" x="63.623047"/>
       <use xlink:href="#DejaVuSans-35" x="95.410156"/>
      </g>
     </g>
    </g>
    <g id="ytick_3">
     <g id="line2d_15">
      <path d="M 59.555 108.139703 
L 412.29 108.139703 
" clip-path="url(#p28b5600b29)" style="fill: none; stroke-dasharray: 2.96,1.28; stroke-dashoffset: 0; stroke: #d3d3d3; stroke-width: 0.8"/>
     </g>
     <g id="line2d_16">
      <g>
       <use xlink:href="#m6eeaec21d8" x="59.555" y="108.139703" style="stroke: #000000; stroke-width: 0.8"/>
      </g>
     </g>
     <g id="text_9">
      <!-- 1.0 -->
      <g transform="translate(30.290625 113.458609) scale(0.14 -0.14)">
       <use xlink:href="#DejaVuSans-31"/>
       <use xlink:href="#DejaVuSans-2e" x="63.623047"/>
       <use xlink:href="#DejaVuSans-30" x="95.410156"/>
      </g>
     </g>
    </g>
    <g id="ytick_4">
     <g id="line2d_17">
      <path d="M 59.555 62.149457 
L 412.29 62.149457 
" clip-path="url(#p28b5600b29)" style="fill: none; stroke-dasharray: 2.96,1.28; stroke-dashoffset: 0; stroke: #d3d3d3; stroke-width: 0.8"/>
     </g>
     <g id="line2d_18">
      <g>
       <use xlink:href="#m6eeaec21d8" x="59.555" y="62.149457" style="stroke: #000000; stroke-width: 0.8"/>
      </g>
     </g>
     <g id="text_10">
      <!-- 1.5 -->
      <g transform="translate(30.290625 67.468363) scale(0.14 -0.14)">
       <use xlink:href="#DejaVuSans-31"/>
       <use xlink:href="#DejaVuSans-2e" x="63.623047"/>
       <use xlink:href="#DejaVuSans-35" x="95.410156"/>
      </g>
     </g>
    </g>
    <g id="ytick_5">
     <g id="line2d_19">
      <path d="M 59.555 16.159211 
L 412.29 16.159211 
" clip-path="url(#p28b5600b29)" style="fill: none; stroke-dasharray: 2.96,1.28; stroke-dashoffset: 0; stroke: #d3d3d3; stroke-width: 0.8"/>
     </g>
     <g id="line2d_20">
      <g>
       <use xlink:href="#m6eeaec21d8" x="59.555" y="16.159211" style="stroke: #000000; stroke-width: 0.8"/>
      </g>
     </g>
     <g id="text_11">
      <!-- 2.0 -->
      <g transform="translate(30.290625 21.478117) scale(0.14 -0.14)">
       <use xlink:href="#DejaVuSans-32"/>
       <use xlink:href="#DejaVuSans-2e" x="63.623047"/>
       <use xlink:href="#DejaVuSans-30" x="95.410156"/>
      </g>
     </g>
    </g>
    <g id="text_12">
     <!-- Number of Rocks Dumped -->
     <g transform="translate(22.963125 213.010953) rotate(-90) scale(0.16 -0.16)">
      <defs>
       <path id="DejaVuSans-4e" d="M 628 4666 
L 1478 4666 
L 3547 763 
L 3547 4666 
L 4159 4666 
L 4159 0 
L 3309 0 
L 1241 3903 
L 1241 0 
L 628 0 
L 628 4666 
z
" transform="scale(0.015625)"/>
       <path id="DejaVuSans-75" d="M 544 1381 
L 544 3500 
L 1119 3500 
L 1119 1403 
Q 1119 906 1312 657 
Q 1506 409 1894 409 
Q 2359 409 2629 706 
Q 2900 1003 2900 1516 
L 2900 3500 
L 3475 3500 
L 3475 0 
L 2900 0 
L 2900 538 
Q 2691 219 2414 64 
Q 2138 -91 1772 -91 
Q 1169 -91 856 284 
Q 544 659 544 1381 
z
M 1991 3584 
L 1991 3584 
z
" transform="scale(0.015625)"/>
       <path id="DejaVuSans-62" d="M 3116 1747 
Q 3116 2381 2855 2742 
Q 2594 3103 2138 3103 
Q 1681 3103 1420 2742 
Q 1159 2381 1159 1747 
Q 1159 1113 1420 752 
Q 1681 391 2138 391 
Q 2594 391 2855 752 
Q 3116 1113 3116 1747 
z
M 1159 2969 
Q 1341 3281 1617 3432 
Q 1894 3584 2278 3584 
Q 2916 3584 3314 3078 
Q 3713 2572 3713 1747 
Q 3713 922 3314 415 
Q 2916 -91 2278 -91 
Q 1894 -91 1617 61 
Q 1341 213 1159 525 
L 1159 0 
L 581 0 
L 581 4863 
L 1159 4863 
L 1159 2969 
z
" transform="scale(0.015625)"/>
       <path id="DejaVuSans-66" d="M 2375 4863 
L 2375 4384 
L 1825 4384 
Q 1516 4384 1395 4259 
Q 1275 4134 1275 3809 
L 1275 3500 
L 2222 3500 
L 2222 3053 
L 1275 3053 
L 1275 0 
L 697 0 
L 697 3053 
L 147 3053 
L 147 3500 
L 697 3500 
L 697 3744 
Q 697 4328 969 4595 
Q 1241 4863 1831 4863 
L 2375 4863 
z
" transform="scale(0.015625)"/>
       <path id="DejaVuSans-52" d="M 2841 2188 
Q 3044 2119 3236 1894 
Q 3428 1669 3622 1275 
L 4263 0 
L 3584 0 
L 2988 1197 
Q 2756 1666 2539 1819 
Q 2322 1972 1947 1972 
L 1259 1972 
L 1259 0 
L 628 0 
L 628 4666 
L 2053 4666 
Q 2853 4666 3247 4331 
Q 3641 3997 3641 3322 
Q 3641 2881 3436 2590 
Q 3231 2300 2841 2188 
z
M 1259 4147 
L 1259 2491 
L 2053 2491 
Q 2509 2491 2742 2702 
Q 2975 2913 2975 3322 
Q 2975 3731 2742 3939 
Q 2509 4147 2053 4147 
L 1259 4147 
z
" transform="scale(0.015625)"/>
       <path id="DejaVuSans-63" d="M 3122 3366 
L 3122 2828 
Q 2878 2963 2633 3030 
Q 2388 3097 2138 3097 
Q 1578 3097 1268 2742 
Q 959 2388 959 1747 
Q 959 1106 1268 751 
Q 1578 397 2138 397 
Q 2388 397 2633 464 
Q 2878 531 3122 666 
L 3122 134 
Q 2881 22 2623 -34 
Q 2366 -91 2075 -91 
Q 1284 -91 818 406 
Q 353 903 353 1747 
Q 353 2603 823 3093 
Q 1294 3584 2113 3584 
Q 2378 3584 2631 3529 
Q 2884 3475 3122 3366 
z
" transform="scale(0.015625)"/>
       <path id="DejaVuSans-6b" d="M 581 4863 
L 1159 4863 
L 1159 1991 
L 2875 3500 
L 3609 3500 
L 1753 1863 
L 3688 0 
L 2938 0 
L 1159 1709 
L 1159 0 
L 581 0 
L 581 4863 
z
" transform="scale(0.015625)"/>
       <path id="DejaVuSans-44" d="M 1259 4147 
L 1259 519 
L 2022 519 
Q 2988 519 3436 956 
Q 3884 1394 3884 2338 
Q 3884 3275 3436 3711 
Q 2988 4147 2022 4147 
L 1259 4147 
z
M 628 4666 
L 1925 4666 
Q 3281 4666 3915 4102 
Q 4550 3538 4550 2338 
Q 4550 1131 3912 565 
Q 3275 0 1925 0 
L 628 0 
L 628 4666 
z
" transform="scale(0.015625)"/>
       <path id="DejaVuSans-64" d="M 2906 2969 
L 2906 4863 
L 3481 4863 
L 3481 0 
L 2906 0 
L 2906 525 
Q 2725 213 2448 61 
Q 2172 -91 1784 -91 
Q 1150 -91 751 415 
Q 353 922 353 1747 
Q 353 2572 751 3078 
Q 1150 3584 1784 3584 
Q 2172 3584 2448 3432 
Q 2725 3281 2906 2969 
z
M 947 1747 
Q 947 1113 1208 752 
Q 1469 391 1925 391 
Q 2381 391 2643 752 
Q 2906 1113 2906 1747 
Q 2906 2381 2643 2742 
Q 2381 3103 1925 3103 
Q 1469 3103 1208 2742 
Q 947 2381 947 1747 
z
" transform="scale(0.015625)"/>
      </defs>
      <use xlink:href="#DejaVuSans-4e"/>
      <use xlink:href="#DejaVuSans-75" x="74.804688"/>
      <use xlink:href="#DejaVuSans-6d" x="138.183594"/>
      <use xlink:href="#DejaVuSans-62" x="235.595703"/>
      <use xlink:href="#DejaVuSans-65" x="299.072266"/>
      <use xlink:href="#DejaVuSans-72" x="360.595703"/>
      <use xlink:href="#DejaVuSans-20" x="401.708984"/>
      <use xlink:href="#DejaVuSans-6f" x="433.496094"/>
      <use xlink:href="#DejaVuSans-66" x="494.677734"/>
      <use xlink:href="#DejaVuSans-20" x="529.882812"/>
      <use xlink:href="#DejaVuSans-52" x="561.669922"/>
      <use xlink:href="#DejaVuSans-6f" x="626.652344"/>
      <use xlink:href="#DejaVuSans-63" x="687.833984"/>
      <use xlink:href="#DejaVuSans-6b" x="742.814453"/>
      <use xlink:href="#DejaVuSans-73" x="800.724609"/>
      <use xlink:href="#DejaVuSans-20" x="852.824219"/>
      <use xlink:href="#DejaVuSans-44" x="884.611328"/>
      <use xlink:href="#DejaVuSans-75" x="961.613281"/>
      <use xlink:href="#DejaVuSans-6d" x="1024.992188"/>
      <use xlink:href="#DejaVuSans-70" x="1122.404297"/>
      <use xlink:href="#DejaVuSans-65" x="1185.880859"/>
      <use xlink:href="#DejaVuSans-64" x="1247.404297"/>
     </g>
    </g>
   </g>
   <g id="line2d_21">
    <path d="M 61.402235 200.120195 
L 65.08739 200.120195 
L 68.686914 200.120195 
L 72.220864 200.120195 
L 75.656061 200.120195 
L 79.101501 200.120195 
L 82.586921 200.120195 
L 85.979002 200.120195 
L 89.357253 200.120195 
L 92.626293 200.120195 
L 95.887882 200.120195 
L 99.154786 200.120195 
L 102.424658 200.120195 
L 105.846811 200.120195 
L 109.286634 200.120195 
L 112.702562 200.120195 
L 116.221584 200.120195 
L 119.791993 200.120195 
L 123.341746 200.120195 
L 126.903522 199.669004 
L 130.460496 199.966537 
L 134.003197 200.008624 
L 137.525011 198.250348 
L 140.973906 189.942331 
L 144.361341 192.584922 
L 147.751756 192.042011 
L 151.148117 192.462669 
L 154.516792 195.94108 
L 157.874511 194.814458 
L 161.214672 192.910652 
L 164.581685 189.472663 
L 167.972985 190.029102 
L 171.358101 179.907076 
L 174.753927 168.67782 
L 178.180016 177.675157 
L 181.571368 175.591225 
L 185.017893 176.729897 
L 188.629081 189.163097 
L 192.245006 185.739976 
L 195.868445 181.732233 
L 199.479573 177.725837 
L 203.078904 183.19495 
L 206.667615 191.445892 
L 210.241175 190.610266 
L 213.792373 179.365504 
L 217.343148 167.286896 
L 220.914136 176.658317 
L 224.486075 178.388333 
L 228.045801 174.842881 
L 231.593252 168.815 
L 235.101786 172.744168 
L 238.650764 161.75522 
L 242.212338 156.167439 
L 245.809749 160.913395 
L 249.351461 165.005894 
L 252.869942 163.732122 
L 256.378123 147.125089 
L 259.917754 158.056628 
L 263.448248 154.881273 
L 266.936515 148.765254 
L 270.44627 151.363375 
L 274.000488 159.247411 
L 277.551977 163.149946 
L 281.088619 150.244772 
L 284.580824 131.739113 
L 288.098762 122.146369 
L 291.666727 110.493158 
L 295.200344 128.650639 
L 298.724644 120.838201 
L 302.231669 112.857263 
L 305.759706 117.330743 
L 309.291894 100.529113 
L 312.832762 123.040616 
L 316.348119 123.209128 
L 319.841108 100.88391 
L 323.333851 98.313463 
L 326.833621 100.633708 
L 330.371129 93.656265 
L 333.916607 102.538213 
L 337.411602 112.580206 
L 340.910435 130.058126 
L 344.418482 124.695198 
L 347.927483 114.877394 
L 351.441274 110.745662 
L 354.952445 110.491581 
L 358.428921 111.772904 
L 361.882163 112.124662 
L 365.361581 118.976533 
L 368.537679 117.937443 
L 371.688382 116.762368 
L 375.202451 120.026976 
L 378.779763 125.415198 
L 382.507353 105.254128 
L 386.212501 108.217066 
L 389.908721 114.956589 
L 393.568679 115.179108 
L 397.311775 108.406692 
L 401.07277 94.690455 
L 404.809273 92.051842 
L 408.477754 96.868465 
" clip-path="url(#p28b5600b29)" style="fill: none; stroke: #ff7f0e; stroke-width: 2; stroke-linecap: square"/>
   </g>
   <g id="line2d_22">
    <path d="M 61.444083 200.120195 
L 65.140251 200.120195 
L 68.744969 200.120195 
L 72.284819 200.120195 
L 75.749204 200.120195 
L 79.131295 200.120195 
L 82.51842 200.120195 
L 85.864373 200.120195 
L 89.22703 200.120195 
L 92.510607 200.120195 
L 95.778 200.120195 
L 98.988719 200.120195 
L 102.188404 200.120195 
L 105.35789 200.120195 
L 108.546814 200.120195 
L 111.819181 200.120195 
L 115.144656 200.120195 
L 118.502458 200.120195 
L 121.866983 200.120195 
L 125.305226 200.120195 
L 128.766967 200.120195 
L 132.224215 200.120195 
L 135.695886 200.120195 
L 139.14607 200.120195 
L 142.649005 200.120195 
L 146.173257 200.120195 
L 149.660755 200.120195 
L 153.146184 198.30135 
L 156.622409 199.615666 
L 160.097969 196.785841 
L 163.570093 197.056797 
L 167.050664 197.36399 
L 170.499476 196.741875 
L 173.942989 194.070102 
L 177.394338 185.52673 
L 180.878335 189.377518 
L 184.332018 187.488225 
L 187.773647 179.678461 
L 191.250632 182.888911 
L 194.719886 189.153203 
L 198.180695 190.362359 
L 201.706327 179.527329 
L 205.295134 178.469265 
L 208.909372 177.08102 
L 212.56 179.706923 
L 216.210634 170.515877 
L 219.797168 160.033924 
L 223.353563 154.354996 
L 226.903211 150.76313 
L 230.444448 146.22352 
L 233.995002 145.245341 
L 237.524012 136.28228 
L 241.055042 133.226254 
L 244.598308 121.26461 
L 248.139082 111.461139 
L 251.702194 112.269805 
L 255.256547 106.720826 
L 258.873351 103.587595 
L 262.469827 98.011183 
L 266.023949 112.158108 
L 269.580249 112.958032 
L 273.130309 81.445015 
L 276.7141 79.167231 
L 280.289195 65.264666 
L 283.858514 74.896198 
L 287.451402 83.290254 
L 291.017217 74.849641 
L 294.566497 63.362968 
L 298.123359 60.994225 
L 301.700168 57.397026 
L 305.232201 71.841683 
L 308.815696 78.844336 
L 312.371526 70.621239 
L 315.89964 68.962078 
L 319.404602 51.816899 
L 322.888837 57.163577 
L 326.402797 63.461248 
L 329.896964 61.453257 
L 333.395483 62.573778 
L 336.875134 69.880968 
L 340.33197 67.825327 
L 343.802032 73.446653 
L 347.297843 72.94091 
L 350.813489 75.476918 
L 354.347003 68.690822 
L 357.856023 69.115187 
L 361.36219 68.619626 
L 364.874248 55.694281 
L 368.366513 62.100524 
L 371.884156 72.324044 
L 375.419964 56.109113 
L 378.920813 52.971551 
L 382.442754 48.397504 
L 385.943905 44.307213 
L 389.44029 49.959088 
L 392.930719 62.071286 
L 396.402001 60.446863 
L 399.883141 43.416347 
L 403.353009 48.978351 
L 406.857369 62.81811 
L 410.368998 68.055447 
" clip-path="url(#p28b5600b29)" style="fill: none; stroke: #17becf; stroke-width: 2; stroke-linecap: square"/>
   </g>
   <g id="line2d_23">
    <path d="M 61.53888 200.120195 
L 65.527174 200.120195 
L 69.466854 200.120195 
L 73.335347 200.120195 
L 77.151687 200.120195 
L 80.914047 200.120195 
L 84.618198 200.120195 
L 88.276825 200.120195 
L 91.918189 200.120195 
L 95.51573 200.120195 
L 99.099419 200.120195 
L 102.642702 200.120195 
L 106.199243 200.120195 
L 109.766231 200.120195 
L 113.313546 200.120195 
L 116.82098 200.120195 
L 120.298577 200.120195 
L 123.825265 200.120195 
L 127.327916 200.120195 
L 130.792757 200.120195 
L 134.254774 200.120195 
L 137.696997 200.120195 
L 141.164598 200.120195 
L 144.654118 200.120195 
L 148.164492 200.120195 
L 151.6424 200.120195 
L 155.083407 200.120195 
L 158.531407 200.120195 
L 161.996959 200.120195 
L 165.461881 200.120195 
L 168.9302 200.120195 
L 172.400379 200.120195 
L 175.837239 200.120195 
L 179.295046 200.120195 
L 182.769468 200.120195 
L 186.237631 200.120195 
L 189.69894 200.120195 
L 193.152162 200.120195 
L 196.590222 200.120195 
L 200.057009 200.120195 
L 203.54245 200.120195 
L 207.031101 200.120195 
L 210.497059 200.120195 
L 213.941462 197.290407 
L 217.409697 198.740178 
L 220.884981 197.096569 
L 224.367568 196.980104 
L 227.841794 193.258619 
L 231.304932 192.633429 
L 234.760979 193.621267 
L 238.23668 193.816777 
L 241.715734 190.990537 
L 245.202588 187.793286 
L 248.694018 177.085867 
L 252.148013 180.272547 
L 255.611927 181.440296 
L 259.075959 172.230419 
L 262.541854 170.888511 
L 266.010264 172.028316 
L 269.47541 165.111842 
L 272.907572 165.190759 
L 276.378018 174.334442 
L 279.859928 162.843761 
L 283.323579 140.789769 
L 286.785627 116.515821 
L 290.240284 118.769613 
L 293.696287 109.794632 
L 297.164189 110.829813 
L 300.626882 115.249989 
L 304.080112 93.238915 
L 307.523506 96.170913 
L 310.970067 84.104742 
L 314.428886 77.36429 
L 317.876304 82.301037 
L 321.345011 101.237644 
L 324.809135 95.39889 
L 328.255303 72.801513 
L 331.676949 72.438222 
L 335.118124 79.330827 
L 338.571458 75.93768 
L 342.025734 83.976949 
L 345.478462 81.929032 
L 348.935196 76.708114 
L 352.359509 81.469218 
L 355.814733 86.936127 
L 359.2629 83.135278 
L 362.716672 68.800407 
L 366.172591 61.496638 
L 369.605181 51.92606 
L 373.04118 49.892061 
L 376.489158 59.300862 
L 379.932295 55.545483 
L 383.375517 73.835948 
L 386.813237 67.680117 
L 390.339908 74.001255 
L 393.943902 72.253943 
L 397.570058 62.707672 
L 401.199468 71.266599 
L 404.805878 70.723458 
L 408.379503 57.471685 
" clip-path="url(#p28b5600b29)" style="fill: none; stroke: #e377c2; stroke-width: 2; stroke-linecap: square"/>
   </g>
   <g id="line2d_24">
    <path d="M 61.457658 200.120195 
L 65.189168 200.120195 
L 68.808011 200.120195 
L 72.384379 200.120195 
L 75.82967 200.120195 
L 79.266246 200.120195 
L 82.622209 200.120195 
L 86.025431 200.120195 
L 89.535923 200.120195 
L 92.946151 200.120195 
L 96.304548 200.120195 
L 99.534648 200.120195 
L 102.635257 200.120195 
L 105.723871 200.120195 
L 108.787827 200.120195 
L 111.846166 200.120195 
L 114.898508 200.120195 
L 118.020131 200.120195 
L 121.178062 200.120195 
L 124.601694 200.120195 
L 128.115732 200.120195 
L 131.667861 200.120195 
L 135.308899 200.120195 
L 138.966594 200.120195 
L 142.629515 200.120195 
L 146.257065 200.120195 
L 149.865642 200.120195 
L 153.481185 200.120195 
L 157.109953 200.120195 
L 160.734632 198.886917 
L 164.378947 196.823147 
L 167.945677 196.412152 
L 171.496335 194.892318 
L 175.053102 195.880006 
L 178.603117 194.005404 
L 182.178609 192.175345 
L 185.794629 194.811564 
L 189.398901 184.929997 
L 192.987357 187.009442 
L 196.51072 184.825471 
L 200.086251 183.771245 
L 203.698171 192.814318 
L 207.288563 193.926201 
L 210.858581 189.555204 
L 214.443788 187.923585 
L 218.049515 188.9372 
L 221.657501 188.753096 
L 225.271914 188.19223 
L 228.864007 191.531786 
L 232.491135 194.156626 
L 236.116847 194.737809 
L 239.730237 196.540577 
L 243.316044 192.99482 
L 246.914765 192.135046 
L 250.517827 176.246803 
L 254.134053 171.581802 
L 257.76578 178.151704 
L 261.317341 177.772535 
L 264.881934 179.991 
L 268.414219 176.188319 
L 271.977647 182.723349 
L 275.516973 181.474092 
L 279.059429 165.079622 
L 282.612004 178.382624 
L 286.163163 176.594682 
L 289.698256 185.14631 
L 293.228556 186.181847 
L 296.747321 181.123631 
L 300.313003 167.449881 
L 303.866965 147.349326 
L 307.41682 157.296568 
L 310.940537 164.593309 
L 314.444382 159.117111 
L 317.955485 152.560265 
L 321.48067 156.538911 
L 325.017874 153.915405 
L 328.556886 146.227547 
L 332.076454 142.176414 
L 335.601466 126.158166 
L 339.125734 137.097031 
L 342.656371 143.312806 
L 346.168982 146.186982 
L 349.664244 130.537618 
L 353.184292 131.814482 
L 356.741858 128.766328 
L 360.289563 124.274482 
L 363.820517 128.575888 
L 367.33639 129.611302 
L 370.865974 128.048443 
L 374.395377 123.650013 
L 377.918358 117.710861 
L 381.400967 107.010845 
L 384.722608 127.664623 
L 387.943078 111.197658 
L 391.488425 113.233946 
L 395.119462 115.273732 
L 398.874261 104.665024 
L 402.602939 108.961704 
L 406.375823 110.88617 
L 410.166298 125.716527 
" clip-path="url(#p28b5600b29)" style="fill: none; stroke-dasharray: 7.4,3.2; stroke-dashoffset: 0; stroke: #7f7f7f; stroke-width: 2"/>
   </g>
   <g id="patch_3">
    <path d="M 59.555 201.04 
L 59.555 15.239406 
" style="fill: none; stroke: #000000; stroke-width: 0.8; stroke-linejoin: miter; stroke-linecap: square"/>
   </g>
   <g id="patch_4">
    <path d="M 412.29 201.04 
L 412.29 15.239406 
" style="fill: none; stroke: #000000; stroke-width: 0.8; stroke-linejoin: miter; stroke-linecap: square"/>
   </g>
   <g id="patch_5">
    <path d="M 59.555 201.04 
L 412.29 201.04 
" style="fill: none; stroke: #000000; stroke-width: 0.8; stroke-linejoin: miter; stroke-linecap: square"/>
   </g>
   <g id="patch_6">
    <path d="M 59.555 15.239406 
L 412.29 15.239406 
" style="fill: none; stroke: #000000; stroke-width: 0.8; stroke-linejoin: miter; stroke-linecap: square"/>
   </g>
  </g>
 </g>
 <defs>
  <clipPath id="p28b5600b29">
   <rect x="59.555" y="15.239406" width="352.735" height="185.800594"/>
  </clipPath>
 </defs>
</svg>
