<?xml version="1.0" encoding="utf-8" standalone="no"?>
<!DOCTYPE svg PUBLIC "-//W3C//DTD SVG 1.1//EN"
  "http://www.w3.org/Graphics/SVG/1.1/DTD/svg11.dtd">
<svg xmlns:xlink="http://www.w3.org/1999/xlink" width="432pt" height="252pt" viewBox="0 0 432 252" xmlns="http://www.w3.org/2000/svg" version="1.1">
 <metadata>
  <rdf:RDF xmlns:dc="http://purl.org/dc/elements/1.1/" xmlns:cc="http://creativecommons.org/ns#" xmlns:rdf="http://www.w3.org/1999/02/22-rdf-syntax-ns#">
   <cc:Work>
    <dc:type rdf:resource="http://purl.org/dc/dcmitype/StillImage"/>
    <dc:date>2023-09-25T00:26:49.164155</dc:date>
    <dc:format>image/svg+xml</dc:format>
    <dc:creator>
     <cc:Agent>
      <dc:title>Matplotlib v3.7.2, https://matplotlib.org/</dc:title>
     </cc:Agent>
    </dc:creator>
   </cc:Work>
  </rdf:RDF>
 </metadata>
 <defs>
  <style type="text/css">*{stroke-linejoin: round; stroke-linecap: butt}</style>
 </defs>
 <g id="figure_1">
  <g id="patch_1">
   <path d="M 0 252 
L 432 252 
L 432 0 
L 0 0 
z
" style="fill: #ffffff"/>
  </g>
  <g id="axes_1">
   <g id="patch_2">
    <path d="M 46.19 201.04 
L 412.29 201.04 
L 412.29 15.557483 
L 46.19 15.557483 
z
" style="fill: #ffffff"/>
   </g>
   <g id="PolyCollection_1">
    <defs>
     <path id="m3f2380030c" d="M 49.711233 -65.074566 
L 49.711233 -51.574181 
L 56.890706 -59.563505 
L 64.405503 -62.292071 
L 71.851001 -63.649967 
L 79.039447 -57.674617 
L 86.076012 -73.272947 
L 93.334037 -76.971296 
L 100.579388 -59.15306 
L 107.775866 -58.663756 
L 115.141524 -99.576178 
L 122.436006 -107.087141 
L 129.594894 -96.828476 
L 136.760255 -94.246232 
L 143.816938 -125.834048 
L 151.171477 -130.154534 
L 158.65338 -85.56004 
L 165.66262 -71.694671 
L 172.897722 -119.886184 
L 180.463557 -124.410321 
L 187.76391 -95.69935 
L 194.90095 -87.199997 
L 202.326181 -67.174906 
L 209.743517 -69.150428 
L 216.996179 -111.621087 
L 224.5774 -101.212393 
L 232.04938 -78.294236 
L 239.803014 -93.594152 
L 246.959499 -74.128317 
L 254.419229 -120.365874 
L 261.534898 -117.534745 
L 268.569432 -103.534716 
L 276.169179 -97.927677 
L 283.38646 -58.534864 
L 290.648879 -59.233598 
L 298.102188 -109.537517 
L 305.406704 -72.743385 
L 312.814627 -120.227722 
L 320.275522 -67.214695 
L 327.541538 -111.182633 
L 334.877453 -111.762509 
L 342.270106 -104.191426 
L 349.531764 -102.170154 
L 356.640922 -109.806761 
L 364.025696 -109.982821 
L 371.626166 -116.02463 
L 379.234958 -111.097094 
L 386.578808 -113.893522 
L 393.911559 -62.439087 
L 401.27986 -108.651694 
L 408.608185 -111.610746 
L 408.608185 -167.960132 
L 408.608185 -167.960132 
L 401.27986 -168.905916 
L 393.911559 -168.789004 
L 386.578808 -158.361201 
L 379.234958 -169.566595 
L 371.626166 -162.669996 
L 364.025696 -166.459146 
L 356.640922 -169.919994 
L 349.531764 -171.617046 
L 342.270106 -172.381653 
L 334.877453 -167.995587 
L 327.541538 -170.014384 
L 320.275522 -166.640886 
L 312.814627 -167.173317 
L 305.406704 -171.027848 
L 298.102188 -171.996342 
L 290.648879 -168.671537 
L 283.38646 -165.061283 
L 276.169179 -170.905916 
L 268.569432 -171.106414 
L 261.534898 -169.625234 
L 254.419229 -182.305332 
L 246.959499 -208.364449 
L 239.803014 -213.355215 
L 232.04938 -216.223898 
L 224.5774 -211.426812 
L 216.996179 -220.005662 
L 209.743517 -202.191233 
L 202.326181 -221.513864 
L 194.90095 -218.202457 
L 187.76391 -214.179315 
L 180.463557 -218.178005 
L 172.897722 -225.545665 
L 165.66262 -217.222762 
L 158.65338 -212.143313 
L 151.171477 -202.656703 
L 143.816938 -186.765005 
L 136.760255 -167.719072 
L 129.594894 -167.760073 
L 122.436006 -163.990263 
L 115.141524 -164.850742 
L 107.775866 -162.918576 
L 100.579388 -153.583535 
L 93.334037 -135.414565 
L 86.076012 -116.560523 
L 79.039447 -87.900779 
L 71.851001 -82.899349 
L 64.405503 -81.877316 
L 56.890706 -75.436899 
L 49.711233 -65.074566 
z
" style="stroke: #ff7f0e; stroke-opacity: 0.1"/>
    </defs>
    <g clip-path="url(#p967b19cd79)">
     <use xlink:href="#m3f2380030c" x="0" y="252" style="fill: #ff7f0e; fill-opacity: 0.1; stroke: #ff7f0e; stroke-opacity: 0.1"/>
    </g>
   </g>
   <g id="PolyCollection_2">
    <defs>
     <path id="medee84b31c" d="M 49.787903 -61.623773 
L 49.787903 -51.574181 
L 56.449337 -55.275803 
L 63.543242 -61.102078 
L 70.608148 -72.655894 
L 78.210733 -80.19547 
L 85.211604 -92.833177 
L 92.747932 -102.019749 
L 99.453936 -104.2275 
L 106.408735 -121.652005 
L 113.725078 -130.412529 
L 120.859098 -145.488592 
L 127.767037 -139.460721 
L 135.034623 -143.464953 
L 142.618496 -143.093062 
L 149.834386 -121.758449 
L 157.552044 -150.14861 
L 165.360352 -106.50025 
L 172.635625 -148.295737 
L 179.798743 -138.224625 
L 187.000716 -106.937859 
L 194.056858 -127.026028 
L 201.164534 -128.673761 
L 208.745166 -100.087241 
L 216.349571 -113.338972 
L 224.047024 -133.990644 
L 231.94422 -126.100812 
L 239.263638 -130.499979 
L 246.763655 -112.996958 
L 254.313925 -132.833355 
L 261.483341 -128.626967 
L 268.581303 -196.315867 
L 275.903612 -201.697132 
L 282.957224 -184.155228 
L 290.176776 -208.09814 
L 297.850079 -156.510604 
L 305.126774 -161.492313 
L 312.450398 -173.646964 
L 319.737392 -192.426343 
L 327.010694 -178.131713 
L 334.285694 -171.629774 
L 341.397655 -163.363559 
L 349.002554 -151.524727 
L 356.658815 -198.313877 
L 364.315715 -175.688754 
L 371.92661 -180.728525 
L 379.30897 -180.725924 
L 386.452082 -176.137399 
L 393.676468 -126.543351 
L 400.908473 -136.815493 
L 408.494194 -151.43646 
L 408.494194 -231.597539 
L 408.494194 -231.597539 
L 400.908473 -232.919 
L 393.676468 -231.602625 
L 386.452082 -233.132107 
L 379.30897 -232.613224 
L 371.92661 -237.078673 
L 364.315715 -235.002637 
L 356.658815 -233.549288 
L 349.002554 -225.06763 
L 341.397655 -232.257022 
L 334.285694 -232.120499 
L 327.010694 -230.549924 
L 319.737392 -231.223551 
L 312.450398 -232.793709 
L 305.126774 -232.612145 
L 297.850079 -232.383475 
L 290.176776 -229.412954 
L 282.957224 -228.566468 
L 275.903612 -232.525673 
L 268.581303 -228.359134 
L 261.483341 -232.748551 
L 254.313925 -224.403705 
L 246.763655 -228.601049 
L 239.263638 -226.386696 
L 231.94422 -228.515031 
L 224.047024 -226.420336 
L 216.349571 -228.428325 
L 208.745166 -224.252468 
L 201.164534 -223.075642 
L 194.056858 -224.223845 
L 187.000716 -226.474847 
L 179.798743 -220.032559 
L 172.635625 -216.341051 
L 165.360352 -219.419642 
L 157.552044 -220.782266 
L 149.834386 -215.74615 
L 142.618496 -222.975942 
L 135.034623 -221.592571 
L 127.767037 -220.6051 
L 120.859098 -212.870356 
L 113.725078 -204.687269 
L 106.408735 -165.471527 
L 99.453936 -155.923247 
L 92.747932 -156.86938 
L 85.211604 -141.448214 
L 78.210733 -139.536875 
L 70.608148 -88.821897 
L 63.543242 -84.371621 
L 56.449337 -72.926825 
L 49.787903 -61.623773 
z
" style="stroke: #17becf; stroke-opacity: 0.1"/>
    </defs>
    <g clip-path="url(#p967b19cd79)">
     <use xlink:href="#medee84b31c" x="0" y="252" style="fill: #17becf; fill-opacity: 0.1; stroke: #17becf; stroke-opacity: 0.1"/>
    </g>
   </g>
   <g id="PolyCollection_3">
    <defs>
     <path id="m404fd89786" d="M 51.867158 -67.857939 
L 51.867158 -51.574181 
L 63.31646 -63.179285 
L 74.717416 -71.389967 
L 85.860776 -93.17777 
L 98.006752 -138.320364 
L 109.342409 -143.237071 
L 120.76466 -138.880271 
L 131.989516 -156.972714 
L 142.853175 -107.3948 
L 152.374251 -142.90019 
L 158.397269 -137.086923 
L 164.177584 -130.633239 
L 169.759794 -119.013147 
L 175.261559 -133.971861 
L 181.309634 -140.616792 
L 187.02805 -117.007537 
L 192.867702 -123.953639 
L 198.709032 -141.619016 
L 204.362158 -120.569566 
L 210.117982 -92.683044 
L 215.814277 -93.933057 
L 221.620712 -119.817764 
L 227.591292 -84.081904 
L 233.42893 -80.886994 
L 239.465875 -151.996529 
L 245.351836 -92.071667 
L 251.662786 -67.147479 
L 257.39347 -74.603498 
L 263.14979 -134.938033 
L 268.882565 -127.33993 
L 274.896018 -112.023775 
L 283.768792 -92.32958 
L 294.972252 -72.640157 
L 306.504266 -88.462908 
L 318.157769 -82.906548 
L 326.595407 -94.373515 
L 332.391673 -113.865417 
L 338.332897 -103.007876 
L 343.971732 -96.239261 
L 349.466701 -94.215921 
L 355.285605 -91.224639 
L 361.141271 -88.206671 
L 366.983854 -83.972561 
L 372.78574 -134.208541 
L 378.830433 -124.799006 
L 384.864245 -123.705527 
L 390.627588 -122.682357 
L 396.829858 -124.403271 
L 402.625554 -120.86042 
L 408.708215 -160.566156 
L 408.708215 -232.970405 
L 408.708215 -232.970405 
L 402.625554 -217.388664 
L 396.829858 -220.896963 
L 390.627588 -223.662391 
L 384.864245 -227.585215 
L 378.830433 -229.709908 
L 372.78574 -228.457108 
L 366.983854 -226.568365 
L 361.141271 -233.736217 
L 355.285605 -232.17343 
L 349.466701 -229.338281 
L 343.971732 -232.308192 
L 338.332897 -232.753975 
L 332.391673 -231.251667 
L 326.595407 -225.443124 
L 318.157769 -226.905565 
L 306.504266 -231.59431 
L 294.972252 -235.797431 
L 283.768792 -233.209 
L 274.896018 -232.439833 
L 268.882565 -232.576567 
L 263.14979 -228.576252 
L 257.39347 -220.016075 
L 251.662786 -225.227339 
L 245.351836 -215.947079 
L 239.465875 -218.721278 
L 233.42893 -220.176935 
L 227.591292 -211.63166 
L 221.620712 -215.012269 
L 215.814277 -227.627776 
L 210.117982 -221.337928 
L 204.362158 -229.62311 
L 198.709032 -228.154973 
L 192.867702 -226.912135 
L 187.02805 -232.272439 
L 181.309634 -221.474956 
L 175.261559 -215.047099 
L 169.759794 -219.76531 
L 164.177584 -220.353237 
L 158.397269 -217.729202 
L 152.374251 -183.580999 
L 142.853175 -166.96106 
L 131.989516 -167.938032 
L 120.76466 -170.371757 
L 109.342409 -168.446212 
L 98.006752 -162.096981 
L 85.860776 -147.310868 
L 74.717416 -121.154009 
L 63.31646 -88.617194 
L 51.867158 -67.857939 
z
" style="stroke: #e377c2; stroke-opacity: 0.1"/>
    </defs>
    <g clip-path="url(#p967b19cd79)">
     <use xlink:href="#m404fd89786" x="0" y="252" style="fill: #e377c2; fill-opacity: 0.1; stroke: #e377c2; stroke-opacity: 0.1"/>
    </g>
   </g>
   <g id="PolyCollection_4">
    <defs>
     <path id="m4d9d765e05" d="M 49.776035 -60.539598 
L 49.776035 -51.574181 
L 56.891272 -54.512434 
L 63.656069 -53.62208 
L 70.492223 -58.764018 
L 77.51855 -58.883365 
L 84.803395 -66.0305 
L 92.316133 -77.095756 
L 99.956945 -82.85282 
L 107.100945 -70.094707 
L 114.26452 -69.906782 
L 121.351537 -95.214057 
L 128.752435 -83.797395 
L 136.270017 -63.527602 
L 144.031145 -94.499941 
L 151.440924 -114.601529 
L 158.659003 -126.284575 
L 165.916039 -96.281606 
L 173.394903 -95.946102 
L 180.643745 -129.23752 
L 188.151508 -115.077448 
L 195.516289 -106.269191 
L 202.965471 -95.728449 
L 210.255438 -86.302492 
L 217.362523 -69.770803 
L 224.539591 -66.223964 
L 231.857977 -104.016302 
L 239.214825 -76.668064 
L 246.518839 -88.163011 
L 254.082398 -74.104361 
L 261.541074 -77.136705 
L 269.265163 -79.997092 
L 276.95241 -68.850183 
L 284.575426 -117.323262 
L 291.766058 -82.299704 
L 299.117438 -79.230606 
L 306.346522 -60.877367 
L 313.341067 -121.491991 
L 320.738811 -136.04844 
L 328.199377 -131.040108 
L 336.046613 -145.832486 
L 343.640695 -131.2505 
L 350.931782 -68.582241 
L 358.224184 -94.012486 
L 365.279151 -126.369032 
L 372.361709 -123.694527 
L 379.762931 -95.222132 
L 387.018453 -99.418208 
L 394.315961 -97.683658 
L 401.344611 -119.945688 
L 408.359128 -119.049632 
L 408.359128 -168.648885 
L 408.359128 -168.648885 
L 401.344611 -167.875871 
L 394.315961 -170.493249 
L 387.018453 -170.540752 
L 379.762931 -170.016525 
L 372.361709 -171.246477 
L 365.279151 -169.148972 
L 358.224184 -170.259007 
L 350.931782 -171.327498 
L 343.640695 -167.768612 
L 336.046613 -167.312843 
L 328.199377 -169.02948 
L 320.738811 -171.773671 
L 313.341067 -171.018094 
L 306.346522 -158.135266 
L 299.117438 -168.468066 
L 291.766058 -168.529138 
L 284.575426 -171.51589 
L 276.95241 -169.513021 
L 269.265163 -171.049067 
L 261.541074 -171.266315 
L 254.082398 -170.323118 
L 246.518839 -170.95234 
L 239.214825 -170.146126 
L 231.857977 -170.594503 
L 224.539591 -172.596257 
L 217.362523 -168.64467 
L 210.255438 -170.613159 
L 202.965471 -170.358813 
L 195.516289 -169.943601 
L 188.151508 -169.875605 
L 180.643745 -170.526019 
L 173.394903 -166.915449 
L 165.916039 -169.829909 
L 158.659003 -168.173374 
L 151.440924 -167.86346 
L 144.031145 -162.340167 
L 136.270017 -162.232952 
L 128.752435 -155.827657 
L 121.351537 -155.913799 
L 114.26452 -155.283319 
L 107.100945 -146.897487 
L 99.956945 -110.788123 
L 92.316133 -95.31768 
L 84.803395 -98.880342 
L 77.51855 -91.202272 
L 70.492223 -82.368107 
L 63.656069 -75.707765 
L 56.891272 -70.346381 
L 49.776035 -60.539598 
z
" style="stroke: #7f7f7f; stroke-opacity: 0.1"/>
    </defs>
    <g clip-path="url(#p967b19cd79)">
     <use xlink:href="#m4d9d765e05" x="0" y="252" style="fill: #7f7f7f; fill-opacity: 0.1; stroke: #7f7f7f; stroke-opacity: 0.1"/>
    </g>
   </g>
   <g id="matplotlib.axis_1">
    <g id="xtick_1">
     <g id="line2d_1">
      <path d="M 46.19 201.04 
L 46.19 15.557483 
" clip-path="url(#p967b19cd79)" style="fill: none; stroke-dasharray: 2.96,1.28; stroke-dashoffset: 0; stroke: #d3d3d3; stroke-width: 0.8"/>
     </g>
     <g id="line2d_2">
      <defs>
       <path id="mf4b0efd73f" d="M 0 0 
L 0 3.5 
" style="stroke: #000000; stroke-width: 0.8"/>
      </defs>
      <g>
       <use xlink:href="#mf4b0efd73f" x="46.19" y="201.04" style="stroke: #000000; stroke-width: 0.8"/>
      </g>
     </g>
     <g id="text_1">
      <!-- 0 -->
      <g transform="translate(41.73625 218.677813) scale(0.14 -0.14)">
       <defs>
        <path id="DejaVuSans-30" d="M 2034 4250 
Q 1547 4250 1301 3770 
Q 1056 3291 1056 2328 
Q 1056 1369 1301 889 
Q 1547 409 2034 409 
Q 2525 409 2770 889 
Q 3016 1369 3016 2328 
Q 3016 3291 2770 3770 
Q 2525 4250 2034 4250 
z
M 2034 4750 
Q 2819 4750 3233 4129 
Q 3647 3509 3647 2328 
Q 3647 1150 3233 529 
Q 2819 -91 2034 -91 
Q 1250 -91 836 529 
Q 422 1150 422 2328 
Q 422 3509 836 4129 
Q 1250 4750 2034 4750 
z
" transform="scale(0.015625)"/>
       </defs>
       <use xlink:href="#DejaVuSans-30"/>
      </g>
     </g>
    </g>
    <g id="xtick_2">
     <g id="line2d_3">
      <path d="M 137.715 201.04 
L 137.715 15.557483 
" clip-path="url(#p967b19cd79)" style="fill: none; stroke-dasharray: 2.96,1.28; stroke-dashoffset: 0; stroke: #d3d3d3; stroke-width: 0.8"/>
     </g>
     <g id="line2d_4">
      <g>
       <use xlink:href="#mf4b0efd73f" x="137.715" y="201.04" style="stroke: #000000; stroke-width: 0.8"/>
      </g>
     </g>
     <g id="text_2">
      <!-- 5 -->
      <g transform="translate(133.26125 218.677813) scale(0.14 -0.14)">
       <defs>
        <path id="DejaVuSans-35" d="M 691 4666 
L 3169 4666 
L 3169 4134 
L 1269 4134 
L 1269 2991 
Q 1406 3038 1543 3061 
Q 1681 3084 1819 3084 
Q 2600 3084 3056 2656 
Q 3513 2228 3513 1497 
Q 3513 744 3044 326 
Q 2575 -91 1722 -91 
Q 1428 -91 1123 -41 
Q 819 9 494 109 
L 494 744 
Q 775 591 1075 516 
Q 1375 441 1709 441 
Q 2250 441 2565 725 
Q 2881 1009 2881 1497 
Q 2881 1984 2565 2268 
Q 2250 2553 1709 2553 
Q 1456 2553 1204 2497 
Q 953 2441 691 2322 
L 691 4666 
z
" transform="scale(0.015625)"/>
       </defs>
       <use xlink:href="#DejaVuSans-35"/>
      </g>
     </g>
    </g>
    <g id="xtick_3">
     <g id="line2d_5">
      <path d="M 229.24 201.04 
L 229.24 15.557483 
" clip-path="url(#p967b19cd79)" style="fill: none; stroke-dasharray: 2.96,1.28; stroke-dashoffset: 0; stroke: #d3d3d3; stroke-width: 0.8"/>
     </g>
     <g id="line2d_6">
      <g>
       <use xlink:href="#mf4b0efd73f" x="229.24" y="201.04" style="stroke: #000000; stroke-width: 0.8"/>
      </g>
     </g>
     <g id="text_3">
      <!-- 10 -->
      <g transform="translate(220.3325 218.677813) scale(0.14 -0.14)">
       <defs>
        <path id="DejaVuSans-31" d="M 794 531 
L 1825 531 
L 1825 4091 
L 703 3866 
L 703 4441 
L 1819 4666 
L 2450 4666 
L 2450 531 
L 3481 531 
L 3481 0 
L 794 0 
L 794 531 
z
" transform="scale(0.015625)"/>
       </defs>
       <use xlink:href="#DejaVuSans-31"/>
       <use xlink:href="#DejaVuSans-30" x="63.623047"/>
      </g>
     </g>
    </g>
    <g id="xtick_4">
     <g id="line2d_7">
      <path d="M 320.765 201.04 
L 320.765 15.557483 
" clip-path="url(#p967b19cd79)" style="fill: none; stroke-dasharray: 2.96,1.28; stroke-dashoffset: 0; stroke: #d3d3d3; stroke-width: 0.8"/>
     </g>
     <g id="line2d_8">
      <g>
       <use xlink:href="#mf4b0efd73f" x="320.765" y="201.04" style="stroke: #000000; stroke-width: 0.8"/>
      </g>
     </g>
     <g id="text_4">
      <!-- 15 -->
      <g transform="translate(311.8575 218.677813) scale(0.14 -0.14)">
       <use xlink:href="#DejaVuSans-31"/>
       <use xlink:href="#DejaVuSans-35" x="63.623047"/>
      </g>
     </g>
    </g>
    <g id="xtick_5">
     <g id="line2d_9">
      <path d="M 412.29 201.04 
L 412.29 15.557483 
" clip-path="url(#p967b19cd79)" style="fill: none; stroke-dasharray: 2.96,1.28; stroke-dashoffset: 0; stroke: #d3d3d3; stroke-width: 0.8"/>
     </g>
     <g id="line2d_10">
      <g>
       <use xlink:href="#mf4b0efd73f" x="412.29" y="201.04" style="stroke: #000000; stroke-width: 0.8"/>
      </g>
     </g>
     <g id="text_5">
      <!-- 20 -->
      <g transform="translate(403.3825 218.677813) scale(0.14 -0.14)">
       <defs>
        <path id="DejaVuSans-32" d="M 1228 531 
L 3431 531 
L 3431 0 
L 469 0 
L 469 531 
Q 828 903 1448 1529 
Q 2069 2156 2228 2338 
Q 2531 2678 2651 2914 
Q 2772 3150 2772 3378 
Q 2772 3750 2511 3984 
Q 2250 4219 1831 4219 
Q 1534 4219 1204 4116 
Q 875 4013 500 3803 
L 500 4441 
Q 881 4594 1212 4672 
Q 1544 4750 1819 4750 
Q 2544 4750 2975 4387 
Q 3406 4025 3406 3419 
Q 3406 3131 3298 2873 
Q 3191 2616 2906 2266 
Q 2828 2175 2409 1742 
Q 1991 1309 1228 531 
z
" transform="scale(0.015625)"/>
       </defs>
       <use xlink:href="#DejaVuSans-32"/>
       <use xlink:href="#DejaVuSans-30" x="63.623047"/>
      </g>
     </g>
    </g>
    <g id="text_6">
     <!-- Environment steps (×10⁶) -->
     <g transform="translate(125.27125 237.746875) scale(0.16 -0.16)">
      <defs>
       <path id="DejaVuSans-45" d="M 628 4666 
L 3578 4666 
L 3578 4134 
L 1259 4134 
L 1259 2753 
L 3481 2753 
L 3481 2222 
L 1259 2222 
L 1259 531 
L 3634 531 
L 3634 0 
L 628 0 
L 628 4666 
z
" transform="scale(0.015625)"/>
       <path id="DejaVuSans-6e" d="M 3513 2113 
L 3513 0 
L 2938 0 
L 2938 2094 
Q 2938 2591 2744 2837 
Q 2550 3084 2163 3084 
Q 1697 3084 1428 2787 
Q 1159 2491 1159 1978 
L 1159 0 
L 581 0 
L 581 3500 
L 1159 3500 
L 1159 2956 
Q 1366 3272 1645 3428 
Q 1925 3584 2291 3584 
Q 2894 3584 3203 3211 
Q 3513 2838 3513 2113 
z
" transform="scale(0.015625)"/>
       <path id="DejaVuSans-76" d="M 191 3500 
L 800 3500 
L 1894 563 
L 2988 3500 
L 3597 3500 
L 2284 0 
L 1503 0 
L 191 3500 
z
" transform="scale(0.015625)"/>
       <path id="DejaVuSans-69" d="M 603 3500 
L 1178 3500 
L 1178 0 
L 603 0 
L 603 3500 
z
M 603 4863 
L 1178 4863 
L 1178 4134 
L 603 4134 
L 603 4863 
z
" transform="scale(0.015625)"/>
       <path id="DejaVuSans-72" d="M 2631 2963 
Q 2534 3019 2420 3045 
Q 2306 3072 2169 3072 
Q 1681 3072 1420 2755 
Q 1159 2438 1159 1844 
L 1159 0 
L 581 0 
L 581 3500 
L 1159 3500 
L 1159 2956 
Q 1341 3275 1631 3429 
Q 1922 3584 2338 3584 
Q 2397 3584 2469 3576 
Q 2541 3569 2628 3553 
L 2631 2963 
z
" transform="scale(0.015625)"/>
       <path id="DejaVuSans-6f" d="M 1959 3097 
Q 1497 3097 1228 2736 
Q 959 2375 959 1747 
Q 959 1119 1226 758 
Q 1494 397 1959 397 
Q 2419 397 2687 759 
Q 2956 1122 2956 1747 
Q 2956 2369 2687 2733 
Q 2419 3097 1959 3097 
z
M 1959 3584 
Q 2709 3584 3137 3096 
Q 3566 2609 3566 1747 
Q 3566 888 3137 398 
Q 2709 -91 1959 -91 
Q 1206 -91 779 398 
Q 353 888 353 1747 
Q 353 2609 779 3096 
Q 1206 3584 1959 3584 
z
" transform="scale(0.015625)"/>
       <path id="DejaVuSans-6d" d="M 3328 2828 
Q 3544 3216 3844 3400 
Q 4144 3584 4550 3584 
Q 5097 3584 5394 3201 
Q 5691 2819 5691 2113 
L 5691 0 
L 5113 0 
L 5113 2094 
Q 5113 2597 4934 2840 
Q 4756 3084 4391 3084 
Q 3944 3084 3684 2787 
Q 3425 2491 3425 1978 
L 3425 0 
L 2847 0 
L 2847 2094 
Q 2847 2600 2669 2842 
Q 2491 3084 2119 3084 
Q 1678 3084 1418 2786 
Q 1159 2488 1159 1978 
L 1159 0 
L 581 0 
L 581 3500 
L 1159 3500 
L 1159 2956 
Q 1356 3278 1631 3431 
Q 1906 3584 2284 3584 
Q 2666 3584 2933 3390 
Q 3200 3197 3328 2828 
z
" transform="scale(0.015625)"/>
       <path id="DejaVuSans-65" d="M 3597 1894 
L 3597 1613 
L 953 1613 
Q 991 1019 1311 708 
Q 1631 397 2203 397 
Q 2534 397 2845 478 
Q 3156 559 3463 722 
L 3463 178 
Q 3153 47 2828 -22 
Q 2503 -91 2169 -91 
Q 1331 -91 842 396 
Q 353 884 353 1716 
Q 353 2575 817 3079 
Q 1281 3584 2069 3584 
Q 2775 3584 3186 3129 
Q 3597 2675 3597 1894 
z
M 3022 2063 
Q 3016 2534 2758 2815 
Q 2500 3097 2075 3097 
Q 1594 3097 1305 2825 
Q 1016 2553 972 2059 
L 3022 2063 
z
" transform="scale(0.015625)"/>
       <path id="DejaVuSans-74" d="M 1172 4494 
L 1172 3500 
L 2356 3500 
L 2356 3053 
L 1172 3053 
L 1172 1153 
Q 1172 725 1289 603 
Q 1406 481 1766 481 
L 2356 481 
L 2356 0 
L 1766 0 
Q 1100 0 847 248 
Q 594 497 594 1153 
L 594 3053 
L 172 3053 
L 172 3500 
L 594 3500 
L 594 4494 
L 1172 4494 
z
" transform="scale(0.015625)"/>
       <path id="DejaVuSans-20" transform="scale(0.015625)"/>
       <path id="DejaVuSans-73" d="M 2834 3397 
L 2834 2853 
Q 2591 2978 2328 3040 
Q 2066 3103 1784 3103 
Q 1356 3103 1142 2972 
Q 928 2841 928 2578 
Q 928 2378 1081 2264 
Q 1234 2150 1697 2047 
L 1894 2003 
Q 2506 1872 2764 1633 
Q 3022 1394 3022 966 
Q 3022 478 2636 193 
Q 2250 -91 1575 -91 
Q 1294 -91 989 -36 
Q 684 19 347 128 
L 347 722 
Q 666 556 975 473 
Q 1284 391 1588 391 
Q 1994 391 2212 530 
Q 2431 669 2431 922 
Q 2431 1156 2273 1281 
Q 2116 1406 1581 1522 
L 1381 1569 
Q 847 1681 609 1914 
Q 372 2147 372 2553 
Q 372 3047 722 3315 
Q 1072 3584 1716 3584 
Q 2034 3584 2315 3537 
Q 2597 3491 2834 3397 
z
" transform="scale(0.015625)"/>
       <path id="DejaVuSans-70" d="M 1159 525 
L 1159 -1331 
L 581 -1331 
L 581 3500 
L 1159 3500 
L 1159 2969 
Q 1341 3281 1617 3432 
Q 1894 3584 2278 3584 
Q 2916 3584 3314 3078 
Q 3713 2572 3713 1747 
Q 3713 922 3314 415 
Q 2916 -91 2278 -91 
Q 1894 -91 1617 61 
Q 1341 213 1159 525 
z
M 3116 1747 
Q 3116 2381 2855 2742 
Q 2594 3103 2138 3103 
Q 1681 3103 1420 2742 
Q 1159 2381 1159 1747 
Q 1159 1113 1420 752 
Q 1681 391 2138 391 
Q 2594 391 2855 752 
Q 3116 1113 3116 1747 
z
" transform="scale(0.015625)"/>
       <path id="DejaVuSans-28" d="M 1984 4856 
Q 1566 4138 1362 3434 
Q 1159 2731 1159 2009 
Q 1159 1288 1364 580 
Q 1569 -128 1984 -844 
L 1484 -844 
Q 1016 -109 783 600 
Q 550 1309 550 2009 
Q 550 2706 781 3412 
Q 1013 4119 1484 4856 
L 1984 4856 
z
" transform="scale(0.015625)"/>
       <path id="DejaVuSans-d7" d="M 4488 3438 
L 3059 2003 
L 4488 575 
L 4116 197 
L 2681 1631 
L 1247 197 
L 878 575 
L 2303 2003 
L 878 3438 
L 1247 3816 
L 2681 2381 
L 4116 3816 
L 4488 3438 
z
" transform="scale(0.015625)"/>
       <path id="DejaVuSans-2076" d="M 1359 3541 
Q 1084 3541 925 3378 
Q 766 3213 766 2928 
Q 766 2647 925 2484 
Q 1084 2319 1359 2319 
Q 1631 2319 1791 2484 
Q 1950 2647 1950 2928 
Q 1950 3213 1791 3378 
Q 1631 3541 1359 3541 
z
M 2166 4647 
L 2166 4325 
Q 2013 4388 1856 4419 
Q 1700 4453 1547 4453 
Q 1147 4453 934 4219 
Q 722 3981 691 3503 
Q 809 3656 988 3738 
Q 1169 3819 1381 3819 
Q 1834 3819 2097 3581 
Q 2359 3341 2359 2928 
Q 2359 2531 2084 2284 
Q 1813 2041 1359 2041 
Q 838 2041 563 2387 
Q 288 2734 288 3397 
Q 288 4016 625 4381 
Q 963 4750 1531 4750 
Q 1684 4750 1841 4725 
Q 1997 4697 2166 4647 
z
" transform="scale(0.015625)"/>
       <path id="DejaVuSans-29" d="M 513 4856 
L 1013 4856 
Q 1481 4119 1714 3412 
Q 1947 2706 1947 2009 
Q 1947 1309 1714 600 
Q 1481 -109 1013 -844 
L 513 -844 
Q 928 -128 1133 580 
Q 1338 1288 1338 2009 
Q 1338 2731 1133 3434 
Q 928 4138 513 4856 
z
" transform="scale(0.015625)"/>
      </defs>
      <use xlink:href="#DejaVuSans-45"/>
      <use xlink:href="#DejaVuSans-6e" x="63.183594"/>
      <use xlink:href="#DejaVuSans-76" x="126.5625"/>
      <use xlink:href="#DejaVuSans-69" x="185.742188"/>
      <use xlink:href="#DejaVuSans-72" x="213.525391"/>
      <use xlink:href="#DejaVuSans-6f" x="252.388672"/>
      <use xlink:href="#DejaVuSans-6e" x="313.570312"/>
      <use xlink:href="#DejaVuSans-6d" x="376.949219"/>
      <use xlink:href="#DejaVuSans-65" x="474.361328"/>
      <use xlink:href="#DejaVuSans-6e" x="535.884766"/>
      <use xlink:href="#DejaVuSans-74" x="599.263672"/>
      <use xlink:href="#DejaVuSans-20" x="638.472656"/>
      <use xlink:href="#DejaVuSans-73" x="670.259766"/>
      <use xlink:href="#DejaVuSans-74" x="722.359375"/>
      <use xlink:href="#DejaVuSans-65" x="761.568359"/>
      <use xlink:href="#DejaVuSans-70" x="823.091797"/>
      <use xlink:href="#DejaVuSans-73" x="886.568359"/>
      <use xlink:href="#DejaVuSans-20" x="938.667969"/>
      <use xlink:href="#DejaVuSans-28" x="970.455078"/>
      <use xlink:href="#DejaVuSans-d7" x="1009.46875"/>
      <use xlink:href="#DejaVuSans-31" x="1093.257812"/>
      <use xlink:href="#DejaVuSans-30" x="1156.880859"/>
      <use xlink:href="#DejaVuSans-2076" x="1220.503906"/>
      <use xlink:href="#DejaVuSans-29" x="1260.591797"/>
     </g>
    </g>
   </g>
   <g id="matplotlib.axis_2">
    <g id="ytick_1">
     <g id="line2d_11">
      <path d="M 46.19 200.425819 
L 412.29 200.425819 
" clip-path="url(#p967b19cd79)" style="fill: none; stroke-dasharray: 2.96,1.28; stroke-dashoffset: 0; stroke: #d3d3d3; stroke-width: 0.8"/>
     </g>
     <g id="line2d_12">
      <defs>
       <path id="m8174c251b0" d="M 0 0 
L -3.5 0 
" style="stroke: #000000; stroke-width: 0.8"/>
      </defs>
      <g>
       <use xlink:href="#m8174c251b0" x="46.19" y="200.425819" style="stroke: #000000; stroke-width: 0.8"/>
      </g>
     </g>
     <g id="text_7">
      <!-- 0 -->
      <g transform="translate(30.2825 205.744726) scale(0.14 -0.14)">
       <use xlink:href="#DejaVuSans-30"/>
      </g>
     </g>
    </g>
    <g id="ytick_2">
     <g id="line2d_13">
      <path d="M 46.19 139.007768 
L 412.29 139.007768 
" clip-path="url(#p967b19cd79)" style="fill: none; stroke-dasharray: 2.96,1.28; stroke-dashoffset: 0; stroke: #d3d3d3; stroke-width: 0.8"/>
     </g>
     <g id="line2d_14">
      <g>
       <use xlink:href="#m8174c251b0" x="46.19" y="139.007768" style="stroke: #000000; stroke-width: 0.8"/>
      </g>
     </g>
     <g id="text_8">
      <!-- 1 -->
      <g transform="translate(30.2825 144.326674) scale(0.14 -0.14)">
       <use xlink:href="#DejaVuSans-31"/>
      </g>
     </g>
    </g>
    <g id="ytick_3">
     <g id="line2d_15">
      <path d="M 46.19 77.589716 
L 412.29 77.589716 
" clip-path="url(#p967b19cd79)" style="fill: none; stroke-dasharray: 2.96,1.28; stroke-dashoffset: 0; stroke: #d3d3d3; stroke-width: 0.8"/>
     </g>
     <g id="line2d_16">
      <g>
       <use xlink:href="#m8174c251b0" x="46.19" y="77.589716" style="stroke: #000000; stroke-width: 0.8"/>
      </g>
     </g>
     <g id="text_9">
      <!-- 2 -->
      <g transform="translate(30.2825 82.908622) scale(0.14 -0.14)">
       <use xlink:href="#DejaVuSans-32"/>
      </g>
     </g>
    </g>
    <g id="ytick_4">
     <g id="line2d_17">
      <path d="M 46.19 16.171664 
L 412.29 16.171664 
" clip-path="url(#p967b19cd79)" style="fill: none; stroke-dasharray: 2.96,1.28; stroke-dashoffset: 0; stroke: #d3d3d3; stroke-width: 0.8"/>
     </g>
     <g id="line2d_18">
      <g>
       <use xlink:href="#m8174c251b0" x="46.19" y="16.171664" style="stroke: #000000; stroke-width: 0.8"/>
      </g>
     </g>
     <g id="text_10">
      <!-- 3 -->
      <g transform="translate(30.2825 21.49057) scale(0.14 -0.14)">
       <defs>
        <path id="DejaVuSans-33" d="M 2597 2516 
Q 3050 2419 3304 2112 
Q 3559 1806 3559 1356 
Q 3559 666 3084 287 
Q 2609 -91 1734 -91 
Q 1441 -91 1130 -33 
Q 819 25 488 141 
L 488 750 
Q 750 597 1062 519 
Q 1375 441 1716 441 
Q 2309 441 2620 675 
Q 2931 909 2931 1356 
Q 2931 1769 2642 2001 
Q 2353 2234 1838 2234 
L 1294 2234 
L 1294 2753 
L 1863 2753 
Q 2328 2753 2575 2939 
Q 2822 3125 2822 3475 
Q 2822 3834 2567 4026 
Q 2313 4219 1838 4219 
Q 1578 4219 1281 4162 
Q 984 4106 628 3988 
L 628 4550 
Q 988 4650 1302 4700 
Q 1616 4750 1894 4750 
Q 2613 4750 3031 4423 
Q 3450 4097 3450 3541 
Q 3450 3153 3228 2886 
Q 3006 2619 2597 2516 
z
" transform="scale(0.015625)"/>
       </defs>
       <use xlink:href="#DejaVuSans-33"/>
      </g>
     </g>
    </g>
    <g id="text_11">
     <!-- Tasks Completed -->
     <g transform="translate(22.955 175.912492) rotate(-90) scale(0.16 -0.16)">
      <defs>
       <path id="DejaVuSans-54" d="M -19 4666 
L 3928 4666 
L 3928 4134 
L 2272 4134 
L 2272 0 
L 1638 0 
L 1638 4134 
L -19 4134 
L -19 4666 
z
" transform="scale(0.015625)"/>
       <path id="DejaVuSans-61" d="M 2194 1759 
Q 1497 1759 1228 1600 
Q 959 1441 959 1056 
Q 959 750 1161 570 
Q 1363 391 1709 391 
Q 2188 391 2477 730 
Q 2766 1069 2766 1631 
L 2766 1759 
L 2194 1759 
z
M 3341 1997 
L 3341 0 
L 2766 0 
L 2766 531 
Q 2569 213 2275 61 
Q 1981 -91 1556 -91 
Q 1019 -91 701 211 
Q 384 513 384 1019 
Q 384 1609 779 1909 
Q 1175 2209 1959 2209 
L 2766 2209 
L 2766 2266 
Q 2766 2663 2505 2880 
Q 2244 3097 1772 3097 
Q 1472 3097 1187 3025 
Q 903 2953 641 2809 
L 641 3341 
Q 956 3463 1253 3523 
Q 1550 3584 1831 3584 
Q 2591 3584 2966 3190 
Q 3341 2797 3341 1997 
z
" transform="scale(0.015625)"/>
       <path id="DejaVuSans-6b" d="M 581 4863 
L 1159 4863 
L 1159 1991 
L 2875 3500 
L 3609 3500 
L 1753 1863 
L 3688 0 
L 2938 0 
L 1159 1709 
L 1159 0 
L 581 0 
L 581 4863 
z
" transform="scale(0.015625)"/>
       <path id="DejaVuSans-43" d="M 4122 4306 
L 4122 3641 
Q 3803 3938 3442 4084 
Q 3081 4231 2675 4231 
Q 1875 4231 1450 3742 
Q 1025 3253 1025 2328 
Q 1025 1406 1450 917 
Q 1875 428 2675 428 
Q 3081 428 3442 575 
Q 3803 722 4122 1019 
L 4122 359 
Q 3791 134 3420 21 
Q 3050 -91 2638 -91 
Q 1578 -91 968 557 
Q 359 1206 359 2328 
Q 359 3453 968 4101 
Q 1578 4750 2638 4750 
Q 3056 4750 3426 4639 
Q 3797 4528 4122 4306 
z
" transform="scale(0.015625)"/>
       <path id="DejaVuSans-6c" d="M 603 4863 
L 1178 4863 
L 1178 0 
L 603 0 
L 603 4863 
z
" transform="scale(0.015625)"/>
       <path id="DejaVuSans-64" d="M 2906 2969 
L 2906 4863 
L 3481 4863 
L 3481 0 
L 2906 0 
L 2906 525 
Q 2725 213 2448 61 
Q 2172 -91 1784 -91 
Q 1150 -91 751 415 
Q 353 922 353 1747 
Q 353 2572 751 3078 
Q 1150 3584 1784 3584 
Q 2172 3584 2448 3432 
Q 2725 3281 2906 2969 
z
M 947 1747 
Q 947 1113 1208 752 
Q 1469 391 1925 391 
Q 2381 391 2643 752 
Q 2906 1113 2906 1747 
Q 2906 2381 2643 2742 
Q 2381 3103 1925 3103 
Q 1469 3103 1208 2742 
Q 947 2381 947 1747 
z
" transform="scale(0.015625)"/>
      </defs>
      <use xlink:href="#DejaVuSans-54"/>
      <use xlink:href="#DejaVuSans-61" x="44.583984"/>
      <use xlink:href="#DejaVuSans-73" x="105.863281"/>
      <use xlink:href="#DejaVuSans-6b" x="157.962891"/>
      <use xlink:href="#DejaVuSans-73" x="215.873047"/>
      <use xlink:href="#DejaVuSans-20" x="267.972656"/>
      <use xlink:href="#DejaVuSans-43" x="299.759766"/>
      <use xlink:href="#DejaVuSans-6f" x="369.583984"/>
      <use xlink:href="#DejaVuSans-6d" x="430.765625"/>
      <use xlink:href="#DejaVuSans-70" x="528.177734"/>
      <use xlink:href="#DejaVuSans-6c" x="591.654297"/>
      <use xlink:href="#DejaVuSans-65" x="619.4375"/>
      <use xlink:href="#DejaVuSans-74" x="680.960938"/>
      <use xlink:href="#DejaVuSans-65" x="720.169922"/>
      <use xlink:href="#DejaVuSans-64" x="781.693359"/>
     </g>
    </g>
   </g>
   <g id="line2d_19">
    <path d="M 49.711233 197.412131 
L 56.890706 186.803294 
L 64.405503 182.899237 
L 71.851001 175.677303 
L 79.039447 172.396105 
L 86.076012 165.412029 
L 93.334037 162.141354 
L 100.579388 139.89734 
L 107.775866 123.249323 
L 115.141524 105.562701 
L 122.436006 107.418889 
L 129.594894 102.42964 
L 136.760255 96.945995 
L 143.816938 100.143596 
L 151.171477 102.185895 
L 158.65338 96.304723 
L 165.66262 87.075703 
L 172.897722 82.219778 
L 180.463557 91.709042 
L 187.76391 96.143509 
L 194.90095 94.668636 
L 202.326181 123.532213 
L 209.743517 132.363604 
L 216.996179 112.842432 
L 224.5774 102.457106 
L 232.04938 97.87069 
L 239.803014 90.653869 
L 246.959499 93.616811 
L 254.419229 104.676328 
L 261.534898 105.061749 
L 268.569432 91.39606 
L 276.169179 101.454103 
L 283.38646 117.535283 
L 290.648879 96.656154 
L 298.102188 101.576962 
L 305.406704 102.938889 
L 312.814627 97.706943 
L 320.275522 111.04353 
L 327.541538 100.481276 
L 334.877453 98.375731 
L 342.270106 103.232964 
L 349.531764 103.566443 
L 356.640922 106.235354 
L 364.025696 106.506959 
L 371.626166 116.033876 
L 379.234958 115.891248 
L 386.578808 111.628192 
L 393.911559 109.448003 
L 401.27986 114.107446 
L 408.608185 109.329173 
" clip-path="url(#p967b19cd79)" style="fill: none; stroke: #ff7f0e; stroke-width: 2; stroke-linecap: square"/>
   </g>
   <g id="line2d_20">
    <path d="M 49.787903 196.98894 
L 56.449337 190.612444 
L 63.543242 179.645117 
L 70.608148 171.696943 
L 78.210733 151.512464 
L 85.211604 126.077112 
L 92.747932 115.740307 
L 99.453936 112.266997 
L 106.408735 101.552891 
L 113.725078 90.42495 
L 120.859098 84.612108 
L 127.767037 86.950509 
L 135.034623 89.565223 
L 142.618496 87.393025 
L 149.834386 85.762581 
L 157.552044 84.137265 
L 165.360352 88.707327 
L 172.635625 84.873092 
L 179.798743 81.965508 
L 187.000716 90.059987 
L 194.056858 87.853124 
L 201.164534 84.683781 
L 208.745166 84.359808 
L 216.349571 86.767379 
L 224.047024 87.347241 
L 231.94422 66.11781 
L 239.263638 52.257889 
L 246.763655 51.231403 
L 254.313925 50.876459 
L 261.483341 30.741092 
L 268.581303 30.053234 
L 275.903612 34.420951 
L 282.957224 28.268703 
L 290.176776 35.25288 
L 297.850079 39.606935 
L 305.126774 35.93944 
L 312.450398 26.917653 
L 319.737392 29.069044 
L 327.010694 39.252115 
L 334.285694 29.340663 
L 341.397655 37.047563 
L 349.002554 37.473204 
L 356.658815 32.681338 
L 364.315715 32.645969 
L 371.92661 34.612322 
L 379.30897 21.903296 
L 386.452082 34.442092 
L 393.676468 36.69099 
L 400.908473 51.153603 
L 408.494194 45.808441 
" clip-path="url(#p967b19cd79)" style="fill: none; stroke: #17becf; stroke-width: 2; stroke-linecap: square"/>
   </g>
   <g id="line2d_21">
    <path d="M 51.867158 193.624242 
L 63.31646 178.750553 
L 74.717416 160.255553 
L 85.860776 134.209901 
L 98.006752 98.675207 
L 109.342409 94.225083 
L 120.76466 86.73059 
L 131.989516 88.817991 
L 142.853175 93.375842 
L 152.374251 89.740839 
L 158.397269 87.11588 
L 164.177584 83.858045 
L 169.759794 89.917128 
L 175.261559 78.947608 
L 181.309634 51.827989 
L 187.02805 50.230405 
L 192.867702 88.017665 
L 198.709032 64.433461 
L 204.362158 47.602035 
L 210.117982 89.070696 
L 215.814277 34.250477 
L 221.620712 91.312187 
L 227.591292 93.150177 
L 233.42893 87.908285 
L 239.465875 53.445964 
L 245.351836 83.704784 
L 251.662786 55.707729 
L 257.39347 68.872252 
L 263.14979 38.605614 
L 268.882565 67.497179 
L 274.896018 36.258865 
L 283.768792 45.746334 
L 294.972252 36.285711 
L 306.504266 46.460029 
L 318.157769 30.424252 
L 326.595407 46.054771 
L 332.391673 59.790451 
L 338.332897 109.429415 
L 343.971732 64.255454 
L 349.466701 87.52753 
L 355.285605 58.505162 
L 361.141271 57.958668 
L 366.983854 50.503746 
L 372.78574 86.132527 
L 378.830433 84.500648 
L 384.864245 51.857062 
L 390.627588 44.085578 
L 396.829858 63.157071 
L 402.625554 85.184407 
L 408.708215 37.79931 
" clip-path="url(#p967b19cd79)" style="fill: none; stroke: #e377c2; stroke-width: 2; stroke-linecap: square"/>
   </g>
   <g id="line2d_22">
    <path d="M 49.776035 197.569623 
L 56.891272 193.606314 
L 63.656069 190.156222 
L 70.492223 184.636818 
L 77.51855 175.828383 
L 84.803395 167.059896 
L 92.316133 167.575499 
L 99.956945 162.303241 
L 107.100945 154.543802 
L 114.26452 147.036175 
L 121.351537 147.410414 
L 128.752435 134.643115 
L 136.270017 123.780539 
L 144.031145 108.302249 
L 151.440924 103.645013 
L 158.659003 91.14449 
L 165.916039 91.221232 
L 173.394903 89.200303 
L 180.643745 98.259674 
L 188.151508 87.413854 
L 195.516289 91.853315 
L 202.965471 88.010318 
L 210.255438 90.443961 
L 217.362523 103.491705 
L 224.539591 112.293241 
L 231.857977 105.735621 
L 239.214825 99.093149 
L 246.518839 117.297017 
L 254.082398 87.397369 
L 261.541074 112.310673 
L 269.265163 90.907062 
L 276.95241 148.012335 
L 284.575426 92.552162 
L 291.766058 89.451012 
L 299.117438 94.478506 
L 306.346522 151.480452 
L 313.341067 90.650974 
L 320.738811 91.720167 
L 328.199377 91.785833 
L 336.046613 93.666079 
L 343.640695 94.794779 
L 350.931782 91.49545 
L 358.224184 94.079392 
L 365.279151 100.621818 
L 372.361709 85.492554 
L 379.762931 120.011566 
L 387.018453 92.553348 
L 394.315961 102.276538 
L 401.344611 95.893039 
L 408.359128 101.408375 
" clip-path="url(#p967b19cd79)" style="fill: none; stroke-dasharray: 7.4,3.2; stroke-dashoffset: 0; stroke: #7f7f7f; stroke-width: 2"/>
   </g>
   <g id="patch_3">
    <path d="M 46.19 201.04 
L 46.19 15.557483 
" style="fill: none; stroke: #000000; stroke-width: 0.8; stroke-linejoin: miter; stroke-linecap: square"/>
   </g>
   <g id="patch_4">
    <path d="M 412.29 201.04 
L 412.29 15.557483 
" style="fill: none; stroke: #000000; stroke-width: 0.8; stroke-linejoin: miter; stroke-linecap: square"/>
   </g>
   <g id="patch_5">
    <path d="M 46.19 201.04 
L 412.29 201.04 
" style="fill: none; stroke: #000000; stroke-width: 0.8; stroke-linejoin: miter; stroke-linecap: square"/>
   </g>
   <g id="patch_6">
    <path d="M 46.19 15.557483 
L 412.29 15.557483 
" style="fill: none; stroke: #000000; stroke-width: 0.8; stroke-linejoin: miter; stroke-linecap: square"/>
   </g>
  </g>
 </g>
 <defs>
  <clipPath id="p967b19cd79">
   <rect x="46.19" y="15.557483" width="366.1" height="185.482517"/>
  </clipPath>
 </defs>
</svg>
