<?xml version="1.0" encoding="utf-8" standalone="no"?>
<!DOCTYPE svg PUBLIC "-//W3C//DTD SVG 1.1//EN"
  "http://www.w3.org/Graphics/SVG/1.1/DTD/svg11.dtd">
<svg xmlns:xlink="http://www.w3.org/1999/xlink" width="432pt" height="252pt" viewBox="0 0 432 252" xmlns="http://www.w3.org/2000/svg" version="1.1">
 <metadata>
  <rdf:RDF xmlns:dc="http://purl.org/dc/elements/1.1/" xmlns:cc="http://creativecommons.org/ns#" xmlns:rdf="http://www.w3.org/1999/02/22-rdf-syntax-ns#">
   <cc:Work>
    <dc:type rdf:resource="http://purl.org/dc/dcmitype/StillImage"/>
    <dc:date>2023-09-25T00:25:17.264322</dc:date>
    <dc:format>image/svg+xml</dc:format>
    <dc:creator>
     <cc:Agent>
      <dc:title>Matplotlib v3.7.2, https://matplotlib.org/</dc:title>
     </cc:Agent>
    </dc:creator>
   </cc:Work>
  </rdf:RDF>
 </metadata>
 <defs>
  <style type="text/css">*{stroke-linejoin: round; stroke-linecap: butt}</style>
 </defs>
 <g id="figure_1">
  <g id="patch_1">
   <path d="M 0 252 
L 432 252 
L 432 0 
L 0 0 
z
" style="fill: #ffffff"/>
  </g>
  <g id="axes_1">
   <g id="patch_2">
    <path d="M 46.19 201.04 
L 412.29 201.04 
L 412.29 15.557483 
L 46.19 15.557483 
z
" style="fill: #ffffff"/>
   </g>
   <g id="PolyCollection_1">
    <defs>
     <path id="m5d139676a1" d="M 47.909679 -51.574181 
L 47.909679 -51.574181 
L 51.444865 -51.574181 
L 55.019213 -52.498791 
L 58.637049 -52.439095 
L 62.268436 -52.462414 
L 65.894874 -52.182624 
L 69.510233 -51.938478 
L 73.14298 -51.789457 
L 76.777596 -51.749524 
L 80.408279 -52.23086 
L 84.039003 -53.212899 
L 87.649561 -53.350179 
L 91.282798 -55.828855 
L 94.917963 -58.394614 
L 98.551882 -63.335228 
L 102.182459 -62.92287 
L 105.800769 -62.371304 
L 109.424528 -68.068705 
L 113.056817 -71.597841 
L 116.691662 -77.502327 
L 120.319061 -87.099941 
L 123.942015 -90.347105 
L 127.558753 -94.806833 
L 131.18592 -96.004102 
L 134.819857 -96.629178 
L 138.446783 -95.99753 
L 142.074499 -96.109832 
L 145.686561 -98.081736 
L 149.312498 -98.925326 
L 152.946452 -101.371987 
L 156.571609 -100.019948 
L 160.189581 -99.504924 
L 163.791926 -100.093652 
L 167.408812 -99.970955 
L 171.035397 -102.342347 
L 174.658641 -104.248579 
L 178.290479 -106.126167 
L 181.909885 -108.392397 
L 185.514203 -109.101152 
L 189.13796 -108.79779 
L 192.762796 -107.513351 
L 196.393513 -107.459773 
L 200.020126 -110.29419 
L 203.629704 -112.794815 
L 207.253776 -114.664923 
L 210.883865 -115.288802 
L 214.514132 -117.413489 
L 218.138787 -119.891886 
L 221.75125 -119.405223 
L 225.375417 -122.241077 
L 229.003888 -126.635531 
L 232.634948 -135.192289 
L 236.268697 -137.458245 
L 239.888079 -133.138467 
L 243.504481 -137.67275 
L 247.133478 -146.538471 
L 250.767751 -147.541843 
L 254.401428 -150.898589 
L 258.030765 -153.471738 
L 261.644189 -153.450525 
L 265.275291 -164.551351 
L 268.909528 -179.760701 
L 272.534548 -192.24451 
L 276.16669 -196.585401 
L 279.780878 -205.451665 
L 283.410613 -202.848123 
L 287.044724 -202.340451 
L 290.677526 -204.637859 
L 294.305919 -211.398754 
L 297.920842 -214.937091 
L 301.534511 -214.225188 
L 305.166885 -213.432043 
L 308.799519 -211.115508 
L 312.432816 -208.685804 
L 316.058815 -207.14285 
L 319.676166 -206.369315 
L 323.30492 -210.885455 
L 326.931409 -209.314006 
L 330.559858 -207.222933 
L 334.192872 -206.468487 
L 337.806402 -209.548097 
L 341.438 -213.866848 
L 345.07114 -213.543984 
L 348.704383 -214.431838 
L 352.331572 -215.763862 
L 355.944372 -215.541974 
L 359.564638 -217.957789 
L 363.198465 -219.925056 
L 366.831798 -220.145256 
L 370.463812 -219.33676 
L 374.086689 -219.188382 
L 377.703843 -218.185439 
L 381.334794 -216.212525 
L 384.9639 -216.181313 
L 388.591011 -216.071709 
L 392.222265 -213.952748 
L 395.834584 -214.328978 
L 399.467363 -219.797674 
L 403.100661 -219.83377 
L 406.727436 -213.967645 
L 410.361173 -213.41135 
L 410.361173 -226.434002 
L 410.361173 -226.434002 
L 406.727436 -221.240416 
L 403.100661 -225.966505 
L 399.467363 -226.669876 
L 395.834584 -221.957403 
L 392.222265 -219.943831 
L 388.591011 -225.245602 
L 384.9639 -225.516078 
L 381.334794 -225.487593 
L 377.703843 -225.294911 
L 374.086689 -226.176515 
L 370.463812 -226.709009 
L 366.831798 -225.444247 
L 363.198465 -225.45852 
L 359.564638 -224.703245 
L 355.944372 -226.117122 
L 352.331572 -226.251973 
L 348.704383 -225.736217 
L 345.07114 -223.177327 
L 341.438 -222.778477 
L 337.806402 -220.288156 
L 334.192872 -219.080237 
L 330.559858 -223.566518 
L 326.931409 -221.607185 
L 323.30492 -219.230629 
L 319.676166 -217.116848 
L 316.058815 -214.726149 
L 312.432816 -212.504591 
L 308.799519 -214.95597 
L 305.166885 -220.495869 
L 301.534511 -222.726127 
L 297.920842 -222.989003 
L 294.305919 -222.677623 
L 290.677526 -217.720979 
L 287.044724 -213.662136 
L 283.410613 -211.528958 
L 279.780878 -213.953625 
L 276.16669 -214.993092 
L 272.534548 -213.840582 
L 268.909528 -205.222375 
L 265.275291 -201.699388 
L 261.644189 -212.587341 
L 258.030765 -209.188926 
L 254.401428 -201.206798 
L 250.767751 -199.908406 
L 247.133478 -190.545912 
L 243.504481 -176.762829 
L 239.888079 -167.89285 
L 236.268697 -151.395023 
L 232.634948 -144.693709 
L 229.003888 -142.861929 
L 225.375417 -144.184976 
L 221.75125 -142.388769 
L 218.138787 -136.977736 
L 214.514132 -137.236677 
L 210.883865 -136.915286 
L 207.253776 -129.9011 
L 203.629704 -128.606104 
L 200.020126 -125.558079 
L 196.393513 -122.882729 
L 192.762796 -124.658331 
L 189.13796 -115.696376 
L 185.514203 -114.671367 
L 181.909885 -114.572708 
L 178.290479 -114.247622 
L 174.658641 -113.295716 
L 171.035397 -112.921771 
L 167.408812 -112.760197 
L 163.791926 -108.42027 
L 160.189581 -109.856445 
L 156.571609 -109.347769 
L 152.946452 -105.447048 
L 149.312498 -103.233992 
L 145.686561 -101.604819 
L 142.074499 -103.953984 
L 138.446783 -103.760135 
L 134.819857 -102.608659 
L 131.18592 -103.4316 
L 127.558753 -101.837089 
L 123.942015 -99.088672 
L 120.319061 -96.089355 
L 116.691662 -94.007201 
L 113.056817 -93.212013 
L 109.424528 -90.98253 
L 105.800769 -89.266704 
L 102.182459 -89.640831 
L 98.551882 -83.78878 
L 94.917963 -77.038525 
L 91.282798 -70.457364 
L 87.649561 -67.918363 
L 84.039003 -66.552244 
L 80.408279 -61.667809 
L 76.777596 -56.810558 
L 73.14298 -56.550508 
L 69.510233 -58.619435 
L 65.894874 -57.611229 
L 62.268436 -55.041127 
L 58.637049 -54.204794 
L 55.019213 -53.468349 
L 51.444865 -52.731116 
L 47.909679 -51.574181 
z
" style="stroke: #17becf; stroke-opacity: 0.1"/>
    </defs>
    <g clip-path="url(#p6cfc0fa397)">
     <use xlink:href="#m5d139676a1" x="0" y="252" style="fill: #17becf; fill-opacity: 0.1; stroke: #17becf; stroke-opacity: 0.1"/>
    </g>
   </g>
   <g id="PolyCollection_2">
    <defs>
     <path id="m2710c28308" d="M 47.90484 -52.215776 
L 47.90484 -51.574181 
L 51.388691 -51.574181 
L 54.897621 -51.767692 
L 58.465457 -51.810216 
L 62.081601 -51.730771 
L 65.712795 -52.784165 
L 69.326548 -52.958953 
L 72.952599 -54.957746 
L 76.583928 -53.963762 
L 80.21878 -54.568688 
L 83.853505 -55.262148 
L 87.467645 -56.525569 
L 91.091919 -57.751088 
L 94.726723 -61.66262 
L 98.361261 -65.756194 
L 101.989293 -67.641792 
L 105.610025 -70.937622 
L 109.223145 -81.146525 
L 112.850077 -87.509989 
L 116.481885 -86.460146 
L 120.115761 -92.972361 
L 123.743767 -94.601775 
L 127.351724 -93.491829 
L 130.980603 -94.291702 
L 134.606327 -95.166778 
L 138.227689 -97.331837 
L 141.856352 -99.753639 
L 145.469328 -100.612378 
L 149.083173 -101.710553 
L 152.701061 -103.727139 
L 156.323758 -104.729519 
L 159.944898 -106.214879 
L 163.559507 -105.58116 
L 167.166079 -105.588055 
L 170.791558 -105.677545 
L 174.411092 -106.541169 
L 178.029028 -106.42953 
L 181.65285 -108.321917 
L 185.255119 -108.583338 
L 188.883358 -106.234821 
L 192.51239 -106.311103 
L 196.136459 -107.238173 
L 199.756168 -107.085012 
L 203.367871 -107.520654 
L 206.987189 -106.820863 
L 210.617061 -108.797473 
L 214.233492 -108.70744 
L 217.859967 -111.554738 
L 221.480559 -111.218497 
L 225.093794 -113.625607 
L 228.727217 -115.784027 
L 232.359321 -111.037832 
L 235.98128 -111.240242 
L 239.608035 -115.685689 
L 243.217614 -116.127484 
L 246.844973 -113.499352 
L 250.4773 -112.977628 
L 254.102523 -115.820274 
L 257.731238 -116.177591 
L 261.348391 -114.860405 
L 264.974302 -117.509527 
L 268.608417 -120.880703 
L 272.23476 -118.534747 
L 275.862043 -118.402642 
L 279.484358 -122.314208 
L 283.101016 -135.172595 
L 286.734681 -138.510472 
L 290.366525 -143.462746 
L 293.998912 -157.780518 
L 297.627472 -166.663028 
L 301.224206 -166.575133 
L 304.848465 -181.556968 
L 308.47958 -183.684454 
L 312.111612 -192.418496 
L 315.743553 -193.148027 
L 319.358771 -191.095187 
L 322.982572 -191.65016 
L 326.610089 -201.611581 
L 330.238674 -203.277204 
L 333.866907 -210.177572 
L 337.49105 -212.142409 
L 341.108654 -208.042037 
L 344.741415 -207.833748 
L 348.366313 -210.082528 
L 351.995186 -217.615109 
L 355.620418 -215.81752 
L 359.231588 -215.522977 
L 362.860183 -216.701958 
L 366.49298 -219.485061 
L 370.124844 -220.60975 
L 373.752866 -221.435603 
L 377.367602 -218.07485 
L 380.991656 -216.740295 
L 384.623348 -218.699353 
L 388.256621 -216.943467 
L 391.884442 -216.716534 
L 395.506287 -217.034946 
L 399.122814 -219.442071 
L 402.754977 -217.433008 
L 406.388685 -217.321197 
L 410.018238 -216.278282 
L 410.018238 -227.862856 
L 410.018238 -227.862856 
L 406.388685 -226.720424 
L 402.754977 -224.729496 
L 399.122814 -224.265168 
L 395.506287 -226.516329 
L 391.884442 -227.892435 
L 388.256621 -225.473982 
L 384.623348 -226.650169 
L 380.991656 -227.887313 
L 377.367602 -227.799964 
L 373.752866 -228.069399 
L 370.124844 -226.189854 
L 366.49298 -224.706641 
L 362.860183 -224.588801 
L 359.231588 -224.957956 
L 355.620418 -222.211195 
L 351.995186 -223.942015 
L 348.366313 -228.768544 
L 344.741415 -227.31139 
L 341.108654 -223.769199 
L 337.49105 -225.764913 
L 333.866907 -228.174719 
L 330.238674 -218.287106 
L 326.610089 -223.751782 
L 322.982572 -223.675489 
L 319.358771 -222.516517 
L 315.743553 -227.060486 
L 312.111612 -225.861847 
L 308.47958 -225.239001 
L 304.848465 -221.716044 
L 301.224206 -222.387095 
L 297.627472 -218.988205 
L 293.998912 -218.508868 
L 290.366525 -222.102356 
L 286.734681 -220.601023 
L 283.101016 -214.972572 
L 279.484358 -216.081129 
L 275.862043 -218.101188 
L 272.23476 -217.733475 
L 268.608417 -221.118783 
L 264.974302 -220.88686 
L 261.348391 -214.970383 
L 257.731238 -207.476539 
L 254.102523 -203.866473 
L 250.4773 -201.452882 
L 246.844973 -200.185797 
L 243.217614 -193.592947 
L 239.608035 -197.037362 
L 235.98128 -197.89844 
L 232.359321 -184.832826 
L 228.727217 -172.948717 
L 225.093794 -154.155694 
L 221.480559 -150.258473 
L 217.859967 -150.43907 
L 214.233492 -149.782206 
L 210.617061 -148.269458 
L 206.987189 -142.277715 
L 203.367871 -132.290297 
L 199.756168 -126.159296 
L 196.136459 -122.937686 
L 192.51239 -120.200245 
L 188.883358 -122.813875 
L 185.255119 -124.739539 
L 181.65285 -120.737083 
L 178.029028 -117.867539 
L 174.411092 -117.511338 
L 170.791558 -117.710703 
L 167.166079 -115.356221 
L 163.559507 -112.908827 
L 159.944898 -109.67422 
L 156.323758 -109.301319 
L 152.701061 -107.930117 
L 149.083173 -105.679091 
L 145.469328 -104.970256 
L 141.856352 -106.317988 
L 138.227689 -108.243212 
L 134.606327 -105.529436 
L 130.980603 -102.614364 
L 127.351724 -102.036373 
L 123.743767 -98.544506 
L 120.115761 -96.84471 
L 116.481885 -94.764872 
L 112.850077 -92.290017 
L 109.223145 -89.740081 
L 105.610025 -87.246112 
L 101.989293 -81.295767 
L 98.361261 -75.446795 
L 94.726723 -74.684615 
L 91.091919 -69.365932 
L 87.467645 -64.322424 
L 83.853505 -65.065147 
L 80.21878 -64.799693 
L 76.583928 -62.021794 
L 72.952599 -60.335577 
L 69.326548 -58.199633 
L 65.712795 -58.140766 
L 62.081601 -56.507686 
L 58.465457 -55.547458 
L 54.897621 -53.716393 
L 51.388691 -53.224442 
L 47.90484 -52.215776 
z
" style="stroke: #e377c2; stroke-opacity: 0.1"/>
    </defs>
    <g clip-path="url(#p6cfc0fa397)">
     <use xlink:href="#m2710c28308" x="0" y="252" style="fill: #e377c2; fill-opacity: 0.1; stroke: #e377c2; stroke-opacity: 0.1"/>
    </g>
   </g>
   <g id="PolyCollection_3">
    <defs>
     <path id="mecc3e13d53" d="M 47.895698 -52.220182 
L 47.895698 -51.574181 
L 51.421863 -51.574181 
L 54.964127 -52.366408 
L 58.552127 -53.89335 
L 62.178649 -53.533122 
L 65.81423 -56.520021 
L 69.435161 -56.358932 
L 73.079299 -57.847708 
L 76.72316 -58.265161 
L 80.367003 -59.75659 
L 84.010414 -59.386927 
L 87.627928 -59.380152 
L 91.268154 -60.20296 
L 94.911286 -63.243102 
L 98.554194 -65.897946 
L 102.197646 -73.014499 
L 105.824163 -76.529871 
L 109.459382 -81.493533 
L 113.102382 -85.675825 
L 116.743543 -89.244585 
L 120.384499 -90.966169 
L 124.01227 -90.594309 
L 127.642373 -93.386458 
L 131.277124 -93.363924 
L 134.904791 -100.050858 
L 138.540409 -95.454835 
L 142.170716 -94.935546 
L 145.780397 -96.807188 
L 149.414194 -104.055039 
L 153.04802 -102.214989 
L 156.676532 -102.262936 
L 160.309449 -102.351631 
L 163.916682 -103.346254 
L 167.5431 -106.535668 
L 171.165082 -104.805934 
L 174.799717 -106.420734 
L 178.439004 -106.601581 
L 182.063436 -107.367961 
L 185.693787 -106.722415 
L 189.333712 -107.149774 
L 192.967234 -107.232001 
L 196.599481 -109.542599 
L 200.226723 -111.984977 
L 203.846195 -113.120893 
L 207.478334 -111.843459 
L 211.116885 -110.801256 
L 214.753155 -110.082291 
L 218.384142 -111.119084 
L 222.004085 -109.40717 
L 225.639902 -109.247555 
L 229.273077 -110.398164 
L 232.909845 -110.29207 
L 236.54362 -110.854846 
L 240.154569 -111.540549 
L 243.784246 -114.698027 
L 247.415245 -119.121306 
L 251.052526 -121.209865 
L 254.691524 -119.678296 
L 258.316992 -121.4055 
L 261.951006 -122.167292 
L 265.592999 -124.865208 
L 269.236029 -124.710957 
L 272.878986 -124.674907 
L 276.509234 -127.870807 
L 280.137874 -129.209287 
L 283.780667 -137.14134 
L 287.423732 -141.558561 
L 291.066153 -144.275476 
L 294.701011 -148.829282 
L 298.32619 -153.142936 
L 301.964757 -155.912803 
L 305.604071 -161.897892 
L 309.245147 -162.028331 
L 312.88455 -160.929225 
L 316.503673 -170.985842 
L 320.142604 -192.283686 
L 323.783181 -192.616285 
L 327.422078 -192.540469 
L 331.059833 -207.913867 
L 334.680137 -211.859083 
L 338.315525 -209.889767 
L 341.954541 -211.261401 
L 345.591714 -211.254711 
L 349.227571 -213.257153 
L 352.854625 -214.648562 
L 356.483625 -215.410931 
L 360.122382 -216.511895 
L 363.756705 -216.890861 
L 367.395243 -209.7239 
L 371.027871 -208.226535 
L 374.653773 -206.806959 
L 378.293597 -212.987973 
L 381.933571 -218.003549 
L 385.573358 -217.705221 
L 389.207193 -217.877031 
L 392.827255 -221.561983 
L 396.468223 -220.915089 
L 400.107452 -219.416948 
L 403.747948 -219.194544 
L 407.383832 -220.859684 
L 407.383832 -225.12383 
L 407.383832 -225.12383 
L 403.747948 -226.450561 
L 400.107452 -224.557429 
L 396.468223 -226.958748 
L 392.827255 -227.281875 
L 389.207193 -227.030889 
L 385.573358 -225.416496 
L 381.933571 -224.277759 
L 378.293597 -226.568049 
L 374.653773 -226.634922 
L 371.027871 -224.766292 
L 367.395243 -219.081144 
L 363.756705 -221.403706 
L 360.122382 -223.230179 
L 356.483625 -222.554185 
L 352.854625 -221.379243 
L 349.227571 -219.360783 
L 345.591714 -218.420871 
L 341.954541 -215.911326 
L 338.315525 -219.859894 
L 334.680137 -220.364487 
L 331.059833 -220.212328 
L 327.422078 -218.458405 
L 323.783181 -218.441991 
L 320.142604 -219.743825 
L 316.503673 -220.149404 
L 312.88455 -213.956519 
L 309.245147 -216.900639 
L 305.604071 -213.442612 
L 301.964757 -214.315832 
L 298.32619 -214.69445 
L 294.701011 -202.972967 
L 291.066153 -199.45704 
L 287.423732 -193.957759 
L 283.780667 -167.032608 
L 280.137874 -167.012536 
L 276.509234 -166.548566 
L 272.878986 -164.437504 
L 269.236029 -164.206127 
L 265.592999 -165.132171 
L 261.951006 -160.972714 
L 258.316992 -153.513126 
L 254.691524 -148.549849 
L 251.052526 -147.22018 
L 247.415245 -146.202755 
L 243.784246 -141.504966 
L 240.154569 -143.719872 
L 236.54362 -142.188798 
L 232.909845 -141.604828 
L 229.273077 -140.642567 
L 225.639902 -138.641864 
L 222.004085 -130.491079 
L 218.384142 -123.017434 
L 214.753155 -122.792284 
L 211.116885 -121.724644 
L 207.478334 -120.294792 
L 203.846195 -122.280103 
L 200.226723 -124.159498 
L 196.599481 -121.444994 
L 192.967234 -114.290334 
L 189.333712 -112.21598 
L 185.693787 -113.145276 
L 182.063436 -112.353033 
L 178.439004 -110.919413 
L 174.799717 -111.490308 
L 171.165082 -108.929496 
L 167.5431 -109.483912 
L 163.916682 -109.436656 
L 160.309449 -111.760755 
L 156.676532 -109.784605 
L 153.04802 -108.399752 
L 149.414194 -108.606413 
L 145.780397 -107.016219 
L 142.170716 -106.568212 
L 138.540409 -106.832216 
L 134.904791 -104.697865 
L 131.277124 -102.328244 
L 127.642373 -102.271234 
L 124.01227 -102.152172 
L 120.384499 -100.884122 
L 116.743543 -97.979165 
L 113.102382 -95.833036 
L 109.459382 -91.242744 
L 105.824163 -85.583213 
L 102.197646 -81.963518 
L 98.554194 -79.674757 
L 94.911286 -75.795874 
L 91.268154 -71.029238 
L 87.627928 -67.4319 
L 84.010414 -62.014103 
L 80.367003 -62.001393 
L 76.72316 -62.570461 
L 73.079299 -62.467345 
L 69.435161 -61.086444 
L 65.81423 -59.623445 
L 62.178649 -59.035803 
L 58.552127 -58.226947 
L 54.964127 -57.620765 
L 51.421863 -53.761937 
L 47.895698 -52.220182 
z
" style="stroke: #ff7f0e; stroke-opacity: 0.1"/>
    </defs>
    <g clip-path="url(#p6cfc0fa397)">
     <use xlink:href="#mecc3e13d53" x="0" y="252" style="fill: #ff7f0e; fill-opacity: 0.1; stroke: #ff7f0e; stroke-opacity: 0.1"/>
    </g>
   </g>
   <g id="PolyCollection_4">
    <defs>
     <path id="m95953cba17" d="M 47.914699 -53.516925 
L 47.914699 -51.574181 
L 51.43846 -51.574181 
L 54.991754 -51.574181 
L 58.573582 -52.359821 
L 62.194311 -52.376153 
L 65.823779 -52.297961 
L 69.440796 -52.377163 
L 73.074361 -52.054956 
L 76.706455 -52.452627 
L 80.34046 -53.498521 
L 83.974259 -54.582571 
L 87.588898 -53.995021 
L 91.214754 -52.252466 
L 94.837005 -51.904963 
L 98.461855 -52.002466 
L 102.091982 -53.489743 
L 105.707644 -52.845004 
L 109.328528 -54.751537 
L 112.960116 -56.156384 
L 116.59175 -56.584304 
L 120.221381 -63.271603 
L 123.848519 -64.970918 
L 127.465761 -65.54775 
L 131.099061 -62.101584 
L 134.732675 -65.026128 
L 138.362168 -65.313188 
L 141.993149 -63.25301 
L 145.607506 -62.83603 
L 149.23846 -63.004945 
L 152.871917 -58.504216 
L 156.502795 -58.117813 
L 160.135223 -61.203634 
L 163.753531 -56.945346 
L 167.380087 -52.834565 
L 171.011155 -52.368537 
L 174.643253 -60.177997 
L 178.274344 -58.055197 
L 181.899608 -56.97202 
L 185.520025 -58.268487 
L 189.152165 -65.301826 
L 192.783561 -61.263111 
L 196.417164 -66.886628 
L 200.0473 -85.349854 
L 203.663621 -76.910715 
L 207.295004 -75.937468 
L 210.927814 -85.639138 
L 214.557367 -84.695633 
L 218.190251 -91.191756 
L 221.803447 -84.289157 
L 225.430337 -85.330905 
L 229.05602 -85.59088 
L 232.682952 -82.671694 
L 236.312829 -90.946697 
L 239.931509 -89.466318 
L 243.550371 -85.819621 
L 247.179429 -92.567285 
L 250.809817 -93.617241 
L 254.434535 -94.748258 
L 258.061352 -87.308169 
L 261.675098 -91.061434 
L 265.30539 -84.801596 
L 268.935892 -91.676763 
L 272.563669 -102.202579 
L 276.192781 -104.227428 
L 279.80553 -104.769164 
L 283.432302 -105.783298 
L 287.06251 -102.691832 
L 290.695646 -106.002359 
L 294.328951 -86.325568 
L 297.938749 -80.919549 
L 301.556068 -94.643944 
L 305.187488 -101.992294 
L 308.820189 -105.487976 
L 312.44688 -107.223916 
L 316.073182 -104.875431 
L 319.690137 -104.775314 
L 323.3247 -101.392191 
L 326.958662 -104.720715 
L 330.590672 -105.039754 
L 334.218152 -106.485833 
L 337.83058 -103.024427 
L 341.460923 -95.148958 
L 345.087847 -95.465328 
L 348.719365 -103.780342 
L 352.352878 -94.542084 
L 355.970344 -96.633892 
L 359.59763 -102.502727 
L 363.227172 -106.352906 
L 366.85918 -104.891905 
L 370.492042 -107.117901 
L 374.114664 -105.132557 
L 377.736284 -107.69404 
L 381.368989 -108.532972 
L 385.001743 -109.374097 
L 388.635189 -110.788437 
L 392.265538 -110.690254 
L 395.878748 -110.272243 
L 399.509279 -110.5465 
L 403.139246 -111.193362 
L 406.773522 -108.566994 
L 410.405382 -107.050209 
L 410.405382 -202.171299 
L 410.405382 -202.171299 
L 406.773522 -192.729133 
L 403.139246 -169.735421 
L 399.509279 -168.800918 
L 395.878748 -171.468312 
L 392.265538 -170.283595 
L 388.635189 -166.108505 
L 385.001743 -163.044445 
L 381.368989 -158.975108 
L 377.736284 -159.246496 
L 374.114664 -154.173544 
L 370.492042 -145.472988 
L 366.85918 -143.147812 
L 363.227172 -139.022698 
L 359.59763 -140.575706 
L 355.970344 -136.682653 
L 352.352878 -135.158031 
L 348.719365 -125.92671 
L 345.087847 -123.985202 
L 341.460923 -125.701531 
L 337.83058 -122.043471 
L 334.218152 -116.658563 
L 330.590672 -121.461734 
L 326.958662 -120.642762 
L 323.3247 -120.634948 
L 319.690137 -120.617298 
L 316.073182 -118.938492 
L 312.44688 -117.246019 
L 308.820189 -118.547734 
L 305.187488 -114.734322 
L 301.556068 -110.706368 
L 297.938749 -106.970996 
L 294.328951 -110.487307 
L 290.695646 -109.733934 
L 287.06251 -110.672105 
L 283.432302 -110.027079 
L 279.80553 -108.898312 
L 276.192781 -108.26833 
L 272.563669 -109.870458 
L 268.935892 -110.399081 
L 265.30539 -109.365621 
L 261.675098 -109.071585 
L 258.061352 -110.22635 
L 254.434535 -109.927543 
L 250.809817 -108.910372 
L 247.179429 -109.497445 
L 243.550371 -107.826497 
L 239.931509 -108.767963 
L 236.312829 -105.327723 
L 232.682952 -101.662512 
L 229.05602 -102.305058 
L 225.430337 -101.480933 
L 221.803447 -100.627089 
L 218.190251 -103.385421 
L 214.557367 -108.352876 
L 210.927814 -107.671762 
L 207.295004 -108.040387 
L 203.663621 -103.665225 
L 200.0473 -101.652346 
L 196.417164 -100.581557 
L 192.783561 -102.149372 
L 189.152165 -97.755998 
L 185.520025 -95.985039 
L 181.899608 -93.281853 
L 178.274344 -87.604292 
L 174.643253 -86.543417 
L 171.011155 -85.966913 
L 167.380087 -81.859536 
L 163.753531 -79.474994 
L 160.135223 -77.063157 
L 156.502795 -79.731699 
L 152.871917 -73.376251 
L 149.23846 -74.105584 
L 145.607506 -76.517282 
L 141.993149 -71.253298 
L 138.362168 -75.072033 
L 134.732675 -75.601646 
L 131.099061 -72.497029 
L 127.465761 -71.513494 
L 123.848519 -71.282054 
L 120.221381 -74.050699 
L 116.59175 -77.090423 
L 112.960116 -81.639134 
L 109.328528 -83.128389 
L 105.707644 -71.270364 
L 102.091982 -65.649314 
L 98.461855 -58.739388 
L 94.837005 -59.15081 
L 91.214754 -59.898695 
L 87.588898 -62.153894 
L 83.974259 -61.749494 
L 80.34046 -58.124694 
L 76.706455 -58.899801 
L 73.074361 -55.99453 
L 69.440796 -53.917862 
L 65.823779 -55.800032 
L 62.194311 -56.503006 
L 58.573582 -56.402915 
L 54.991754 -54.098963 
L 51.43846 -54.088934 
L 47.914699 -53.516925 
z
" style="stroke: #7f7f7f; stroke-opacity: 0.1"/>
    </defs>
    <g clip-path="url(#p6cfc0fa397)">
     <use xlink:href="#m95953cba17" x="0" y="252" style="fill: #7f7f7f; fill-opacity: 0.1; stroke: #7f7f7f; stroke-opacity: 0.1"/>
    </g>
   </g>
   <g id="matplotlib.axis_1">
    <g id="xtick_1">
     <g id="line2d_1">
      <path d="M 46.19 201.04 
L 46.19 15.557483 
" clip-path="url(#p6cfc0fa397)" style="fill: none; stroke-dasharray: 2.96,1.28; stroke-dashoffset: 0; stroke: #d3d3d3; stroke-width: 0.8"/>
     </g>
     <g id="line2d_2">
      <defs>
       <path id="mf3c511528b" d="M 0 0 
L 0 3.5 
" style="stroke: #000000; stroke-width: 0.8"/>
      </defs>
      <g>
       <use xlink:href="#mf3c511528b" x="46.19" y="201.04" style="stroke: #000000; stroke-width: 0.8"/>
      </g>
     </g>
     <g id="text_1">
      <!-- 0 -->
      <g transform="translate(41.73625 218.677813) scale(0.14 -0.14)">
       <defs>
        <path id="DejaVuSans-30" d="M 2034 4250 
Q 1547 4250 1301 3770 
Q 1056 3291 1056 2328 
Q 1056 1369 1301 889 
Q 1547 409 2034 409 
Q 2525 409 2770 889 
Q 3016 1369 3016 2328 
Q 3016 3291 2770 3770 
Q 2525 4250 2034 4250 
z
M 2034 4750 
Q 2819 4750 3233 4129 
Q 3647 3509 3647 2328 
Q 3647 1150 3233 529 
Q 2819 -91 2034 -91 
Q 1250 -91 836 529 
Q 422 1150 422 2328 
Q 422 3509 836 4129 
Q 1250 4750 2034 4750 
z
" transform="scale(0.015625)"/>
       </defs>
       <use xlink:href="#DejaVuSans-30"/>
      </g>
     </g>
    </g>
    <g id="xtick_2">
     <g id="line2d_3">
      <path d="M 137.715 201.04 
L 137.715 15.557483 
" clip-path="url(#p6cfc0fa397)" style="fill: none; stroke-dasharray: 2.96,1.28; stroke-dashoffset: 0; stroke: #d3d3d3; stroke-width: 0.8"/>
     </g>
     <g id="line2d_4">
      <g>
       <use xlink:href="#mf3c511528b" x="137.715" y="201.04" style="stroke: #000000; stroke-width: 0.8"/>
      </g>
     </g>
     <g id="text_2">
      <!-- 6 -->
      <g transform="translate(133.26125 218.677813) scale(0.14 -0.14)">
       <defs>
        <path id="DejaVuSans-36" d="M 2113 2584 
Q 1688 2584 1439 2293 
Q 1191 2003 1191 1497 
Q 1191 994 1439 701 
Q 1688 409 2113 409 
Q 2538 409 2786 701 
Q 3034 994 3034 1497 
Q 3034 2003 2786 2293 
Q 2538 2584 2113 2584 
z
M 3366 4563 
L 3366 3988 
Q 3128 4100 2886 4159 
Q 2644 4219 2406 4219 
Q 1781 4219 1451 3797 
Q 1122 3375 1075 2522 
Q 1259 2794 1537 2939 
Q 1816 3084 2150 3084 
Q 2853 3084 3261 2657 
Q 3669 2231 3669 1497 
Q 3669 778 3244 343 
Q 2819 -91 2113 -91 
Q 1303 -91 875 529 
Q 447 1150 447 2328 
Q 447 3434 972 4092 
Q 1497 4750 2381 4750 
Q 2619 4750 2861 4703 
Q 3103 4656 3366 4563 
z
" transform="scale(0.015625)"/>
       </defs>
       <use xlink:href="#DejaVuSans-36"/>
      </g>
     </g>
    </g>
    <g id="xtick_3">
     <g id="line2d_5">
      <path d="M 229.24 201.04 
L 229.24 15.557483 
" clip-path="url(#p6cfc0fa397)" style="fill: none; stroke-dasharray: 2.96,1.28; stroke-dashoffset: 0; stroke: #d3d3d3; stroke-width: 0.8"/>
     </g>
     <g id="line2d_6">
      <g>
       <use xlink:href="#mf3c511528b" x="229.24" y="201.04" style="stroke: #000000; stroke-width: 0.8"/>
      </g>
     </g>
     <g id="text_3">
      <!-- 12 -->
      <g transform="translate(220.3325 218.677813) scale(0.14 -0.14)">
       <defs>
        <path id="DejaVuSans-31" d="M 794 531 
L 1825 531 
L 1825 4091 
L 703 3866 
L 703 4441 
L 1819 4666 
L 2450 4666 
L 2450 531 
L 3481 531 
L 3481 0 
L 794 0 
L 794 531 
z
" transform="scale(0.015625)"/>
        <path id="DejaVuSans-32" d="M 1228 531 
L 3431 531 
L 3431 0 
L 469 0 
L 469 531 
Q 828 903 1448 1529 
Q 2069 2156 2228 2338 
Q 2531 2678 2651 2914 
Q 2772 3150 2772 3378 
Q 2772 3750 2511 3984 
Q 2250 4219 1831 4219 
Q 1534 4219 1204 4116 
Q 875 4013 500 3803 
L 500 4441 
Q 881 4594 1212 4672 
Q 1544 4750 1819 4750 
Q 2544 4750 2975 4387 
Q 3406 4025 3406 3419 
Q 3406 3131 3298 2873 
Q 3191 2616 2906 2266 
Q 2828 2175 2409 1742 
Q 1991 1309 1228 531 
z
" transform="scale(0.015625)"/>
       </defs>
       <use xlink:href="#DejaVuSans-31"/>
       <use xlink:href="#DejaVuSans-32" x="63.623047"/>
      </g>
     </g>
    </g>
    <g id="xtick_4">
     <g id="line2d_7">
      <path d="M 320.765 201.04 
L 320.765 15.557483 
" clip-path="url(#p6cfc0fa397)" style="fill: none; stroke-dasharray: 2.96,1.28; stroke-dashoffset: 0; stroke: #d3d3d3; stroke-width: 0.8"/>
     </g>
     <g id="line2d_8">
      <g>
       <use xlink:href="#mf3c511528b" x="320.765" y="201.04" style="stroke: #000000; stroke-width: 0.8"/>
      </g>
     </g>
     <g id="text_4">
      <!-- 18 -->
      <g transform="translate(311.8575 218.677813) scale(0.14 -0.14)">
       <defs>
        <path id="DejaVuSans-38" d="M 2034 2216 
Q 1584 2216 1326 1975 
Q 1069 1734 1069 1313 
Q 1069 891 1326 650 
Q 1584 409 2034 409 
Q 2484 409 2743 651 
Q 3003 894 3003 1313 
Q 3003 1734 2745 1975 
Q 2488 2216 2034 2216 
z
M 1403 2484 
Q 997 2584 770 2862 
Q 544 3141 544 3541 
Q 544 4100 942 4425 
Q 1341 4750 2034 4750 
Q 2731 4750 3128 4425 
Q 3525 4100 3525 3541 
Q 3525 3141 3298 2862 
Q 3072 2584 2669 2484 
Q 3125 2378 3379 2068 
Q 3634 1759 3634 1313 
Q 3634 634 3220 271 
Q 2806 -91 2034 -91 
Q 1263 -91 848 271 
Q 434 634 434 1313 
Q 434 1759 690 2068 
Q 947 2378 1403 2484 
z
M 1172 3481 
Q 1172 3119 1398 2916 
Q 1625 2713 2034 2713 
Q 2441 2713 2670 2916 
Q 2900 3119 2900 3481 
Q 2900 3844 2670 4047 
Q 2441 4250 2034 4250 
Q 1625 4250 1398 4047 
Q 1172 3844 1172 3481 
z
" transform="scale(0.015625)"/>
       </defs>
       <use xlink:href="#DejaVuSans-31"/>
       <use xlink:href="#DejaVuSans-38" x="63.623047"/>
      </g>
     </g>
    </g>
    <g id="xtick_5">
     <g id="line2d_9">
      <path d="M 412.29 201.04 
L 412.29 15.557483 
" clip-path="url(#p6cfc0fa397)" style="fill: none; stroke-dasharray: 2.96,1.28; stroke-dashoffset: 0; stroke: #d3d3d3; stroke-width: 0.8"/>
     </g>
     <g id="line2d_10">
      <g>
       <use xlink:href="#mf3c511528b" x="412.29" y="201.04" style="stroke: #000000; stroke-width: 0.8"/>
      </g>
     </g>
     <g id="text_5">
      <!-- 24 -->
      <g transform="translate(403.3825 218.677813) scale(0.14 -0.14)">
       <defs>
        <path id="DejaVuSans-34" d="M 2419 4116 
L 825 1625 
L 2419 1625 
L 2419 4116 
z
M 2253 4666 
L 3047 4666 
L 3047 1625 
L 3713 1625 
L 3713 1100 
L 3047 1100 
L 3047 0 
L 2419 0 
L 2419 1100 
L 313 1100 
L 313 1709 
L 2253 4666 
z
" transform="scale(0.015625)"/>
       </defs>
       <use xlink:href="#DejaVuSans-32"/>
       <use xlink:href="#DejaVuSans-34" x="63.623047"/>
      </g>
     </g>
    </g>
    <g id="text_6">
     <!-- Environment steps (×10⁶) -->
     <g transform="translate(125.27125 237.746875) scale(0.16 -0.16)">
      <defs>
       <path id="DejaVuSans-45" d="M 628 4666 
L 3578 4666 
L 3578 4134 
L 1259 4134 
L 1259 2753 
L 3481 2753 
L 3481 2222 
L 1259 2222 
L 1259 531 
L 3634 531 
L 3634 0 
L 628 0 
L 628 4666 
z
" transform="scale(0.015625)"/>
       <path id="DejaVuSans-6e" d="M 3513 2113 
L 3513 0 
L 2938 0 
L 2938 2094 
Q 2938 2591 2744 2837 
Q 2550 3084 2163 3084 
Q 1697 3084 1428 2787 
Q 1159 2491 1159 1978 
L 1159 0 
L 581 0 
L 581 3500 
L 1159 3500 
L 1159 2956 
Q 1366 3272 1645 3428 
Q 1925 3584 2291 3584 
Q 2894 3584 3203 3211 
Q 3513 2838 3513 2113 
z
" transform="scale(0.015625)"/>
       <path id="DejaVuSans-76" d="M 191 3500 
L 800 3500 
L 1894 563 
L 2988 3500 
L 3597 3500 
L 2284 0 
L 1503 0 
L 191 3500 
z
" transform="scale(0.015625)"/>
       <path id="DejaVuSans-69" d="M 603 3500 
L 1178 3500 
L 1178 0 
L 603 0 
L 603 3500 
z
M 603 4863 
L 1178 4863 
L 1178 4134 
L 603 4134 
L 603 4863 
z
" transform="scale(0.015625)"/>
       <path id="DejaVuSans-72" d="M 2631 2963 
Q 2534 3019 2420 3045 
Q 2306 3072 2169 3072 
Q 1681 3072 1420 2755 
Q 1159 2438 1159 1844 
L 1159 0 
L 581 0 
L 581 3500 
L 1159 3500 
L 1159 2956 
Q 1341 3275 1631 3429 
Q 1922 3584 2338 3584 
Q 2397 3584 2469 3576 
Q 2541 3569 2628 3553 
L 2631 2963 
z
" transform="scale(0.015625)"/>
       <path id="DejaVuSans-6f" d="M 1959 3097 
Q 1497 3097 1228 2736 
Q 959 2375 959 1747 
Q 959 1119 1226 758 
Q 1494 397 1959 397 
Q 2419 397 2687 759 
Q 2956 1122 2956 1747 
Q 2956 2369 2687 2733 
Q 2419 3097 1959 3097 
z
M 1959 3584 
Q 2709 3584 3137 3096 
Q 3566 2609 3566 1747 
Q 3566 888 3137 398 
Q 2709 -91 1959 -91 
Q 1206 -91 779 398 
Q 353 888 353 1747 
Q 353 2609 779 3096 
Q 1206 3584 1959 3584 
z
" transform="scale(0.015625)"/>
       <path id="DejaVuSans-6d" d="M 3328 2828 
Q 3544 3216 3844 3400 
Q 4144 3584 4550 3584 
Q 5097 3584 5394 3201 
Q 5691 2819 5691 2113 
L 5691 0 
L 5113 0 
L 5113 2094 
Q 5113 2597 4934 2840 
Q 4756 3084 4391 3084 
Q 3944 3084 3684 2787 
Q 3425 2491 3425 1978 
L 3425 0 
L 2847 0 
L 2847 2094 
Q 2847 2600 2669 2842 
Q 2491 3084 2119 3084 
Q 1678 3084 1418 2786 
Q 1159 2488 1159 1978 
L 1159 0 
L 581 0 
L 581 3500 
L 1159 3500 
L 1159 2956 
Q 1356 3278 1631 3431 
Q 1906 3584 2284 3584 
Q 2666 3584 2933 3390 
Q 3200 3197 3328 2828 
z
" transform="scale(0.015625)"/>
       <path id="DejaVuSans-65" d="M 3597 1894 
L 3597 1613 
L 953 1613 
Q 991 1019 1311 708 
Q 1631 397 2203 397 
Q 2534 397 2845 478 
Q 3156 559 3463 722 
L 3463 178 
Q 3153 47 2828 -22 
Q 2503 -91 2169 -91 
Q 1331 -91 842 396 
Q 353 884 353 1716 
Q 353 2575 817 3079 
Q 1281 3584 2069 3584 
Q 2775 3584 3186 3129 
Q 3597 2675 3597 1894 
z
M 3022 2063 
Q 3016 2534 2758 2815 
Q 2500 3097 2075 3097 
Q 1594 3097 1305 2825 
Q 1016 2553 972 2059 
L 3022 2063 
z
" transform="scale(0.015625)"/>
       <path id="DejaVuSans-74" d="M 1172 4494 
L 1172 3500 
L 2356 3500 
L 2356 3053 
L 1172 3053 
L 1172 1153 
Q 1172 725 1289 603 
Q 1406 481 1766 481 
L 2356 481 
L 2356 0 
L 1766 0 
Q 1100 0 847 248 
Q 594 497 594 1153 
L 594 3053 
L 172 3053 
L 172 3500 
L 594 3500 
L 594 4494 
L 1172 4494 
z
" transform="scale(0.015625)"/>
       <path id="DejaVuSans-20" transform="scale(0.015625)"/>
       <path id="DejaVuSans-73" d="M 2834 3397 
L 2834 2853 
Q 2591 2978 2328 3040 
Q 2066 3103 1784 3103 
Q 1356 3103 1142 2972 
Q 928 2841 928 2578 
Q 928 2378 1081 2264 
Q 1234 2150 1697 2047 
L 1894 2003 
Q 2506 1872 2764 1633 
Q 3022 1394 3022 966 
Q 3022 478 2636 193 
Q 2250 -91 1575 -91 
Q 1294 -91 989 -36 
Q 684 19 347 128 
L 347 722 
Q 666 556 975 473 
Q 1284 391 1588 391 
Q 1994 391 2212 530 
Q 2431 669 2431 922 
Q 2431 1156 2273 1281 
Q 2116 1406 1581 1522 
L 1381 1569 
Q 847 1681 609 1914 
Q 372 2147 372 2553 
Q 372 3047 722 3315 
Q 1072 3584 1716 3584 
Q 2034 3584 2315 3537 
Q 2597 3491 2834 3397 
z
" transform="scale(0.015625)"/>
       <path id="DejaVuSans-70" d="M 1159 525 
L 1159 -1331 
L 581 -1331 
L 581 3500 
L 1159 3500 
L 1159 2969 
Q 1341 3281 1617 3432 
Q 1894 3584 2278 3584 
Q 2916 3584 3314 3078 
Q 3713 2572 3713 1747 
Q 3713 922 3314 415 
Q 2916 -91 2278 -91 
Q 1894 -91 1617 61 
Q 1341 213 1159 525 
z
M 3116 1747 
Q 3116 2381 2855 2742 
Q 2594 3103 2138 3103 
Q 1681 3103 1420 2742 
Q 1159 2381 1159 1747 
Q 1159 1113 1420 752 
Q 1681 391 2138 391 
Q 2594 391 2855 752 
Q 3116 1113 3116 1747 
z
" transform="scale(0.015625)"/>
       <path id="DejaVuSans-28" d="M 1984 4856 
Q 1566 4138 1362 3434 
Q 1159 2731 1159 2009 
Q 1159 1288 1364 580 
Q 1569 -128 1984 -844 
L 1484 -844 
Q 1016 -109 783 600 
Q 550 1309 550 2009 
Q 550 2706 781 3412 
Q 1013 4119 1484 4856 
L 1984 4856 
z
" transform="scale(0.015625)"/>
       <path id="DejaVuSans-d7" d="M 4488 3438 
L 3059 2003 
L 4488 575 
L 4116 197 
L 2681 1631 
L 1247 197 
L 878 575 
L 2303 2003 
L 878 3438 
L 1247 3816 
L 2681 2381 
L 4116 3816 
L 4488 3438 
z
" transform="scale(0.015625)"/>
       <path id="DejaVuSans-2076" d="M 1359 3541 
Q 1084 3541 925 3378 
Q 766 3213 766 2928 
Q 766 2647 925 2484 
Q 1084 2319 1359 2319 
Q 1631 2319 1791 2484 
Q 1950 2647 1950 2928 
Q 1950 3213 1791 3378 
Q 1631 3541 1359 3541 
z
M 2166 4647 
L 2166 4325 
Q 2013 4388 1856 4419 
Q 1700 4453 1547 4453 
Q 1147 4453 934 4219 
Q 722 3981 691 3503 
Q 809 3656 988 3738 
Q 1169 3819 1381 3819 
Q 1834 3819 2097 3581 
Q 2359 3341 2359 2928 
Q 2359 2531 2084 2284 
Q 1813 2041 1359 2041 
Q 838 2041 563 2387 
Q 288 2734 288 3397 
Q 288 4016 625 4381 
Q 963 4750 1531 4750 
Q 1684 4750 1841 4725 
Q 1997 4697 2166 4647 
z
" transform="scale(0.015625)"/>
       <path id="DejaVuSans-29" d="M 513 4856 
L 1013 4856 
Q 1481 4119 1714 3412 
Q 1947 2706 1947 2009 
Q 1947 1309 1714 600 
Q 1481 -109 1013 -844 
L 513 -844 
Q 928 -128 1133 580 
Q 1338 1288 1338 2009 
Q 1338 2731 1133 3434 
Q 928 4138 513 4856 
z
" transform="scale(0.015625)"/>
      </defs>
      <use xlink:href="#DejaVuSans-45"/>
      <use xlink:href="#DejaVuSans-6e" x="63.183594"/>
      <use xlink:href="#DejaVuSans-76" x="126.5625"/>
      <use xlink:href="#DejaVuSans-69" x="185.742188"/>
      <use xlink:href="#DejaVuSans-72" x="213.525391"/>
      <use xlink:href="#DejaVuSans-6f" x="252.388672"/>
      <use xlink:href="#DejaVuSans-6e" x="313.570312"/>
      <use xlink:href="#DejaVuSans-6d" x="376.949219"/>
      <use xlink:href="#DejaVuSans-65" x="474.361328"/>
      <use xlink:href="#DejaVuSans-6e" x="535.884766"/>
      <use xlink:href="#DejaVuSans-74" x="599.263672"/>
      <use xlink:href="#DejaVuSans-20" x="638.472656"/>
      <use xlink:href="#DejaVuSans-73" x="670.259766"/>
      <use xlink:href="#DejaVuSans-74" x="722.359375"/>
      <use xlink:href="#DejaVuSans-65" x="761.568359"/>
      <use xlink:href="#DejaVuSans-70" x="823.091797"/>
      <use xlink:href="#DejaVuSans-73" x="886.568359"/>
      <use xlink:href="#DejaVuSans-20" x="938.667969"/>
      <use xlink:href="#DejaVuSans-28" x="970.455078"/>
      <use xlink:href="#DejaVuSans-d7" x="1009.46875"/>
      <use xlink:href="#DejaVuSans-31" x="1093.257812"/>
      <use xlink:href="#DejaVuSans-30" x="1156.880859"/>
      <use xlink:href="#DejaVuSans-2076" x="1220.503906"/>
      <use xlink:href="#DejaVuSans-29" x="1260.591797"/>
     </g>
    </g>
   </g>
   <g id="matplotlib.axis_2">
    <g id="ytick_1">
     <g id="line2d_11">
      <path d="M 46.19 200.425819 
L 412.29 200.425819 
" clip-path="url(#p6cfc0fa397)" style="fill: none; stroke-dasharray: 2.96,1.28; stroke-dashoffset: 0; stroke: #d3d3d3; stroke-width: 0.8"/>
     </g>
     <g id="line2d_12">
      <defs>
       <path id="m0ddea14402" d="M 0 0 
L -3.5 0 
" style="stroke: #000000; stroke-width: 0.8"/>
      </defs>
      <g>
       <use xlink:href="#m0ddea14402" x="46.19" y="200.425819" style="stroke: #000000; stroke-width: 0.8"/>
      </g>
     </g>
     <g id="text_7">
      <!-- 0 -->
      <g transform="translate(30.2825 205.744726) scale(0.14 -0.14)">
       <use xlink:href="#DejaVuSans-30"/>
      </g>
     </g>
    </g>
    <g id="ytick_2">
     <g id="line2d_13">
      <path d="M 46.19 139.007768 
L 412.29 139.007768 
" clip-path="url(#p6cfc0fa397)" style="fill: none; stroke-dasharray: 2.96,1.28; stroke-dashoffset: 0; stroke: #d3d3d3; stroke-width: 0.8"/>
     </g>
     <g id="line2d_14">
      <g>
       <use xlink:href="#m0ddea14402" x="46.19" y="139.007768" style="stroke: #000000; stroke-width: 0.8"/>
      </g>
     </g>
     <g id="text_8">
      <!-- 1 -->
      <g transform="translate(30.2825 144.326674) scale(0.14 -0.14)">
       <use xlink:href="#DejaVuSans-31"/>
      </g>
     </g>
    </g>
    <g id="ytick_3">
     <g id="line2d_15">
      <path d="M 46.19 77.589716 
L 412.29 77.589716 
" clip-path="url(#p6cfc0fa397)" style="fill: none; stroke-dasharray: 2.96,1.28; stroke-dashoffset: 0; stroke: #d3d3d3; stroke-width: 0.8"/>
     </g>
     <g id="line2d_16">
      <g>
       <use xlink:href="#m0ddea14402" x="46.19" y="77.589716" style="stroke: #000000; stroke-width: 0.8"/>
      </g>
     </g>
     <g id="text_9">
      <!-- 2 -->
      <g transform="translate(30.2825 82.908622) scale(0.14 -0.14)">
       <use xlink:href="#DejaVuSans-32"/>
      </g>
     </g>
    </g>
    <g id="ytick_4">
     <g id="line2d_17">
      <path d="M 46.19 16.171664 
L 412.29 16.171664 
" clip-path="url(#p6cfc0fa397)" style="fill: none; stroke-dasharray: 2.96,1.28; stroke-dashoffset: 0; stroke: #d3d3d3; stroke-width: 0.8"/>
     </g>
     <g id="line2d_18">
      <g>
       <use xlink:href="#m0ddea14402" x="46.19" y="16.171664" style="stroke: #000000; stroke-width: 0.8"/>
      </g>
     </g>
     <g id="text_10">
      <!-- 3 -->
      <g transform="translate(30.2825 21.49057) scale(0.14 -0.14)">
       <defs>
        <path id="DejaVuSans-33" d="M 2597 2516 
Q 3050 2419 3304 2112 
Q 3559 1806 3559 1356 
Q 3559 666 3084 287 
Q 2609 -91 1734 -91 
Q 1441 -91 1130 -33 
Q 819 25 488 141 
L 488 750 
Q 750 597 1062 519 
Q 1375 441 1716 441 
Q 2309 441 2620 675 
Q 2931 909 2931 1356 
Q 2931 1769 2642 2001 
Q 2353 2234 1838 2234 
L 1294 2234 
L 1294 2753 
L 1863 2753 
Q 2328 2753 2575 2939 
Q 2822 3125 2822 3475 
Q 2822 3834 2567 4026 
Q 2313 4219 1838 4219 
Q 1578 4219 1281 4162 
Q 984 4106 628 3988 
L 628 4550 
Q 988 4650 1302 4700 
Q 1616 4750 1894 4750 
Q 2613 4750 3031 4423 
Q 3450 4097 3450 3541 
Q 3450 3153 3228 2886 
Q 3006 2619 2597 2516 
z
" transform="scale(0.015625)"/>
       </defs>
       <use xlink:href="#DejaVuSans-33"/>
      </g>
     </g>
    </g>
    <g id="text_11">
     <!-- Tasks Completed -->
     <g transform="translate(22.955 175.912492) rotate(-90) scale(0.16 -0.16)">
      <defs>
       <path id="DejaVuSans-54" d="M -19 4666 
L 3928 4666 
L 3928 4134 
L 2272 4134 
L 2272 0 
L 1638 0 
L 1638 4134 
L -19 4134 
L -19 4666 
z
" transform="scale(0.015625)"/>
       <path id="DejaVuSans-61" d="M 2194 1759 
Q 1497 1759 1228 1600 
Q 959 1441 959 1056 
Q 959 750 1161 570 
Q 1363 391 1709 391 
Q 2188 391 2477 730 
Q 2766 1069 2766 1631 
L 2766 1759 
L 2194 1759 
z
M 3341 1997 
L 3341 0 
L 2766 0 
L 2766 531 
Q 2569 213 2275 61 
Q 1981 -91 1556 -91 
Q 1019 -91 701 211 
Q 384 513 384 1019 
Q 384 1609 779 1909 
Q 1175 2209 1959 2209 
L 2766 2209 
L 2766 2266 
Q 2766 2663 2505 2880 
Q 2244 3097 1772 3097 
Q 1472 3097 1187 3025 
Q 903 2953 641 2809 
L 641 3341 
Q 956 3463 1253 3523 
Q 1550 3584 1831 3584 
Q 2591 3584 2966 3190 
Q 3341 2797 3341 1997 
z
" transform="scale(0.015625)"/>
       <path id="DejaVuSans-6b" d="M 581 4863 
L 1159 4863 
L 1159 1991 
L 2875 3500 
L 3609 3500 
L 1753 1863 
L 3688 0 
L 2938 0 
L 1159 1709 
L 1159 0 
L 581 0 
L 581 4863 
z
" transform="scale(0.015625)"/>
       <path id="DejaVuSans-43" d="M 4122 4306 
L 4122 3641 
Q 3803 3938 3442 4084 
Q 3081 4231 2675 4231 
Q 1875 4231 1450 3742 
Q 1025 3253 1025 2328 
Q 1025 1406 1450 917 
Q 1875 428 2675 428 
Q 3081 428 3442 575 
Q 3803 722 4122 1019 
L 4122 359 
Q 3791 134 3420 21 
Q 3050 -91 2638 -91 
Q 1578 -91 968 557 
Q 359 1206 359 2328 
Q 359 3453 968 4101 
Q 1578 4750 2638 4750 
Q 3056 4750 3426 4639 
Q 3797 4528 4122 4306 
z
" transform="scale(0.015625)"/>
       <path id="DejaVuSans-6c" d="M 603 4863 
L 1178 4863 
L 1178 0 
L 603 0 
L 603 4863 
z
" transform="scale(0.015625)"/>
       <path id="DejaVuSans-64" d="M 2906 2969 
L 2906 4863 
L 3481 4863 
L 3481 0 
L 2906 0 
L 2906 525 
Q 2725 213 2448 61 
Q 2172 -91 1784 -91 
Q 1150 -91 751 415 
Q 353 922 353 1747 
Q 353 2572 751 3078 
Q 1150 3584 1784 3584 
Q 2172 3584 2448 3432 
Q 2725 3281 2906 2969 
z
M 947 1747 
Q 947 1113 1208 752 
Q 1469 391 1925 391 
Q 2381 391 2643 752 
Q 2906 1113 2906 1747 
Q 2906 2381 2643 2742 
Q 2381 3103 1925 3103 
Q 1469 3103 1208 2742 
Q 947 2381 947 1747 
z
" transform="scale(0.015625)"/>
      </defs>
      <use xlink:href="#DejaVuSans-54"/>
      <use xlink:href="#DejaVuSans-61" x="44.583984"/>
      <use xlink:href="#DejaVuSans-73" x="105.863281"/>
      <use xlink:href="#DejaVuSans-6b" x="157.962891"/>
      <use xlink:href="#DejaVuSans-73" x="215.873047"/>
      <use xlink:href="#DejaVuSans-20" x="267.972656"/>
      <use xlink:href="#DejaVuSans-43" x="299.759766"/>
      <use xlink:href="#DejaVuSans-6f" x="369.583984"/>
      <use xlink:href="#DejaVuSans-6d" x="430.765625"/>
      <use xlink:href="#DejaVuSans-70" x="528.177734"/>
      <use xlink:href="#DejaVuSans-6c" x="591.654297"/>
      <use xlink:href="#DejaVuSans-65" x="619.4375"/>
      <use xlink:href="#DejaVuSans-74" x="680.960938"/>
      <use xlink:href="#DejaVuSans-65" x="720.169922"/>
      <use xlink:href="#DejaVuSans-64" x="781.693359"/>
     </g>
    </g>
   </g>
   <g id="line2d_19">
    <path d="M 47.909679 200.425819 
L 51.444865 199.917378 
L 55.019213 199.15212 
L 58.637049 199.12739 
L 62.268436 198.709728 
L 65.894874 196.918713 
L 69.510233 196.929575 
L 73.14298 196.934745 
L 76.777596 197.111047 
L 80.408279 196.509795 
L 84.039003 195.499212 
L 87.649561 191.749676 
L 91.282798 192.21016 
L 94.917963 189.262548 
L 98.551882 185.15572 
L 102.182459 181.757722 
L 105.800769 174.52105 
L 109.424528 170.133795 
L 113.056817 166.069124 
L 116.691662 162.977917 
L 120.319061 159.895078 
L 123.942015 155.789352 
L 127.558753 153.634874 
L 131.18592 152.857872 
L 134.819857 152.830387 
L 138.446783 150.483667 
L 142.074499 153.036222 
L 145.686561 151.867255 
L 149.312498 150.822457 
L 152.946452 147.845338 
L 156.571609 146.374178 
L 160.189581 147.468386 
L 163.791926 147.34893 
L 167.408812 144.926837 
L 171.035397 145.185477 
L 174.658641 144.604576 
L 178.290479 142.547291 
L 181.909885 138.429067 
L 185.514203 138.648055 
L 189.13796 140.009952 
L 192.762796 139.438028 
L 196.393513 138.374622 
L 200.020126 139.12952 
L 203.629704 135.214689 
L 207.253776 133.484526 
L 210.883865 130.171998 
L 214.514132 127.600281 
L 218.138787 124.588797 
L 221.75125 118.373804 
L 225.375417 114.528467 
L 229.003888 112.088851 
L 232.634948 111.157958 
L 236.268697 109.508229 
L 239.888079 102.741556 
L 243.504481 90.470776 
L 247.133478 82.158077 
L 250.767751 73.048538 
L 254.401428 69.704431 
L 258.030765 76.536468 
L 261.644189 69.22229 
L 265.275291 65.884979 
L 268.909528 57.866521 
L 272.534548 51.355702 
L 276.16669 47.413023 
L 279.780878 43.321043 
L 283.410613 44.619043 
L 287.044724 43.990936 
L 290.677526 39.662763 
L 294.305919 35.589057 
L 297.920842 32.884867 
L 301.534511 35.194159 
L 305.166885 36.534276 
L 308.799519 39.060986 
L 312.432816 40.71121 
L 316.058815 41.230939 
L 319.676166 40.145108 
L 323.30492 38.291012 
L 326.931409 38.80959 
L 330.559858 39.782728 
L 334.192872 38.814566 
L 337.806402 34.709274 
L 341.438 31.489596 
L 345.07114 33.270359 
L 348.704383 32.170623 
L 352.331572 29.696994 
L 355.944372 32.267303 
L 359.564638 30.444315 
L 363.198465 28.361424 
L 366.831798 30.041685 
L 370.463812 29.237084 
L 374.086689 29.202729 
L 377.703843 27.739485 
L 381.334794 27.460214 
L 384.9639 28.722549 
L 388.591011 29.196958 
L 392.222265 34.721994 
L 395.834584 33.253542 
L 399.467363 31.040566 
L 403.100661 30.198534 
L 406.727436 33.220105 
L 410.361173 33.310101 
" clip-path="url(#p6cfc0fa397)" style="fill: none; stroke: #17becf; stroke-width: 2; stroke-linecap: square"/>
   </g>
   <g id="line2d_20">
    <path d="M 47.90484 200.425819 
L 51.388691 199.598302 
L 54.897621 199.358045 
L 58.465457 197.968738 
L 62.081601 197.919667 
L 65.712795 196.732914 
L 69.326548 195.812676 
L 72.952599 194.378708 
L 76.583928 195.07537 
L 80.21878 193.495249 
L 83.853505 195.327097 
L 87.467645 191.267429 
L 91.091919 186.808144 
L 94.726723 182.185338 
L 98.361261 178.455575 
L 101.989293 176.339587 
L 105.610025 170.410584 
L 109.223145 165.478368 
L 112.850077 161.854054 
L 116.481885 160.135395 
L 120.115761 156.83786 
L 123.743767 155.016366 
L 127.351724 153.887704 
L 130.980603 151.923139 
L 134.606327 150.926604 
L 138.227689 148.591026 
L 141.856352 147.949894 
L 145.469328 149.856749 
L 149.083173 148.722326 
L 152.701061 147.334762 
L 156.323758 144.667928 
L 159.944898 143.98254 
L 163.559507 145.122265 
L 167.166079 145.982017 
L 170.791558 143.942537 
L 174.411092 143.879098 
L 178.029028 139.293954 
L 181.65285 137.131483 
L 185.255119 131.076844 
L 188.883358 132.980062 
L 192.51239 134.681011 
L 196.136459 132.131913 
L 199.756168 129.565707 
L 203.367871 126.032191 
L 206.987189 122.765962 
L 210.617061 111.763505 
L 214.233492 109.117139 
L 217.859967 116.193982 
L 221.480559 111.297635 
L 225.093794 104.739722 
L 228.727217 96.8937 
L 232.359321 94.873594 
L 235.98128 94.769491 
L 239.608035 92.584922 
L 243.217614 92.006078 
L 246.844973 95.557477 
L 250.4773 76.982408 
L 254.102523 57.768629 
L 257.731238 57.705996 
L 261.348391 56.535235 
L 264.974302 52.821005 
L 268.608417 46.816437 
L 272.23476 45.74322 
L 275.862043 39.414713 
L 279.484358 42.397272 
L 283.101016 40.333914 
L 286.734681 40.504774 
L 290.366525 40.707889 
L 293.998912 39.2349 
L 297.627472 37.98212 
L 301.224206 38.427946 
L 304.848465 40.100364 
L 308.47958 35.011068 
L 312.111612 30.708359 
L 315.743553 29.281192 
L 319.358771 35.569851 
L 322.982572 39.265503 
L 326.610089 41.753138 
L 330.238674 37.286527 
L 333.866907 32.426887 
L 337.49105 33.890008 
L 341.108654 29.679674 
L 344.741415 29.158935 
L 348.366313 29.099815 
L 351.995186 32.491565 
L 355.620418 33.31856 
L 359.231588 31.1727 
L 362.860183 32.71215 
L 366.49298 29.368319 
L 370.124844 27.506393 
L 373.752866 28.187886 
L 377.367602 26.531263 
L 380.991656 28.590024 
L 384.623348 31.135869 
L 388.256621 30.358328 
L 391.884442 32.568787 
L 395.506287 30.407871 
L 399.122814 29.837932 
L 402.754977 29.577765 
L 406.388685 27.099425 
L 410.018238 27.955774 
" clip-path="url(#p6cfc0fa397)" style="fill: none; stroke: #e377c2; stroke-width: 2; stroke-linecap: square"/>
   </g>
   <g id="line2d_21">
    <path d="M 47.895698 200.425819 
L 51.421863 199.80312 
L 54.964127 197.528002 
L 58.552127 194.780196 
L 62.178649 194.356645 
L 65.81423 194.416341 
L 69.435161 193.7253 
L 73.079299 190.897824 
L 76.72316 191.852966 
L 80.367003 191.10412 
L 84.010414 191.767996 
L 87.627928 189.451861 
L 91.268154 185.153676 
L 94.911286 183.65242 
L 98.554194 178.924872 
L 102.197646 172.5574 
L 105.824163 171.92713 
L 109.459382 166.504795 
L 113.102382 160.860984 
L 116.743543 157.667056 
L 120.384499 154.367081 
L 124.01227 151.087261 
L 127.642373 150.216743 
L 131.277124 150.582209 
L 134.904791 151.096621 
L 138.540409 149.809789 
L 142.170716 149.611454 
L 145.780397 148.122451 
L 149.414194 145.970539 
L 153.04802 145.18834 
L 156.676532 144.454723 
L 160.309449 142.796452 
L 163.916682 143.960395 
L 167.5431 143.583611 
L 171.165082 145.949687 
L 174.799717 142.727192 
L 178.439004 141.895227 
L 182.063436 141.535627 
L 185.693787 141.675685 
L 189.333712 141.865343 
L 192.967234 142.125031 
L 196.599481 138.809489 
L 200.226723 136.457873 
L 203.846195 136.564519 
L 207.478334 138.747429 
L 211.116885 138.025224 
L 214.753155 137.803391 
L 218.384142 137.16248 
L 222.004085 131.780537 
L 225.639902 136.738699 
L 229.273077 137.87886 
L 232.909845 134.115498 
L 236.54362 134.103719 
L 240.154569 132.861134 
L 243.784246 133.207294 
L 247.415245 127.894152 
L 251.052526 119.983002 
L 254.691524 109.562596 
L 258.316992 104.571769 
L 261.951006 102.117728 
L 265.592999 94.310912 
L 269.236029 91.547734 
L 272.878986 90.285028 
L 276.509234 87.760077 
L 280.137874 87.051628 
L 283.780667 87.691662 
L 287.423732 85.354536 
L 291.066153 84.665466 
L 294.701011 85.427738 
L 298.32619 77.380383 
L 301.964757 62.956292 
L 305.604071 50.207271 
L 309.245147 43.98318 
L 312.88455 49.858669 
L 316.503673 41.736314 
L 320.142604 34.836508 
L 323.783181 36.642825 
L 327.422078 42.301789 
L 331.059833 40.687368 
L 334.680137 36.915914 
L 338.315525 40.573322 
L 341.954541 39.963121 
L 345.591714 35.24236 
L 349.227571 36.060955 
L 352.854625 34.90372 
L 356.483625 31.968244 
L 360.122382 30.67948 
L 363.756705 32.850012 
L 367.395243 35.811914 
L 371.027871 35.289996 
L 374.653773 31.265464 
L 378.293597 32.811661 
L 381.933571 31.628064 
L 385.573358 30.233652 
L 389.207193 28.95392 
L 392.827255 26.419164 
L 396.468223 28.442428 
L 400.107452 29.184382 
L 403.747948 28.185758 
L 407.383832 27.857924 
" clip-path="url(#p6cfc0fa397)" style="fill: none; stroke: #ff7f0e; stroke-width: 2; stroke-linecap: square"/>
   </g>
   <g id="line2d_22">
    <path d="M 47.914699 200.425819 
L 51.43846 198.895371 
L 54.991754 199.422095 
L 58.573582 198.24953 
L 62.194311 198.507777 
L 65.823779 198.62061 
L 69.440796 198.702998 
L 73.074361 198.81486 
L 76.706455 197.553813 
L 80.34046 195.868578 
L 83.974259 193.238365 
L 87.588898 193.245477 
L 91.214754 196.808569 
L 94.837005 198.879148 
L 98.461855 198.19387 
L 102.091982 197.316787 
L 105.707644 187.857067 
L 109.328528 188.022993 
L 112.960116 177.377724 
L 116.59175 182.411964 
L 120.221381 183.945296 
L 123.848519 182.345547 
L 127.465761 182.795904 
L 131.099061 184.616881 
L 134.732675 183.225517 
L 138.362168 184.587268 
L 141.993149 184.843702 
L 145.607506 185.402044 
L 149.23846 183.735886 
L 152.871917 181.126887 
L 156.502795 178.269245 
L 160.135223 180.903559 
L 163.753531 179.330598 
L 167.380087 178.310004 
L 171.011155 178.349206 
L 174.643253 174.851649 
L 178.274344 174.547647 
L 181.899608 169.749262 
L 185.520025 179.124782 
L 189.152165 168.144274 
L 192.783561 173.796406 
L 196.417164 166.918902 
L 200.0473 160.18005 
L 203.663621 161.898959 
L 207.295004 164.48799 
L 210.927814 159.750811 
L 214.557367 155.052896 
L 218.190251 153.662268 
L 221.803447 158.865062 
L 225.430337 156.596387 
L 229.05602 158.314605 
L 232.682952 160.099829 
L 236.312829 152.387453 
L 239.931509 150.262856 
L 243.550371 146.709443 
L 247.179429 145.095172 
L 250.809817 147.05317 
L 254.434535 149.768443 
L 258.061352 149.197774 
L 261.675098 147.823711 
L 265.30539 147.038474 
L 268.935892 143.312125 
L 272.563669 145.89868 
L 276.192781 144.725709 
L 279.80553 144.532209 
L 283.432302 143.492273 
L 287.06251 144.678929 
L 290.695646 144.230575 
L 294.328951 143.988517 
L 297.938749 147.195628 
L 301.556068 146.125804 
L 305.187488 141.610524 
L 308.820189 141.305684 
L 312.44688 142.277372 
L 316.073182 143.837548 
L 319.690137 142.126473 
L 323.3247 139.557026 
L 326.958662 139.078929 
L 330.590672 143.326739 
L 334.218152 143.503328 
L 337.83058 142.354956 
L 341.460923 145.541214 
L 345.087847 145.220363 
L 348.719365 144.996971 
L 352.352878 149.161476 
L 355.970344 147.142416 
L 359.59763 140.95288 
L 363.227172 142.764639 
L 366.85918 143.16018 
L 370.492042 142.120862 
L 374.114664 142.464421 
L 377.736284 141.785767 
L 381.368989 140.954159 
L 385.001743 140.048364 
L 388.635189 137.171199 
L 392.265538 139.496184 
L 395.878748 133.506555 
L 399.509279 133.103139 
L 403.139246 132.287802 
L 406.773522 131.152832 
L 410.405382 129.082445 
" clip-path="url(#p6cfc0fa397)" style="fill: none; stroke-dasharray: 7.4,3.2; stroke-dashoffset: 0; stroke: #7f7f7f; stroke-width: 2"/>
   </g>
   <g id="patch_3">
    <path d="M 46.19 201.04 
L 46.19 15.557483 
" style="fill: none; stroke: #000000; stroke-width: 0.8; stroke-linejoin: miter; stroke-linecap: square"/>
   </g>
   <g id="patch_4">
    <path d="M 412.29 201.04 
L 412.29 15.557483 
" style="fill: none; stroke: #000000; stroke-width: 0.8; stroke-linejoin: miter; stroke-linecap: square"/>
   </g>
   <g id="patch_5">
    <path d="M 46.19 201.04 
L 412.29 201.04 
" style="fill: none; stroke: #000000; stroke-width: 0.8; stroke-linejoin: miter; stroke-linecap: square"/>
   </g>
   <g id="patch_6">
    <path d="M 46.19 15.557483 
L 412.29 15.557483 
" style="fill: none; stroke: #000000; stroke-width: 0.8; stroke-linejoin: miter; stroke-linecap: square"/>
   </g>
  </g>
 </g>
 <defs>
  <clipPath id="p6cfc0fa397">
   <rect x="46.19" y="15.557483" width="366.1" height="185.482517"/>
  </clipPath>
 </defs>
</svg>
